<mxfile host="65bd71144e">
    <diagram id="EAka3V2eqQCFN6y7mSiO" name="Page-1">
        <mxGraphModel dx="760" dy="390" grid="1" gridSize="10" guides="1" tooltips="1" connect="1" arrows="1" fold="1" page="1" pageScale="1" pageWidth="827" pageHeight="1169" math="0" shadow="0">
            <root>
                <mxCell id="0"/>
                <mxCell id="1" parent="0"/>
                <mxCell id="2" value="" style="shape=image;verticalLabelPosition=bottom;labelBackgroundColor=default;verticalAlign=top;aspect=fixed;imageAspect=0;image=data:image/png,iVBORw0KGgoAAAANSUhEUgAAAggAAAEiCAYAAACcIyquAAAAAXNSR0IArs4c6QAAIABJREFUeF7svQV8XceZNv4cvExiJtsyMzvsMGOThpqk2aZpUtjtYnYL/99uuvvvbnm77TZNk7ZJm8ZpoGEmJ2a2Zcsg2bKYL8PBb2euJEuy4FzpCuyc+b5u3as5A+/A+8yLzI0P/0rHWVhURcJ918xG1b6tyJgjwDWDxeH2HdAx9HQ5hkOeqxxXz74XHdEWvH74SdgEJy6beTtO+Kuxp+kjeKzZuKjiZpzoPoTtje/AY83Cgty10DQZpb554MDhlSNPIBjvRKlnDjRdRUjqxqUzbofbmonXDj2BK0vuR0FWKeLxOKqqqqCqKhiGoSsgCAIWLFiArq4uPPTQQ1AUBaIoTujqkL57+x+to/6US/6bATOInmQmZE66np5txbLsaMOasL8bmYNR2qV7kKmsm5G+yVyNzNdIW6nUSff6appG55GuuaR7fKnQxsgcpmr/pZsu6VyzVGic7nmQ/Uf+k46S7jOeyph69x5jAgRA5CyYmbEY55Rcg7AcxFtHn0Z3rBVeWw5umPtlCKyIrlgLBM6CLHs+tje+h20Nb0OHBofgwdL8C7Eo7xx8WvcK9rVugqYr6AUc55deD5vgwDu1z6Ij3IQ7Zv2jYYAgy/KEAwTK5nsAyuANpOsMNAoBGKhgkdAFSBCg6Sz93+R3DjpYRgMPBSJkiIzaU5v8nh6QYOSiTGXznw11ycWWTuZAaJyuiy1V+qZzHqn2baS+uf8GUomsV7oZq7n/ht+JU7n/PvMAgWVYlHnnYVXRZQhKXdhW/zY6Y830BWIX3JTxq5oKf6wdIiciy1GAhmANarsP0Pfzgpy1mJW5BEc79+JQxzbIaoKutJV34KLym2EVnNjR+C4agscgslbcVfnP0w4g9N+aBBDIuoCELiLOWBFlnBQUMJwAjRWhsQLAcARVnPpM18BoKhhNAqtJYDQFFiTgRBiCnoCVkcFT4DA2wDCVB8QIA5mKOmcTQEgX/SYKaJj77+wGCNN5/0313mNu+GpSxZCmx166aG24Hb0fn+r/ka5IuPdqYyoGgRNh452IKSEoqjJADcESZgj0/ZYUqhMRJmGlDETeRqUFcSVKVQq9hQVLwYGiSZC1BAUcFs4+bQGConOI6DYE4URc8EHl7NBZHjrDE01CTxmG2ANWqwcE6BpYTaFgQVSCsCghZLAhWJhEypKFqT4khjfjJFY0AcLpxDYBwuRswLNNgpAuqk3E/pvqu4+5qQcgJJlgTxnbQy9ddB66nSF400jsitggGAUIEzvwU61PN4BAVASyziMMB7qZDMiCGzpvg84Qvb8RMGCQcroOhqhd5DDsagAe3Q87E6dSBSNlqg+JkTFOdh0TIJgAYbL3XN8z4SxTMaSLjmc9QBiJUP3NLtIhbRjq5Z9OczQTIIy87VWdRVBzoJvLQUL0QecsA9UG6To1g6QLDJEsKHE4pDZkMZ2wMtKoqgcTIJy+GCZAMAHChBxRA42aEoRh3rDD2HIZIOmwVab67hsgQUhlIgOEDMNJHIZ5hKbxbTrskE2AMDRpyFIldAs6mUyE+WyoggOgEoPJLDq1WeCkADLUVviY4IjShKk+JJNJGaN9mQDBBAhG90q665kAwQQI6d5Tk96eCRBOJzkBB0HNjk4uH3FLNsDyk74uAzvUqTTBFm9BLtMBYTiVQ5pcJnv7JnQgliQcFYVNR33a6MtiAgQTIIy+SyamhgkQTIAwMTtrEls1AcLpxJZ0AXVaHmRH4TQAB6fGx2gyuEQQ7DAAgUkzQCDmpRwUZKrtcLPhUVUck7htDXdlAgQTIBjeLGmuaAIEEyCkeUtNfnP9AYJvDg9LgYLDbbsBpCeIxVhmZOEcuG/Jt1GYVWYoUFK64yBIuogT/CwoFt9Yhn+WfaPDGm9HiVpj2FhyIgmgMRxUhgTFGl0BR2ow6Y6DoCU9c85MeUpyZSbCSIy0+1lUcbHEqFiXh5SwmQDBBAgTeRdOStu9AOHA3i3oFuvR0FGL1rbWKZUo221O/PBvHkdF6cwpAwh1wmzIoieta0BDKU2Agc5Ig9SoVGF0ZjpsGyTaXrgVM9k6WFklrfQYqrGRmIzG8GhxLECdaymNM5F0rB2tMOOa/mmtU2RwJsMDChFGI9oY/36m08X4tMnziZytjEQzygKbYFe6h9wX6ZZg9UbAND7Sya852Xfc5M/w9B7HbKQ4HQY/0hh6AcLJ2kN48uknEAwGpvwl4HK58PRv/4jKWZWGAIIkSUNGUjSyUYeqk5QgVKYRIOgQoKLYK8Lntk8aSFBVDd2hKJqDChK6MXY6eK/omgrV34C51nZYOfJSmtgyUijZBOvC3vxb0eKZNYFMbmLnZ7Z+dlFAUKKY1/AqiiO7QOKpDi5G7qBUKGI01LLRfo3WMzrGdEeONBq1NN39Gp1vb72zHiBkeqyUGU8HMSHHcZg7dy4yMzPPCoAgsDquW1WOb951ORx2Y+LxVDfo0PV1RGMyfvLMu3hx01HI2ukvR45lwPXkcVBUjb6KTgMJ0W5UMjWwshMPEEjfw10Kcc6DHQV3oMtVlh7ynJGt6OChg6eSKA3chEkDRiaOSqUoDDQdkHvCjJ+R5BznoDlNwtz6V1EW3jYkQBhn80N+buSONsr4jdYzMo+JyIlgBBBNRL9G5tu/zlkPELxOAX6/f1oABJ7nsWzZMmRlZZ0VAMEh6PjXey7B1RcuAc+P7SWf6obtrU+kCG98shffevwdhPvxd3KoMpxWzC/PQ0muF5Ks4tCJVtQ0dyEmKQP3QcyPWTg25QAhwbmxo/BOdDo/mwBB1FUU8QnMsMeR6xIgcAycVn5KIEIoTjYTh/ZQAiejPI5KNsQw1d4+Yz0lY/9OIACh4RWUhLabACGFhHZGKW4CBKOUmqB6vSqGY4f2YcfG48jwZoFlJ0pHaWwSFpsFX/nmbSguKZg2AGE404HeBzelmZ4MNU1CS/d/ibssDP7rwStx0ap54LjJjaVAXuPvbT2Ef/zVGwjGkyJQgeewvLIAFy2dAX8ohpauEIjUpjzfi7ik4JVN1ahr7UafMMEECMY27gTVIqcxi0ngqlIWd6zJwgK7BKWjFRkLF4EVhAnqdeRmdVVB8OgR6LyIZsGH53d34bmDMZyQrFCmBLKklwwWlkGGwKDELcDGM+iMqWiIKAgpOpR+QjYTIJyi+0S85E2AkN59nXJrfUaKe3bALS9EWf4SMFMMEHgBWHixiOxc97QACKLAI9drh8CR5EvEWjsJBDRVR1sgAqvAozTXA1nREIvL4AUWJ1sDSCjJEMkuC4sfPHgFLhwGIJBDEIslaF4nq9WSVhsFChC2HcI//e+bCMRJymygIj8D9125Au/vqsHmqjpISlJgnOm04bpz58IqivjdWzsRjknJ/WQChJTPVTo/8ELGnZXAd26chSwXj5YP3kfje+9iybe+A8HhTGdXhttS43FU//J/YMvLQ8l1NyDGWvCnT0/iex8HUSdbDbczHSvaWOCKUhuuX+hBgVdAQtZAcP3uujj+fCCEvQGJqlYo2DYlCH1LaAKE6bibxzmmPjfHPTvg0RfDjTk4spsYKo6z4XF8brWzuPM7uSgs800LgFCR58PDN61Djs8JgWdBdPWyoiIUTeCXL23Booo8XLaqEqqmozscQzQuYfeRJuw+1oSG9iCcInMaQFBVFYpCGDZDxfnvf7iN/vucdUtht1noi54wd1lWqESH54Wke52u0xSyRHXQK40gdcjvRDVDfiPfkbapBTXL4P1+AEEUONx43nwosobXt1bDbhFx7TlzUdfSjU0HT8JpFXH/VSvx+pbDqKprTaoazgCAwDOAk2MhsEBY1RFTx7eBBQZw8wziKhDp5Qbj2NNGPhUZwMUziBFcyQAejkFIUXFeZgI/uX0GZuW7QGJdRBoaEG2sR+bylWmXIJD1NqKX1hUFXXv3QPR44SwrA8Pz6A5L+O7zR/FYtY7EIHUDWZ9sC4ugrCNKXUWTFCHSESfPwMExIEvmlzXIg5Yu18KixMnjRFBBu3zKENDKMiDMnKz34G9Iu26BxPEAArKO3mwm5HcPz8DKMSBNEemAR2RRF1YQ13SILIOry+y4fI4THx6LoKZLApH5iRyLc8rt8NlYPLU7gP1+mY7XBAimBIHu4/7Jmowc9jOlzgCAgMVwqrNRvYPYIoxtBizHwJMh0pdqyC9DljSQ35xuARYrB39XAnJi5BgLVgeHe/41b9oAhBn5GXj45nVw2UQIAkclBwlJgapp+OWLm7FibjFuv3QJpVlcktEdiqEzGMPTb+3EvtoWOMWBEgTC0Pfsq8aBg8eQneXDqhUL8fHGnWjr6KQShNmzyrF86TzU1tZj8/Z98HndOHfdUgSCYUQjcZSXFWDHnoNYuXQ+gqEIPt64A6quYfXKxSgrycOxmnrs3X8YBfnZWLp4LrZUneiTILhsFjx801q8vvkQlXI8dONaXHvuXCot+M+nP8In+0/gtvUL0eGP4s1tR6Bo2rQFCOSyzxVZFDk45Dh5rCuzw2vj8Of9QXzSEqeiYIFlYGWAiEpkPsnS+99DKdJ6/zbbxeOepR5sPhHDW/VRSD1/IMyiyMYh18aCGHjS9nQdLTENDTEV5XYOmVa2j8lSU0JNx5GQgogKzHFxCElAXVyhr1CqmaISKWCBV8Bdi93YdDwKjmNw1VwXXtrbifWlGr521UwII6inhmLsSWM2pi/jeK9x21AAgPwtHpfQ2NyKgvwc2G3DSwGSd8PpQIL8/vGhdjzwTD2OKjaqbCPzK7ZwmOHl8aV1GXinOoxDbQkcCSjolDXYWQa3zHLg6gUuSIqO773fgepQ0p3WxjLwiSxWF1hw0QwHXjsYQnWXjA5JQ0zTcVG+FWtLbPhLdZgy7N5CQAEBIw8s98LKM/jDniCqQzKlt5Nj8PWVPqwqteFEp4RgQsPsHAEbdgWxpzVBz+p3L8/BH7Z345W6KL5zXiZdh79/uRWHOyV8dY0P3VEF/70zQPeUCRBMgEABwo1fS6Z77i3pSMQ0NhZs/KvhUjwnr7Xk/6UA4apKVBEJwjgBAgEFpbOduP4rJeBFBlvf7MC2t9pROMOOy+8uhDdbxPvPtmDX+x1Q+ivyBk1pOgKEmy9cCFlRMLskh164+441I9Nrx/MfHMCqecVYPrsIsYRM9fuEcfjDMfzw2Y3wh+OnqRi6/UH84rEN8HqcOGftEpSWFODNtz/F8bpGlJUW4PDRE7jj1quoVCEjw4P6hhYUF+XBYbciHI7Rb3795Av48hdvxsHqWrz7wVZcfOEqLF44G7F4Ak//6VXYbBaEwlFcddl5CChMH0Bw2y14+Ma1eHvbEayaW4yLV1TipY/3oyw/A4tm5ONHz36MuaU51D3ytS2HIavTFyAQacHKLBGri+xYW2Gje/rJzd040JlAc0KDwDBYl2fBrEwRWxpjcPAswpKGQwGZAof5PhHZDha6zuBkQEaOk8OOlgSCqo4FLgEPn+PDphMxvFYThl/WqRMbeQkvz7JgUZ5IGTYZw/pKJ3bUx/DTrd1YlWvBgrwe5qrrWFNuh9PC4p9eb0NLRMVXV3lR4Obx2HY/msMK1pfZcahdwp4uCYs8Ah5Y68MntVF0RVRkOTl0dXfj0RuKsajU28fo+x8Xwtibm9tx4mQT8nKz6P4h0q36+mY0NrXB63Vh9qwy+AMh1BxvoJKpuZVldG8QyVRWpg+tbZ3UeDYSieEvr32Iqy8/F2WlhWhr74SiaFQiJYrE+wZ0z1YfPQEpIaNyZgmyszMGSBw6Qgnc+JOd2BT1gUTiFFlgVY4FD67xIcfF46OjEXREFGw+GUdVQKY09fAsriiz4aHzM/HIKy3Y1C5RwDTfI+DqWQ4sKrJiRrYFe+tjcFhYPLs3iDfqorhxhgPnlzvw251+7OrqUYcRiQTH4JpyOx44N4NK9Z7fFcCu5gT8CQ2dcQ3/dF4GKjJF2CwsBQ0FHh6fHIvg9YMheGwcrl/oxi8+7cK8XAtuXebBsmIrfrvFj00noogkNNy5wot/fqsNJ6OqCRD688TPspHizV97bABAGBxLbUoAQ9IubtjCGjAWIgDhnjQBBHLhnHd9Li69Ox+CyKLleBzP/3cdVl2RheUXZ1BMcmhLEBt+chzx6PApjKcjQPj8JUuo1fjimQX0xbfzSANsooA/vrsHFy2twOVr5iAUieOjPbU4f3EFPt1/Ak++sYMa/Q22QVAUBUdrTlLGHg5HccsNl2Lf/iOUAZSXF+Ll1z7EVZefh08278H6C1Zh+84DVF2Q6XMjFIliyaI5+N0fXsY3HroTVquI9z7ajiNHTmDlsvnIyc7AC6+8h9zsTPh8bqxeuRB1bSH846+SNgg2kccdlyxBY3sQPpcNTR1BbK46CbtVwPXnzUNNfQfWLiij9gm7jjXR17Ee6UQle3zaeTEUWTnctciN+flWzMkXIbAsqppjqG5O4Pf7QlR0/NBaH86dZUd9lwyrwOCtqhB+sSsAYvv/pWVuzMq20HVt8isIJhQ8vjOIdkXDQreA712dDZeFwyv7Q3jnWJi+bPtJuOm5I2qIH1yeg7awgn/d2AULC3x+totKdDrCKu5Y4cUfdgTwdkMURHCWb2GxJMuCprCCpXlW3LLcjW+90YZ93TKW+gT821U5VJz9yr4gPjwegVPz46WvLkSW2zLkOe/uDuKJ379EJQ7RWAJfuu9mHDl6Au98sBUWUYAo8rjlxkvx0ivvg2U5zKkso0DyWM1J7Nl/GOvPX4XN2/aivKwIx080YMeuKgpGVyybj5aWDgoeiOSKAFWf14Wc7Exs3roPHreDAoy/uu9muJyOvrEFojI+/9MdeC9ILCcYcAxwQZ4Ff7c+iwKlUFxDbbuE1qCCX+4KUClCpsDgkfMysbrMjl9v6sbzR8JUrWPnGOQKLG5d7MLqUjt+8mEnvnJuBl49GMKfDodx2ywnVpfa8Pj2AKr8EgqtHJVYNMZVKo358mofFFWHx85SMLe7PoYN+0P4p/VZWF5iharqON4hw2VjYRNYPL3ND5FnMDtHxK76OB69Nhe5Hh4ixyCc0LC1LorvvtqKv74wC//6bgcFOKYEwZQg0Of2YIAw+LQOZtSnBJrJmkYAxPAv/qG9CtLha5BOgEAuqSUXZOK6B4tgtXPwt0t48ecnKWiYsdRFRfNb3+jAm79rhJRI6tOHKqkChOFCLRvRpQ7V/+BAScSo75YLFyIQjsHrskGWVWrYl+Gy4Y/v7sWc0ix8/uIliMQkHG/uRo7PgeaOEP7y6UEcbew4TcXQ0dGNHbsPorPTj5MNzbjmygtQV9cMnmdRWJiLN97+BLfdfDk+/nQnAoEIVSOsW72IXtDvfriNvpTb2jrw1QdvR3tHN73YGxrbqLri4otW4/U3N1JpR2aGF0sWz0Fta6BPgkAu9cUz8nH12jl4Y8thHDzRhpgk01egz2nFeQtLUVGQhd+/tROdoRj6AiXZ2iYtkuJw+2KwmyORAhRYOeTbWXxpjQ8JRcevt3ajW9LRHFOpPn9FtgVfWufD/qY4lew8vSdAxf2kLMkUMcMrUDH0tQtceGl/CBuOhKm+mkgQHlrnQ12XBLvIUsbz+z1BHA0r9IVKmBf5jfz3ty7ORlNQpgCBoMdz8yz4qzUZqMgS8fjmbmyoDlHrd7LbiXV8oYXFlbOdVM/9wr4gNhwOI6rqWOZNShBqOiQKKgkD23G0Gb+4pxLFWfbT4D5RXVQfrqVgsaK8iO6Liy5Yge07qqiEoKgwF0eO1dG9dOx4PfburabqqvUXrqbM/dnn30pKBnQdt3/uShDJ1nMvvo3rr7mISiI+3bQbm7buRSgUhc1uxcK5M5CQkz4KpaUF2LptP268bj3KywpPAYSIhBt/vB0bIxnUm4HQ6ooSG1b+HyMv8grIcfNUzfDMgRAaoyrInbc+34oH12WgJSjDLrB4bFs3drRLVLqQIzL42hofyGPnyR1+fPvSbLxZHcazR8K4vdKJVSU2Ko3pSmj44hIPlU78/kAI6/ItuHelD+8dDtN75sO6GLpkjbbzL+dloDxTpMCgoUtBVFFR5BHw261+2EUGV8134ZefdGFxkQ2fW+LG0mIrntqalCAEoxruWuXFP77ZjvqoMiUAwYgMeax3n5G2R6qT7oBFRgIlTYRxZKp0GBUgjNbgaNHbjbz2R+tjLH9PB0DgeAa5JTbYnBwiAQWX3V2IioVONNVE8dIv67H0wgysvTobXW0SXnu8HomoBtHKovl4FDGimB1UUgUIxODPYhn6hWWEJoM34WCAkO11YPXcYtS3dKOhIwiLyOOq1bOpdOCdHcewZn4JuoIR6t5Ymu/Dh7tqUZDlQjgu4dDJDjgEDDBSJAaE4XCEei7Y7VY4HAR0KJRJEyPDWFyi6gTy90AwBEEU4PW46cVMRMWkEJGw2+VAIiEhEAiDFzj6krNYRMRicXqpsxwLp9OOT/Yc6wMI5FubRcDlK2dh6axC7DnSiMMN7bAKApbPLkRxrhcvbjyAfcdaoPYAOD7ehQr1CAR2eKmPETobrTM8QPBgJ4mD0BMoidAjU2RxVYUdl8914fc7/Hi/ITbAYK3IwuJvziEAIYG3j0ep6qEXlhJmvdgn4OaFLrp2P97cRf9OCgEID6zx4sOaKD6pj1FReYesUcO0y0tsuHimgwILwmjnFljx4dEIHv2kC5KmU+BwdYmdMr1ndvvxx8NhKsp2cwwuLbXhijkuZDo5/Hl3AK8ejyLYo25b6hVw/yov3j4SpSoRor6waDH88OpsXLsyv8/moZeOZHlaWzvwxFMvYe3qxcjJ9iEnKwMffboLJ0400VeJ3x/C/ffcSL1uOjr8eP3tT3DpRWuwcvl8KlUgAOCGa9bj3HOWIuAP4ddPPo/zzlmGWTNL0draid8+/RcsXDAL+w8cxc03XEr3Y9WhGpQU5aGpuQ1fuOM6Kl3oLbWtEdz+qwPYHnMnbRB6pCwPr/BhaZEVh1sT1AZhZ1McNREV8zw8vrDMg0hCx4Z9ATywJoO6CP9qi58y9KsqHLhwlh2/2dJF23t4XSZePBDAhmMRXFpoo2v36fEYMuwczp9px///fieOdEu4e5EbiwutqGpOUJXOu0fC8CdUNEc0/MP5GZj3f6CkJSCjLaSi0S/DZ+co0Mi0c/jOZdl4Yosfb5+M4pH/UzNdNseFR15tRVWnhIdX+RCXNfxku5+CutEkCOlm1OlmhkbcCE/tt9EN04zO10g9IwGhesdmpL3x3j8jfT9ugGB0cJNdLx0AISvfis//fTky8kTs+8iPrW+1IzPfgkCnhKbaKFxeAcWzHQh2yiiosOP8G3MgWFm8/VQztr/TfppB5GQDhMGHZDBAoIybTcY2IK828r97DcaIjp6nngPJw0Pqkd96wiLQ30kchP/88hVYv3r+gDgI5IIfLTWDEavykdoZKg4CGScBOfPLcrB0ZiE8DgvV1TZ3BbH1YD0aO4LUU6O3CIlulCuHwTMTn4thpP2f4AYCBMJ85roFXFRux7EuCRub4tRwrH8hTPmaCjsFBa/WRhHq93eiHriugojKgffrYmiKqX3BcoutHC6tsOMgYWadUh/oIH2WOXiUuHnKwAmwyLCzqA+q2NwW73N/Iy/n9SU2dEVVbGpL0D2eJbK4tNyGhApqENcYUanlfG8hBo7EJmFfaxy7u2RqZGmBivsrdfz7rZXwOJJ2AP2LoqrUKLWtrZPanVTOLEUgGEHN8XoQ91yn04Gighw0NrchGIzQ/Vc5q4wC0E827cahw7W46fqLUViQS6VOVVXH0B0IIj8vG3m5mThYfRzlpQXUxmFOZQWItK76yHG6PwrzsjFzRknfnlY0HY+/U4t//iiMbv0UYCdnYaFPpMaGxJg0KuvY0xzHnnYJ1890wGdn8Vx1GM1RFeUOHtdUOijTbg6rOLfcgS31UXA6cMEMOwVozx0IUfG+T2BxYbEVJR4Bik7aTFDJAzFKvaTUhtb/s/noiKtYnm8FT7wdEhp2NicwO1OEQ2TQHlFh4xhcOceJpqCC3+0OIKKD2jasK7dhY20MjQEZDpFFQtWxvMiK8gwRv97eTVVCRrwY0sm4yLpPd4BghH+lmyZG+ky1TirghK7LaCqGVAcwXeqnAyDkl9vxxf9vJtyZApUgPPXvtairDlNDRZuDp14LxObA7RNx1yMVKKq0Q9d0vPtMC97f0AR9kFPDdAMI410rG6/hHz5/Hm69fBVEfnKjzRGDtRfe24nvPf0RYoP4O3mBk/HwxPJOB43b0B8YTHeAQMYnMgw1HCSMdijfGGLRTtQARBceIJ4M/fADmT9hEAQcJQY9jsgq9brCJcbq0pPixiEhjyw97nf9+6wQYvjhNbm4elkedbMdqgwGksN7NQBE4rZ5y15UHzuBubNnYM3KBdRFtrcQUDkSIxrKG4LQcH9dAH/93Als7BKhMaePk7qOkvnpoK9vsl5enqFAiBiG9hYHy4DUJb8Tt8OAotG1IO6JkgYqWehda7KGFoYB8WHolXj17guZ2M+MsgbEvTLPwiKs6NQ7gsjIvMSDZIYDNyxyISHriEk6Mpwc6rtl/HF3ADu6pL59ZEoQUtzkE5hNNPWRDP+FCRB6aJMOgOD0CLjpq6WYu8qNeEzDiz+vQySgYulFPmQVWBENKTiwyY+2+jhu+UYp8kqt8Lcr2PDj4zheFZr2EoTxbjyO0bG42IN7r12L4lyfIT/z8fZJvifSi5OtXXjq9a3YXeeHNpyRyyidTVcJQjpodCa0IUDDAnscf31+Jq5dng+PQwA7muhphImRyy8UitAYGcSdkXg2jLXQMBmSgq1Hu/Czd5vwbpuA8BgTg411DBPxHQGOZQ4OeQ4eFp6hHhA1AQVdkkolB33geZRASel+LZsShIlY7dPbNAFCGgECeSwUz3RizdXZUGWdSg/OvSEHeSXWZFRGHYiEFGx5vYOK1HOKrdj3cTeqtvppwJ7B5WyTIJD5EZBAbBEcIj+EnQ35AAAgAElEQVS6XiFNZ4Bs8khCQUQhqWnHbtJqAoQ0Lcg4miEBkoqEOC4t5XDTshxku5Iggai3pqIQSVNyf2l472AnXqoK4ajkQIJaHXx2iilBSH2t0w2aUh/B6F+YACGNAIE0RRg/MTycvdyDS+4oQE4RAQcDFyLsV7DplTZse6uDAgbi1TBUORsBQu88x86mR9/UQ9UYTcRqpFU+0YUy5QjEaWaDYGTsZ1MdBjosjAYPq8DGaNRAkrhETkUhYcUJtI9qJAgVhyh4Gvfgs1YoQKh/BSXhoZM1pZsZmhKEydlhJkBIM0AgzTncAlUhzF3lGdr4TgcCHTKe+o9aNBwl7kdDL/a0Bwi6Bkbrr9BnoLMpSgZISFtdSYbRm8aFhHd2Sm0o0hvAMiNHwJzoaQw2Upzo/sz2TQqMRgFWTWBe/esoi2wdMpujCRBOp2C6aTLaGo3l7yZAmACAkFNkw13/XIHcEisVPyoSidSYDLXME19yFpASOl57vIF6OhBDxTNOgqDE4ZRaYdMjVJhKZqCAQwguJDgXWKtr9P2oqxDinXDrfnB9UeJH/2zSa5C8D7oGBxOBhemXK3rSB5LscCSAwOs68tQIRFXtDRJK1ybMWdDJWQy9bsl6erQEvEr8M/gWnqJFTVO3ZK1DrAA/S+wpJkeSQbyavNE2zGl9HRmJWhAJz+CSbmZoShDStGFGacYECBMAEOxuHhfclIfiSjuiAQV11RG0NyXg8vIoX+CCJ1tALKzi4+dbUH8kcgZKEHTwkTaU4QSEQeL2uCaghSlA3J4PnRnB6EvXYIm1Il9vhJ09FR52crZ9ar30WauPagueWrtjrT0cQOCgY1WgBl+ofgoFEeL/nxS7q2CwPXcFXim9EoccBfR/D1dY6FgWOI71TR9hdcs2KjCfJD4zVnKY3/VSQCdrDWz2zsL7GRWQhvCgSDex6MNAZ+BTWpGRqAOrDw2gTYBgShDSvfcmtb10eDH0DZgBDbFMkjLJCRWyTNzKSHgTBpzA0N+JUWIirg0rPSBtTbaKYbRASacWRIcYaaYAgR9C3B7TLWhmCpCw5hCzRBolrrckI2lq0GNdyNWakcWHJ3Wdx9JZqih6tD7G+/qJs27sKLijL1BSb382TcE3qx7H/fWvwd5P9UNI7ueseDnvHPx2zt04YssZEiQQOFee6MYDBx7Dta2fwquRIMFmOZMoQNa6lrXgyfxStIokUdSgQvIEkJ/G4f3R1+IAtSC53yZPTTjeMzSYLFMVKGm6761U7z4zDsIkrmiqAIHkNhgqkmKqi9w7xYQmoE6YDVk8FSEu+TcdtmgTSvW6IfXx5JpIaCK6GS9UcGD7WXQTj2xGVwE1ATcXg4s7M6QHRpbdCJ1JCNbxhmElAGF7we3odJYNGBYBBf+y92e4p/FdiIOiIZA16eTseD13Jf4w6w7U2vOg92cSOlASb8fnj23Atc2fIk8J94ED8i35z5kMFnpZF5lDuubRxw4H0DH5a7r6MLLv+tchvbcyHB7PKcZxm2sAy+5lquPdfwP6IzEWpsh+yKhUIp3jM9qW0bGlur6TWd/oXClH6NkDJkBI0wqRDWSxsRCIlCGuDpm0aSwAoTfb3OBDPJZhk0iKYwEIfX31iTj7X5enXhmpvjhS2bBjme94vxltfGTNyeU83stjRICw/+e4p/7t0wBCEtYBAdaCva5yNFsyoBNjGMrKSJ5lDbmJAJYEa+DTTtkekPTOflmDxOggAYzO1EKkWCSAkJ1l4eH6Q9bUZ0S8FFRegGy3QREtYPhTlNE0FbwsQYzHwEoSOGILMsmFAIRf5Zagzuo8DSCkY/9NF4BglKyjnUuj7aRSb7xnfHBfUzGHVOZrAgQD1CKxDrLzLcgs6HFt1EmQHqCrJYGOpjg1ULTYODDkshVZrLw8C3NWeLD3o25s/EsLFBJarV850wHCZ/WQDLdVJgUgHPg57jk5NEDoHRexQUj6YQwEbgQuEDuG3kJsZzsUDW6OpSF6SQyCM7loDENDUFsYwEbikqRYyOwlmx3KvIXglq+Cc9ES8F4fBQi9e12TZeiyhNiRQ4hX7Qe2bIK1oxUsuQgmqbQxHP7XBAh91J4K5vpZvftMCcIIh5zEd5+12IUF53pRNMsBEu+gvSGOI7tDOLYngFlL3TTLIyeA+m4TLwcCFJ75r+OoOxSmWetMgDA8gafioKdyp482vukCEIzOiby4W2UVeSJ/1oT9ieuArGlwpRg3gZzMmGgDe+vtyLnrPoi5eQBLwP7QQEPXNGjRKAKffIiuX/4MrrqaSQMJJkAYuMNHO5dGz0Mq9UyAkAq1zoC66TBSJKmdZy52I7fUirmrvGhvjONkdRhhv4qafUHIkgbRQvJVMnBlCbjxKyXobEngL784iXhs/NkciQ3CZKkYRjJS7F3uz+ohmZYSBMLIyH8Gv2T7ftdBM2tRl9skUCUAoU1RkStMF4DQow4Zx32SBAg6XCQpxWll+PYlqw3KNTeh4Bt/B8HrMzwCXZLg3/gBgv/1PdgaT06KbYIJEEyAYHiDpqmiqWIwQEiLlUXxbCeyCi1YfF4GWuviqNkfQiKqUHfG3pTORGqw+opsrLs2Gy/98iSO7Qn1ZUE8UyQIfLQFFTrxYhhex2oChIGbZtIlCMTmwWYnLjXgMjLAOBxQWpqBRAJ6LApGtIDNywcjiNDDQbBuD+TjNdDj8eEBQq9dyeDMYj1TZSwWMB4SIIyDFg1DD4cHBsFiWJA60FQQ5tkHJlk26e47bLtWsL5MaN2d0BPJ8Y2lDAcQGJsNrNMFrasz6VnUbxxkWNE585H7/Z/BVjGjr1vi9RNPSDRbJEnyRC7JaDQOAtRtNitEMWmboMaiOPn9f4P1pQ3g+9skiCJYqx1aOHg6cDtFGLBOJwUWajiUpCXxRBBFwOYAy3EgQbz0SBh6gtBThwkQTIAwlrMxnm9MgGCQekR14Mu14PK7C9DRlMD+T7ohxTX4OxI0pLLNxWPeSi/OuS4HR3cH8cFzzX3AYXAX09cGAWDlCDxSEyx6rMdjihhc6LAyEqwscY9LpoMeqSS9HQQQt0hiUT+aVniqNOBJF1UdTiZ+WtyH/vMbTZQ52QCBtdthWb0WwpLl4PIKwTidUNtaoB6vRezjDyCUlcN+3c1JY0UCCqxWxN94BUrtMci1NVAVeaAEgechzJ4HRhQgE/06y4PLyYHa0Q49GqE2DXxJKWyXXAE2Px/KoSpEX385CThYFlxuHsRlK8DPmg09FIZScxTSzm3QFRnigsXQgn4ox46CcbjAut1QW0iGUx18cQnEZSshrjkH8o6tUDvaoBw9AqW5kbZLmSZZI4aFrirQ3R4wWTkAYZ5yAmhpAROL0qUaDBBIX+KSpRCXrgRfWobER+9Bqa+HXLWPjosUhWUh3XoXiv/+X8CKyfTNBBjs2l2FfVXHsGLJPCxZPAfNrR14462NSCQkFBfn48rLzoGFMHJNg3/TRnR/62/h6Ozo2ecM7de6/lIkPt0IxuGk49WaGiEfOwy+rAJcUQkIcBEWLqbqDHnbZsgHD0BtbQFfVg7LOeeDKy0Hw/GIPPUbyLXHaF8mQDABgkF2lbZqJkBIgZRE1XDR5/IxY7ELiaiKxpooPnqhlZx/XHJnAQpnOLDv4y7seLcTkeDwkfmmM0Ag5KBhlkm45R6hNHnJsOFW5HOd8HDRUQFCULWhScmA6syjl/voECGFRUhjVZosV9fgTjQin2kBCSY0VJluAIFIBixLlsF6650AeaUqKtiCQsjVhxD909MQ5i2A48tfBeP1UcaEXib68XuIvfgcFHkgQCAvf/vV14NxuxF57k9grFa4/uohJD5+H4ltmwFBgHX9ZRCXLgdXWAy1rRXh//4h1M4OcJmZcH3lG9BlBWxmJtTaGvCVcxB95UXIu3fC/rnboLY0I/rWGxBmzIT9xlsR/cOTUBobIM5fCPudX6QSEOmTjyAfPwbl8CHoiQSsF15MpSG6lKCMMr5jG/hbbofztrvBcCy0SBjhn/8AygfvDQ0QRCssq1fDduNtkLdtgnT0CPRIiIIEPUJAjw5FFKF+6esofOAhMNTzA1RScPjocWzZvh+zKkpwztoleO+DrWjv6EYkFkNDQyv+9hv3IDsrqY6QO9tRc9/tyDhRQ409GUKriy4FP7MS0vYtYLNzgHAYcs1RCuL4ipng8woAux3C/IV0rvG3X4fa3AQtFKS0tyxbCdv1t9DvY6++CC1GJCumBGHw2RztXKbxquhrarTHUap9TsUcUhmjCRBSoRZAbQ2I1wIpqqJDSqggRowkxTN5mHQ2x6lNwkhlugOE08euQ42FYNcjyNZaaJyDoVwZyXs8rFnRxuYhAgc4m3sKPceNL6zQk6xpcPTI3hZGO8STLUEgDJ28Mi1rzgHj8UEjL+/aozTCorRpI4SlK2C7+npo3V30NyJh0AJ+xF9+Hokd26CS12g/GwQi1rZdcDH42bMR+fOzlFFZL7iYvu5Dv/gJtEAAQlkZxCXLwc9bQKUD8XffpszbsvZcWC+/GsqhA+BnzUHslRdhu+Y6yIcOIv7+O3DccAt0VUb01Vcok3Pe/UVosRgiTz0B1uWC44GHwbrckHduhxYMQNqzA1pXNwUkttvuBGOzI/bUbxB963Uw8xbA/c1HwM+qRPT9txH75c8AIm0YQoLAZWbBce+XwBWXUaZLRPXK/j2If/ox5GNHKTAkAEF78K9RcP+DfQAhqU6I4aVXPkBudibWrF6Ex3/7PGRFRUKSqIbilhsuwezKMuraqnR34cgXPoesutokQLDZYb/2RupIotQco7RUTtQm1S5EIsJxsJ5zPmzX3QyIIpSqfQj/7jfQ47EkOFh3PmxXXgtdlqHWn4Da2ID45k+htbeaEoRBR3q0c2n8BjBe0wQIxml1RtRMh5Fiuid65gGEHgr05FjI0VvgQJz4x50ijc4gCgtakQvZlg2MFI453QQdZ3t8ohtlyuFhszmOdhFNNkAguh++sBjOBx4Gv3gZNL8f6GxH+IlfQT5aDdvlV8P2uTsoP1IP7gdbWAySOCTw6LehdXaebqTIMBAXL4Pj7vugNTch/tEH0KIROG68GdG/PA/p0EGIi5bCcd8D1L4h9offIr7pY+gkgBdhaJdeBrXbD9ZmQ2TDH+D88teR+PAdxN59G47P30UlD2p9HaIvvQBx6TIIFRUIP/1bME4X7LfdBfVQFeTDh2E551zqIRB9YQO4jEx4Hv0vMLl5CP7D1yFV7U8GgCopBbtoGdRPPwLb1dlnBzFYxcB6PHTMBMDwM+dAPrAXkWd+C7WDfJME8ArPQ77vQRQ//DdgiBiwp0Rjcbz08vvIycrA2jWL8ewLb+LIkZNYOG8mjp9swL13Xo/CwlwqSYvXn0TDV+6B++SJJECwO+icibqFdTgQfe4ZSHt2AaoKjUhydB2WlWvhuPMLgDcDyu7tCD32P9BjMYgzZ8N2/U3QSd3mJsj1dXDceS+izz6N+McfTDpAGO1YjXYuBn8/GnNNtb1U6482HyN/H20ORtroX2cq5pDKGM96CYKiSLj3qkpU7dkBDxbDqc5G9Q7/lCYZPGMBAtlZRN2gxABVAtvPFoEkdiF+nhpv78sVkMpGnMq6QqIb5cph8ONI99x7cRi5QIarM2KgpH5xEIh/vuXc8yCuXAeurBysw0lF89EXN0A5cZyqGJxf+iogCpC2fEr12hB4xDb8EYndu063QSBxEgoK6eue6Mwjv38CSksThNIyaodAVAe2y66GcryG6s6JCkHevxdy9UFoXR2wXngpGJeb/pvo+/VoFLGXX6RtWFathf3GW6gIPfzk4/R7LisT8onj1LaFSEG4nFxqkCfMnA15z07EN38Cx023gp85G7CIUOtPIvzrX0Ajxnxkz5EARkRc1y9+w2lGigwLNiMD7q/9LcDztH/5yCFIu3dB62yn36oMA+nya1Dw7UfBu5NRRYmKYe++amzaug8upwMXnr8coVAUr721ESVFeYjFE7j7jmvgdNgpQGr78zOQf/x9WKLJ0OJUXXPTbbCccwGUg/vpfIkUQW2sR+z9dygQYH0ZVIUizF2A6GsvQT6wjwIIokrhikvh/NJXwGZmQfN3U9uDyO9+A/nwQbQxPH6Vd3qgJNpvz1kcbf+N9vdUzyEx6DTC5IwGciJtGWmPXkXTNH5Humk8HebK3PT1x05FGJ0qq7FUdyfZJKNYwGmKhHuuNAFCf9IOH0lxDAtwFnySToAwGjnI5TFegMBlZcF23U1g3V7EN2+E3t0NcfFScOUzIG3bBIYXweXmUqbIz5iJxNYt0GMR8OUVSGz8GHI0crqbI/GM8Hio0RxRKUDtSfdNf3cDopWqLIhHAGHkxNCPekYE/EnxPIkdQLwciDi/swtaPPlaZnie2kIQg0aq++/vzcByVFJAGCZ4DnrQD7W9Hbqqg8vKThoTajo1niRMnTDk4cpQXgxkXGxOPvjycnAeD5T6k5BriDdH0rCRlHBWLjL/86dwLV9F56GoGkKhMGSZ9MXAYbfCYhHQ1NyOcCSO/LwseD1OuoaJthY0ffcR2Dd9dCoWAsOCz8oG4/NROwviqUBpSuwpggHK8IlRp2XZCsjHayEfPUzBQV/hefCl5RDnzIUWClGJkNraRr1DjACE0fZfOsMxk74IQBic62XwGFKRsJkAYegVnGowxNzSDyAYwgeGKo22XXv+PpqZ+wjNjPYpUTF8wQQIAyhoAoSBG+pMAwjEwp+xWOlrmroGkhgIgkgN5CAnjWOp9whh8sRNj/zWw6x1SYaqD7RBGP2U9p6ynkNPxPHkn1qawg0PF8th9IH11RgxDgIBKYRWhBEPihehsByi8xYg+5uPwLV0+YDwyv27TzKuZCA08g+pow2tTz4G5vln+6QHffVHmw9ZP46nnhmnxa8gjZC1I1IS4jLaDzyYAGHghphqpjnc9jwrJQj9AYKRcznYDK+/Onrw9yO98pPmfhNXTIBwOm1NgHCGA4RxHhcaSVFRkcfzNIbS2VBiGklPnHokRTJ34u4YLpuBjIe+CfeKlRCIuoHnT8uMSKMoxqKIN5xEy69/CfGDt2GVEpNGPhMgmABh0jbboI4GSBDGOojhhApTeQcNAAj6IljlGaje2T1c3JaxTj2l76wOFl98tARF5RmIx+OoqqqCSnSQPXpEQRCwYMECdHV14aGHHqIBWiYnkmJK0zhrKp9xEoRxUp6c06Cq0eCKJPBgf1uScTY96Z+TV70GHZKmw8txEMb44tBYFnG3F0z5DBqfQHO6wfIcSB4WIi0hZ5CVZWi1xyDt3wtrVycEEothEosJEEyAMInbbUBXaQEIUzX4kfrtBQgHdm8HustQd6QTx4+fmMQM56ePzuG04PtP/BUqZhaaAGEabJrpDhAcuox/OfA/uKflHYisdioXE+H0RMqv6iCZtkcr1LGEIALy3wyQIKJyTQfLkih+o309Tf9OycFAZBnwVLQ/vnFSwEECM1FbkVNt0aBahEy6DnYkcen4uh/x63bweCKrGCetjtPuL6NibaoiGS+R+kap00ixRLIyYmEZsMTddpQAa6QNGj3SkPo6qfKZiEK1ZxpDTUNGm9pQ/RuZZ6rjnmp1ylkPEI5V78OrGzaiszMAtdcAK9VVSlN9p8uBJ/74Y8yqrDABQppoOp5mpjNAsDIaKmxB/GP8Mdzo+xBitgRGTM5WDzNQm3koRxhIx3XoIRL4aQhKEBtCJ4mGyEKo1MHmq2DcGiAq6eMV41mAcX47Tkwwzt4n7/OYzuKwmIEwsU8YxGynjgbGGHW6meaEYAPiFqyyiMYEtHdYcLTGihP1POIJJiUwku65JoHThMzY8OY96wGCzyUiEAhMOaHJinAch6VLlyIrK8sECIa36MRVnK4AgVz6pbYobphRhQcXPIXK/I1gBOlU/AmNA2I2yLvciL9phbRPhRYYBBKICsEDWBaxsFwug1/iB+NIAJwCEMmBWc4oCpgrNrHLpeskdwiHhOTCzn0VeP2dLByt4SFJxiGYCRAmdo3S2nqviiHTY0U0esq9Ka2dpNgYcTWaP38+MjMzpwQgyLqABq4MMZEENDK+8VOc5hlSXYct0YYS7Tg4Kq8fWzF6KaTi5sgxOtbnNeBb5/8Ja0pfhsh3JCUHPUPsW7moBcoBL+Lv2iDvZqBFT4EE1s5AWKDDdm0M7LwuMLYeL4exTdP8yqTAWU+B3nMViXixcct8bHjJi44u48YtRu+CVAhpShBSoVYKdXsBwsmag3jjT0+DLvMUM0W7w4F/++nPUT5jpmGAYCGZ8sZQhvIrJgzGrznhhw86wycNsWg5e8CCkZkk9coKfPDDy4YnbVsYjYMgMDrurdyH717yPyhwbwbDKJA1OyJyMg+AjfdDZElSLQ0gIQMaM6EcsEPrYAGZiA4A1qeDmxcGN6MTEJLgQtHsiCoeKCp/Vq35GI6H+YlJgX4U0CGwKhxiJzgmASJNqGuoxI9+UYG6enJWzowyEQDlrFcxHNqzBfP9J7CkKHdAWNWpWHISrtZyxZ1w5xUYAgjEw2GsAIHMj3w/GIGSvAkkHZMOkkypBxqQlL9GOKtBohlFvenc0Ek7teT/G60Q63eSoIllkompJqsMF1gmznmws+AOdLrK6FBERsPXF2/Fv1z0E3htB6DqLE4EK7G/Mx+KziDfHsZMTwuybE3gGIlY15H4wUCCT/6bqBCInYGQVCdoOo+glIGjgVI0hNyIq9yUGuuOl9402SNxxehLKzZai8n0Y3S/kf8/mYs+2tDMv085Bch2cIsylubUId9+nN6O3YEifO+HC3G0NpniO5Vi5P5L7903fBC2VMY9VN3PBEBYKXdivtqNyM73hs1PP15CGvmecXjh+vcN8JTNmjKAMHicI4m+jcxpqDpGDgj5Lp2HJN2R4sY695G+I4BtqJIgAKHwzlMAgdXwN4s345GLfgSP9RASqgubWxZia2suogoHOy+j0hPG8px65DtOgO9Jx326pSIDVePRHi/G3o5iVHV7EZJE4vxwxhWaX0JWoSgq5IgCKa7SdOsE2yah7tAlaZlOIh2REAcsRBsH3sJDEDmaHdIEC2fcVpiAAevwiAouKTqJBZkHwTFxBEP5+LcfLMGRGhMgnIHXxeh7pFfFQCQIK5VOzJfaEPzkuXFHgWM4K1h3Dk1nnCw6tFgIWqy7n5Z46PExzhx4f/w2PBWzTYBgAoS+TTIaQIirbmxuXojNbbmIykl2aOdVlLnCmJfRgXx7FyycBLYHKBApka4zkDUR7bFMVHVloybgQljhaQyEM60okoqIX4IqK8kgjuPx2KOIgaQPYWB1CLA4RbDEBdQsn2kKeEUZFxfXY1FmlQkQ+u2Ez4YEIV0AgWFhKVmCwkefAuvOSJJRluF/4TF0Pvuf0FVpxENmAoSB5DElCEl6pAoQyDeEpQmcBregwmeR4BZkCJwKFhpVIRG1REQW0B0X0SWJkNShEnVPc56gA4mYgkh3nKaqTud+IToWIukSLRwcGTbwY420NM1JaA7PGAVMgDDMozbVUMvGyD31tSZEgkAAQvlKlPzsVbDezOQkFQndT/8U7U9+2wQIPctuqhiG3v9jVTEMliD0b50ABRLwiMiz+gfyobYmRCyvp+bLPfUn99QI4mEJ4e44sR4YVhXAkoA9RHY31tjRuk7dj52ZVgiWU6mfpxMdzLFMPAVMgGAChPGrGHoAQvFPXwbryUgmgpES8D/zcxMg9NtfJkCYPIAw8Vfn1PQgxxUEO2LUrGKonC6MpoMLKLB3ypAEBlK2CN3KQTfulXZqYroOXuTgzrYnkzKZ5TNHARMgfAYAQv+jTSQId19ZibTaIPQAhLy//RG0SAh8bhGk2oNInKhG59OPmhIEU4Iw4sU6ERKEs/EmV1UdwdYo9cI5LXIgsTeMqOCbEtCb4lCCEjiBhS3LAqXIikSWCE0YgzpF02F3ibB5rabh4tm4qUaZkwkQhgEIn+uX7rm3ynS1Y0oF208cQFiB3IcfhervBl9YisSh3VA6W9D5zH+YAMEECCZASANziQUlRAOJgZIDkmBK0sB1SBAaEtC7idGiDpFnoagaSKZKzsLBUmBDotCChIuDxqdyYyRzW3jzHVSaYJbPFgVMgJACQDC6NVIBEikeVaNDGLZeegECA9biAWOxQ8gtR/b9/wxWsAKCADUSQnTbuwi8/2focgxazA/oypDjMo0UB5IlnUZnZ7Ob40g2CCzDg2M5KJpME96Mt1C12TDx30mMiaTGf2BhGY5+oxPzSJLwaBzjIC6JoY4YZGmgSygbVsAfjYDrkMEqySRVxEVR0XWoRN3AMlAUHSKRJngFhDN5yGV26NYUdA4aYHOJcPjGFpxsvLQ3v586CpgAYQIAwtQt5+g9pxMgMJwA3zUPwbH2MoDjwVrtyUxmJCIfx1NDRU1KQKo7jM4//giK/2RaAAJJNWu1Wkef7BA1yIU9XGCewdWNxkIwaltA2h+tbjrBAenP6ByMEnO08fdvx8hcRlqPVLwY4ooAwpBJIZnyityzkO8qQ52/Gi2ROnDMwMhvhGnLSmJIxj5gDmDgFL3IdBSgM9KImBKBqit0HUl/NsEBnzUXYcmPiByEqsnQdA0cy6PIPROyKsEf70C+uwyNgWNIKLG+PqlLMNHzswIsvANxNQJFlSByVmTY8iDyRKzPwh9tRVekHd1NERq3oLeQJIpCawLybj/UqAaPnYOqAVFJBceRbI4sNNo+Q6UJgUgCUTvgvjAPotc4s6f9WDm4suymmsHoQTlL6g0JEH64FEd74iCkch8YqWvkzkiFtOl+IPXOgfncN341siBgKAuhVEY+1rrjTK2aBAizcWj3+OMgMLwFuV/9Kdw33AeG5aBFQwi98ScoXW1wX30nhIJkBLxE9S40fvdeyM0H0wYQRLEnhd9Y6TjKd6kwVqOAI91DNdJvug+cEZDTC0zGO1+jAGFrW5EP2QIAACAASURBVD5ynAswM3MxBM4ClmGQZS+EP96OzSffgFWwY2n+BZBVEi5Wg8jbKKP+6MRLiEh+Ch6S6XdZKJpEGbasSRQE8JyANUVXYXbWEnTF2mgbm+vfQHesDbOzlmNe9gpk2HLRFmlCR7QJVW1bEEx0IttRjArfQmTb8xBVwvBYM1HdvpMCFgImrIIDha6ZiMthuCwZKHSVoz5Yg2Ndu2ETXJiZsQh5rjL4rFnYUv8WjrYeQKA1TNDPKbKSdMuNMcR2dkOQAZ5jaOwCnk0CAyrUYECBQSCUQCwhg/WJKLiyGGJGEiCQ1nhGhJV30GibRN6RUGOQtYHgiRgpenPtYLkUJA/j3QDm91NOgaEAwvd+uAxHeiIpDhW6fjIGbaTfibz7RgcIQ1FhvKBhnMzfyMKkHSB8/WdwX0cAAgvN34GWf38Yibpq5H/nN7AuWEkjNCYO70Xjd75w1gIEI5vVyNqkWscECMlASVvaciGpVgoOCMsTOQvOK72evtw317+OmZmLsCB7DT448TxichgzMxaj1DcHHx1/AWEpgBm+hch1FtPvj3XtR4GrHLtbPoSiyijzzkOZby5quw7Abc3A3OyVeK/2OSpN8NlycW7pNRRI1PkPQ1Lj8Mfb0B5txqyMxZTJZzsKwXMiBQ/+WDsFEIFEF5YXrEees4SCknr/YUSkIE4GjiAk+SFyIkq987Aodx1awnU40LoZ7Z2tCHZFBwAEel00xSDtDkCLqhQ7ENuDZCwIFglFRUt3FJGYjHiPasKZZ0f+FUUQM5IAm/Q/I2M+bl3zJXgcmYglInhl5zPY07QRqnZKJUj6InYIHG8ChFTP6Zlcf7oCBCN3X7oeKv3Xz7gE4Qxd9YkACPbVl0Dzd0Ioq0T00zfpvx0XXkeVoXJ9LcALaPq3+02AkOY9Y+SQTCSKHmk66ejXqAShN5Ji8kXMoNBdgZWFl2Fvyyc43n0As7OXY17WSrxZ8zSiUgizs1ZgZuYCbDzxMkKJbszLWY1C90x0RVvgtmbS3/Y0f0iNAQl4IEAjKgexvuJWRKUgPjrxAn1pry66goKJQKIbFb65ONa5D3taPqHgoTxjPgUTFt5GJRLhRICCkd3NH6LQNQMVGQuwvelduEQfludfhD0tG1HTtY8++ufnrMHKwvUIJrrQHWuHTXBi4+G3UFt/aICBImHabHMc8i4/eDkZCIoAAZvIQlU1NHVGEIgoYBgdHEPiP+iwZFtRdFVJH0AgFLPzLlyx8DacN/dyVDfuxZ+3PYbOWNuACKgk/5W3wAQIaT7C0745EyAMXCITIKSwZamK4es/g6V8LuQTR2C/6HooDbXQVQV8dj7U7g7Edm2Edf5KNP3HgyZASIG2RqqaAOFUqOWYzIJjBWQ7irAwZx1CiS7sbP6AvurnZK+gKoZ9LZ9CUqIo9MxChj0X7x17FoFEJ2XgImdDsacSc7KWYVvj22gJ1VEQQP5m4x2Yn7sWmfY8bD35FjpjzXR5fNYczMhchFLvHGoMuenk6/RvxA6B2CUsyjsX+a5SKsePy1E0BGqwr+0T2h5RdYSkbmrHUO6djwW563CwbSvqAtVYkLMWPlsOdF1FR7QFRe4ZONZSha0HP4TSLwU3AQhMUxza3gCUsNJj25BUQUiKiob2MO2H/CJrRPUAWLMtKLiyP0BIwiqPxYeFxatxtOUA2sMNIIm7+hcil/Dk2U0JgpGDeRbVMQGCCRDGHCipFyCIpbMhHz8MsWIOWn/2CLR4GJ5Lb4N96XmI790E6+K1aPqPr5gAIc0XhwkQTgGEhGrB4txzUZm1hKoJ9rduQkKJUoqT1/qi3HPQFDwOSUtQA0ALZ8XGupcRlrqpQeH87DVU7bC/ZRPqA0eoISIpHms21hZfAQYsBQ5d0VbqldArnp+duYyCD6K3l5Q4DnUm7QzmZq1AqWcOcl3FIB4VBLC0RxpR3bEDTaHjAzwaCEjIsudD1TV0xVpg4520zxLvbAiMiNZIPT489hJqa2uhk4yUPYUABK4lDmW3H1qMSApYyAqRFpAU1joa2kKIy2pSekDzUGhw5dmoDQLvO92Gp9docrBHBumHhFx259j7pUJP82Y2m5uWFDABggkQxgUQch78AcTSWZDqjkDIL0Xz9x+AFvXDe82DcK67CvH9W2BbtAbNP/wG5JbqIQ9Bqm6OxIthOhkpmjYIpy/rZKsYiBcDedFrukpf5uRF31sIACCSgF6dOmH2ZHzUEI943DAsPGImFF1GVA7RNnoLsUtwiRmIyAFI/TwQev/OszwcggcO0UMNG4lEghgyEhBi5519nhUEVBCJQHe8ndobDOUW2cf4wVCvBq8th5oNEmPLaDyC7pZQMgNjr50iwQodCej7gmCCChIySWMOiByLuKyguSNM68uaBlVjIFpYOEscyL2wALw7hWx8OmC1C3BmWNOa/nxackRzUAMoYAIEEyCMGSCQnLJCziwaB0FPxMCIFsiN1dB1Gby3CKwrE3okDMbhhNx8GLqcfNENLiZAGNutZEoQBmZzHBsV0/UV4dr9xfLEGuL0MhIwGOJk9PyUbDfSnUA0LA10NVR0yC0xoCYKPiRDihIgolO3xtbOMBRVpembObsAa4kDGYsyYM22piQJ0FUd7iwbLI4UQEW6yGq2M6UUMAHCZwkgMAA1UrwiPW6Ow+1chhPBiHboqgpdCqc93bMpQUhS3gQI0wkgTPw9LidUBNqip7/iNZ16MWiNMeiNMbBhDVJURnNnGLAwEPMdcFa64Sx0gLfxqUkBiBqDZ6mLI2PmY5j4RZ5mPZgAYRiAcOtfn4qDMFwctknwSqSjM+I9adT5qBcgHBwqDgLDUV1r/6cPtdocJgJiL+kYzgLOW0iNndRgK6yVa5Dx+YdpPobOP/4ntERg6G3PimAFO2Bzw/NfL8NTMRvxeBxVVVU03nyvmFoQBCxYsABdXV146KGHYAIEEyB4rIcwUiTFaXbPpmc4OhAJxBENSkMza02HGlIg14apd0NbJA5rpQeeGW6IDt7QPXLaQHXAk2uHYIZZTs8anmGtmADBAEAYbk2HjaRkNNaywTjLBqsZ2nrDAQQCDKyz18E2fzVYh5Mye5KRUao/hsjWV6HJRBIwdCHgIPPGr8I6dykCbz0LLR5Dxm0PIbZ/C7o2/BRKsAVEHZEsTBJwkIA1BQvgu+5+KJEgcOltcBWWThuAQEfKkHS6o1PfyEve0OJMUCUjEcwmqOtxNZvgPdhZcCc6XcmAWyKr4W8Wb8YjF/0In0mAQB4LJORyZxwJYpQ4zKtAlzTI3QnoPAvBI4JNNfcCfZXQsJ+wey2wu41HXRzXgpsfTzsKDAUQHiWRFGuTRq6f1buP6S9BmHarNo4BDStBIKFjnfkQsouRdfvXAJZH17P/A7mrGaq/nv6NtQy8KHRFgRpuh7ViKbxX3IlY9W7ED+8Cl5WLrC/8HQKvPoXA+xtgKZkHzulLwgOGQaLhMOT2Y2DtPngvuxfum+5HxJkBh8drCCDIsjzhRoq9JB4NIBhlvqO1k+qSGg0hOlUGlEYvj5FAWIJzY0fhneh0mgCh//7Q1J68DAllYGTFVDfRMPWJZJRc/C6fDRaXYAgkp6lrs5lpRoGhAMK//mBJSqGW0333GX24Gb2DxkLyzx5A0JKW26zVg5wvfx8sx6PlsW9DCzeDdxUi4/PfgKViXj9a6lDamtH1wv9C/3/svQeYndV97vv79rd7m977jHpvIBAgCSQkOohqcIlxuO6JkzjxiXOTk+M4ueeeFN/k3MQp2LiDDaYjuhBYQgUkoa5RmyJNL3v27N73vWvtqdKUb4oK0l48egDt1b5V3/X+WzSMc+NjGIsr8bz7PBkbHkZfWEbb//oG0Y4zOG95GPsNd6A6M/F/vBXfrrcIndiZAgwmJ6bKxVi/++84y6ovO4AwmcUzUpnp3iRpgHAVihiGLCxhnRDyRgh6o5JVkGLB8cmuUZezAAWS+BTupY2qDM5ktOrT4GC6DoBPaT0jAoR/WMKJ08Njm4z1edN99qUBwgVcTKOKGHRm9PnVqFYHOY98QwZfcv3mX4n7vMTczSgicIxhCIMgTpN4lLivg2Q8jOooxjp7hdQ9UHML6fz37+H7+GWS8SiK0U7uI38qzSA7nvo7Yl2nJYep6C3obAWYZi7G/K2/x1lcngYIGuc+DRCuboDQv0zisQQhb5RAbwR0SelJMsXUjb+QZHBKaXyRkomKOAvWDBMmAQzSConjD+BVkCMNEEae5KuOQVAdBThvfgR9Vi7oTamDIxIiEY3i/d3LRJoOIWPJnpcUTJVLyb7/axjLqok01eN5/0UCh94nGQtjrrkG+4p1WBZeh87hJHhgJ6G6o3h3vIy5ciFZD30NfW4xgZIZ2LNy0gBB46GTBghpgNC/VFJiJIHXE/JPIp7ynjgeoyACr4ogTDq9TjpCEoGe5GtPA7jQuEzT2T7lI5AGCGmA0OcHIYGiM4pnxDkjkpAswMjgIJVVZ8vHWFBN3O8m3ttBIuyWSohCi0q1F6B3CrexqVeKOIASkRCx7nrpP0F1FoLJhuOvf4KzcmYaIGg8UNIAIQ0QNC6VdLb0CEx6BNIAIQ0QJu8oaejYydj2IxmEDnX7NvRZM8RlrD2fzP/nbc1mjhdTSXHSO+ucgtMth0sDhCsXIEjL4kSK+Rek3blxEaZrTabrubpGQJ7E4tjViXdgKri3OLbHOpvSACENEKYHIExhr03Uk2IaIAhqWJvni7QVwxQW5kUuKqwTohGFgAfCfnF8m0hgEMf42PKCfgXD8aUKF/mLPp3NDfeHeYUNakJ41hTqKhFUXQRbRhKjTcTaEOKl8+crDRDSACENEC7COZZmEEbZaGP4mrhazBwFiAv5we8xEgw6iSdtJJLCrfE4ygAxUKIK+HQkw4qgGqROQTpNbQSkC4i4iFAFijlJ0pYAg3ApObV6L6/SAnYm0Skh9KoPq82DIzOB3jj84ZEGCGmAkAYIF2HnpgFCGiCMNALCRNHnht6eLKKJLBFgevzVKCR5fh26DiOGkBWTIoJC6ZGmipcxPpCUtvC3koiiJmLokiKE1eXXYdFP6RVWpxJRkgQVPzF7mERuBCxJSdFfWUmAhTBWUzuZeWFMlsE5SQOENED41AEE4WrZdI7Tpk/DhtVC92sFEhMRMWgZG60On7TU1Z9Ha52jffOVziAIcODpVnD35hFPOlPC4fFSVJHAwNSbgUmxpYDBpC9ZYf3Qb+s4XsPj/z7W2tXHI2R7WijoqSc77MER9qMKj6pa7DHHb3p6cwhHUSgEDFZ6jHY6MwppzSzFY0wSyvKQzI1KduFKSwpRzIYusvK8mG0pkDASQPj+PwpPihML3KXl7BPtaTn/JuIHQcsZpCXPuXN9lZg5djE31IHnw9+OaaVwoTeCzp5P1gSUFEWchk8jQBD9Hm8xal38WgGC1rkTnvPG65vWuqYrX1jNYK/wpHgluloWcRU8Sbo784glM8cXJ4hBjSqoTSYswRxMOiuKIijiVFFVFXFUICFMHkXwJmn6qMg/I6VEIk4kEiAu/JQoU7/txLo1Gi2o6vC6xGvcFuxh3pmPmNN9nMJIL3rBIvRbNQ2LgDldK2dq9aR0PiAhpDZJHb0GM8czKthfcQNtNhv+zF4SRZEpiRwEqNPrdOgU8UeR/xZJRPsUcyf2YzyZIJGcHhVV0YaqqLIdVSdaV6TyazKeIE6SWDJ1NinEsZpbyS4IYDAqIwKEv/unZZyYIEAQ3zOeW2atZ5/WfFpXgfju8fp2HkB45I8HgzWN2tAQ5SCtnZloPi32zBOpUzhK+tzG2Rzdt4sF3rMkG47RdOSjAWcpE6lruvIaHNlsfOotCmbM0WTmmAYI2pUUtc7RZDaJ1ronm+9KBgiRUIKuVgfhWAFJLcLthIKuzYjNnYdBZ8Zm1TFvXgmzZhRJcGAwpATkwsOiOOxCoSif7K+jodFFVOgpDGMZkoRCfvR6A6qqQddBwwQmEjHCYT8WixOl77IT4CDD28619e+zwHUaayKK7jIEBON9nuBYIopKoyWPbTVrqcspwpfXAzlRTaTPufXbDWZm5ZexrHIuNpMAVSmgIOdPXFbJhAzT3ezqYPfpw7T7eyRYmEzSoeA0WllUPoMFpTMx6PWofaBEtBVPxAmEQ+xvPE5tWyPeaBAdQRyOJrLzIcscZV3ZWRblHEFVQni8RVxpAEGMq7hTJpIUTQBhtBo1AIdLxaz1A4Rj+z/i7Ju/pbelkXA4PJGxmfa8VmcG/+dv3qBiVhogaEXH080gpAHCtC/r0d8VSXC3K7i95SRJBb0ZLyk+HaYz2ViVTIqLrNx///VUVhRiNo9cXjzQfb4Ae/YeZ8uWw/R6xAGYehknkwkCAQ9W6+BlPl774/0u6gwGPJgtdnS6FItgCXu57vgbXOuqxdTnyn28ei7n3+OKwglrAVvm3sUZq5FItYekVWtkvtToZ5nsbFpxCytnLZTgYCxKPRqP0dLdwSt73mff2eOEE7EJDY8ABxWZBdx/7S3MK6vBbDSPKIwSe1+AhL11R3n+oy10Bdzo9V3kF7jIz4qzPg0Qzhv3qQGECU3jxc3cDxB0iRDHjx4lFov2e1q9uB0Z0prJZOT+Bx+iqLg4zSBojCCZBgjD/SAEYyrinzjxVMhy+Rqb2KtgpA0gqFidohJPxiUVLH0TCHMBDSllaX7+BRKLQmezk2A0X5toIQ66ehOOaBHZGUZ+//ENVFYWarJYiESifPRxLS+/spdQaBAgCAbBbLZrkvlq+FRJT4dDXowmGzqdii4RZ0brJ2w4vYXsWEBLFRc4T5+HyD7RxmQbCykqOwsW82HNGrqye0iWRsc1NulvK8No5Uur72FJ9VwM54hiRuuPGFeX182vd77NrvrDE2ISiuw5fGnNPcwprUbVYBYdi8c42HCCH3/wMu5wD1kZjVSURFlffibNIJwzQVc8QMjNtE6YVpnsphqvnLjsampqyM7OTgOENEAYWC5aRQy7OgqxGMuozJiDN+LCpFpJJGP0hLpwhzox6cxkWHJT8lwhZ1VEEESVnmAn7lCHlMeqOj0mvU1e6cFYgHgiKi9vhymLIls5TZ7T5NlKCccDdPjPyroElS7+MerNOIxZ9Ia6iCYiEpiI3zLNQhxgJJ6IEUmE8UXc8vUeDiRpb8nv0z0Yb3cAAQXzmVwyDRk8eP81rFw5T9LS/Ul8kz8QxO32kpebhQDcQ1MgEOa3z/+OvfuaSCR0sg+jAQRRr/gTiUzstSoBQtiL0ZgCCKaon1sP/IbF3rOoQ+hxncVCUui7CNZSunUWgv4+wCVk8Q4H+ppZQoZGvKWFeHsr9LMPOhXFZEJ1OKUL+ITPA1Gh6Aiy3nCYpKCK+y/D/npVFbWgCLWomNiJWpKhEMl4bLBdDVMwMNZAiymLFxfcT2OOiXC5B8U4PosgXvO3zr2Wx268HYN+dAW/cCRKV1ePnMOc7AwJ4ATIrG2q5z/eeY7OkEdTb806I/cvX8vGJTdIscJ5a6XXS1amE5vVMqy+aCzK87vf5fVDH2IytVBT0cPGqrSI4dxBv+IBgqvjLG+8vhlhETBpJWhNS3X8TFaLlb/67/+DysrKNEBIA4QJA4QD3TXMK9hAScYMjKoRb9iNqlNp9Z7hUNuHVGTOpSZnQeqijocw6ExY9FZqO/dxuHMHOZZiFhXeSJZFWBPE6fA3caDtdxIELMy/garseRzv2EOBo1zW3dBzjDZ/A/nWMiqz5pNhzqbIXkmrr54m9ylqXXulTs91pbeTZy+RgEFcoHua3qXF2yDNGru6xd8PP5xH3SldKo6OIsqLc/jqlzeSk5MxLGtHp4vX39pGU0sHn33kDirLi4cxA+LRfKy2kad+8j7iXh4LIFRU5DKjpoBt22uJRIYzMClFRD16fR9DE08QjsSk3sNQgCBeq3nuM9x9+AWKI+6B40UxGrE+/BiJnh6Cb7yKmpePvrSMSO1Rkn6/0LRELSzCtPxa9NU1RI8eIfT+uyQjEdDrMS1ehumWDaiFxSR6XcSOHiHw1mYJ8Gyf/yKhd98ieuoEhpmz5ZkWPXVKjoNx2XLM629HnTWH6O4dEIkQ2v4+0eO1KGbzMAAiwANWCzqzJQVe4gkSXi/EIgNj7lFNvD7rdg4VVOEr7wL7+IySRTXx9VseYPmM+aNOczQa43c79rH9w33MrCnn4Qc3oldTuiXBcIh/feMZ9reeHpGVOrfSIlsW373vCXKdQgF2MPX09PLqGx/Q0trFbetXsWjhrPOcrh1qPMkP332WYOwMs6rauX1mU5pBOJdB+EyfkuL42HD8C/Bi5xjLsliIGD67cTaH9+/GGGxlzqxqifgvZVL1RhbecCe5+YVpgJAGCJMACDOYX7iR2bnLZNnuYKt8/YvX/Af1L1LmnMH8gusx681E4xH0OgOxRIyDbR9S13OIG8rvlvkNqoFmTz1FEgj0cKTjI26ouIt8W2nqUo0H6fQ14TBmsrXheQk4ih3VFNhKKcuczfHOfbT46mn3NUpGYuOMz2HSm9ne8Bpz81fIdreefp7Otji93ophPg/EnpViI2FiJ250RVzkfadPlx5nRxHXrajhsUfXYjQOf4H6/QHq6pt5890Pue/um5lRXX6e6KC5uYsnf/Qu3a7wiABBsAY2m4k5c4pZuKCMV1/bh9cbIhgcvBiFIuTGWxcwd16pHOeW5m5eee0TvF5R5yCDoCoKM5r3cvfpd7DHB/WbxGXs/NZ3iHe24//Zj1FLSrF95nNE9n1M8L130dnsWNbdin7OPMkiRPbvwf+TJ0kE/KilZdi/+GUSXR2o1TMIvfEa5lU3Ed69g8iBfTj/7C/xP/Nzogf3Y1y6HNPadQRefI54YwOGefOxPfgoSVUlsm0r0YZ6YmcapT9r6x33gNkK0TBJn4/g9g9Q774f+533oJgsksHo+Zd/QD1RO+BKXigsflC8gm1V19Fb5QJHCiAIMCIUAKUFSZ9oqX8OC21Z/Pm9XyI/I3vYa15aD4m571NKa25u59kX3sFms/DEFzeh73v9C/r/+Z3vsPnwTmlx0N+eUG4Ua7P/nupvb0nJTL658TNYTeZhR3sgEOLk6UZ27D7A8sXzWLF83nkAodvr5gev/YImz1FmV7Vx+8w0g3Aeg9APECZ6cU4UUFxsNyFDAUKhNUpxpp7O5lPTb+ImTK90eoQ51XjmcwaThZse+jb5xRVpgJAGCBMGCB93lrC46G7m5V0jy3YF22n11JNtzWfHmc0UO2rkBW1SLQSjPkx6izzEj7TvpNl7mpurHmR/63YWFl7PB/UvsLBwFRaDgw/PvMaaivuwGu2oiiFF9yYT9IY62Xn2LUIxP4X2SnJtxczIXsTBtu20+hrl76rOwG0zviBFHLub32JZ4RoyzDm8e/pZ2psTeP0CIKSAuTgDMq1OllfOIRyL0tjVKl+Ojd2txBMJdF0G7J2FrF41m0ceWi2tFs5Nrh43P//Va9x5+xpmVJeeBxA6Ot08+aN3aGvzy/14roghN9fBNStqKC3NpiDfybHjLdTXdXLgYCPxeOoCFF4aly4pY9OmlbLPb7z5Cbs/qiMaTYlu+kUMAiDMbdzJXY3vY44PAgwhHnB89Q/kizz4+qskYzHMN61BX1mN76f/RcLjQc0rxLJhI/r5Swj88sdEDh+UQd9MS5ZjueMuwp/sxbhoKf5fPIXl7k0kQ0ECm1/C+c0/IfjGa8ROn5LiA9sDn5G/+Z97Gl1GFs4//yspjkh0d5Hw9hJ6YzPRhjrMa9fh+JPvEm9vw/uP3yd68iQsXkbGd/4SQ2U1/pd/i//f/190Pd19gQwgpujYkb+QLTPXSoCQdAhxk0JpZgFLKmbS0tNJMBKm0+em09sjGY5yRy5/fv8TZFjtA1MnmJ+Dh08QCIapqihm7uwqqePyo5+9KMd3KEAQWvZvffIhz+55l4gUYSmUZxWwoKxGWjv0BgMEwkE6fD2SvVpVtYAnbnkAk/F8Jda29m5ef+t3LJg7c0SA4A36JUCocx3sAwhpHYRpAwgTBRQXO/9QgFBsi5FjiVJ/dOe4l7jWfgrZqyMzn/yymWTmlRD099LVXE9Xaz3x2MjWEkazjbu+8g8UlFanAUIaIEwYIHwkAcJdzMtfKV/grkAb7nCXtPv+pPUD8m3lzM1bLk3JWrz1ZJjzMOlMHO/+hLOe46ytfEDqHfgjHk659rO48EY6/S0c6/yYlaW3MTt3KV2BFrr8LUTiYSk2eOfUM+h1RpYVrSXTkkeho5wDrds55Tog2xf7oMRRI+tNEmdp0RrO9JzgZPd+XJ1J3L0CIKSYAHHYz8gvpSKnSF4gRr2eo831HGmuIybk7516HJ1FLF9Uwec/dwsWi2nYdhQUf1e3i18+8zq3b7yRWTPKzwMRZ8928F9Pvou7NzIiQBAMgtGoMndOCQsXlvPKq3sRugvh8HBdBINBx/x5RZLF2H/gDJFICjycCxAq2w9yz/E3yYgHB/uq12NZtwHjspUSFYV3bCNWdwrbY7+H76dPkvT7Ur+vWY9isRB49lcyD/EY+qoZ2D7/uKT9Ix/vIt7ajHnNOkK/20rkyCFs9z+MLjdfjqX/t79GrajAfP2NeH/4v9FlZWK57S6ihz4h7urB/rVvEdn+Af4XnsV03fXYv/s9ki4Xvr//PpFjR0jqdKgrV2FYvIzQS8+itLYMMwMP6fRsLbuOHeUr6K3sRnEk5HjPKaigOCuPHEem1LMQJooN3YLNglxzBt+55/cozSkYGA+hM1LX0EQwFKakKJ+y0gKEmOGpn78k83zpC5sGrFSERcPTH2zm3RN7pKKiEOMsq5xDvjMbp9mO0B343fF9EpSIuZhfUMG37vg8diEqGZLEby2tnbzx1jbmz53BNSvmD7AU/dnaerr4weu/pN1by+xqwSBc2SKGyVhwKZNlELRepJcq34UECGJzZuSVsvrer1IyYxEGo1na27xvDQAAIABJREFUZPd2NbNz80+oO7KLhAgdfU662ABhPEbjQs2NVmccWr2Jae2nlvq09k1rm/2XxkTyn5tXq5Li/u4qZufdIgGCoHa7A210+pulvoEn5MJpymZR4Q30hDoIRDxYjU6pfCj0Ew527KTQVo5N/J0xixJntVRIPNK5G4Oi5/qyO2W3hCKiABjxZAyz3sbm4z/BYrBzc9UDkgOIJaKStRD+jg+0bZdtCwAxK2cpNTmLaPM2cqBtG5FYUAZj6uwsljEX+pOgmKWJq1SY1ElgINgDmVwqjrZCCnMy+epXNlJUlDNsqFpaO9jy/kfUHq+npDiPDetWMaOmfCCPWO8HD9Xz819sE+L3MXUQyspyqKrKZ+fOk/KyGimdq1vYP9eDSoo6Mn0d3HnwN1SHXFLxUyahhJidi+2hRyVd73/hORI9LvQFBcQ6uzCvvB7z7XcRfP43mFaukmIFwSoE39pM7PhRDIuWogglxtJy9FU1hLe/T2jbByTDIQyz52K95wGix48SfPP1lD5DZgax1lapwGi97yHUisqU48aMLILP/orY8WPYnvia1EFQhKxemIb+8J+Ju7qkomNSKEUKZcZzLB969BZennMPJ/KK8Jd3g4jVIMUEQhUxJSoScyku9f6zxqTT8/hNd7N63ooh89IvRhKKswrRWIz3P9jD9l2fyHWw9qbl3LhqGQaDHl8wwP9+/Vcc6WgcEF/I9qTC7fnt5Zqd/MWmJyjMHFwrYhY6O128s2UnJ041kpOdxcb11zNzRsUwi5iPTh7iP99/kTjNKR2EmuEA4W//aSknTl86T4qppaSNe9eST6uXx6F7IQ0QJnGymyx21t7/TWavWIdO1ePr7aK7pUGCAndXM7vf/AUhcTpOESBMxdXyhQAHWurUslD7h2W66xtvQ2lpbxLLYcqslFaAIKwYxGWbbytLKQQC5Zlz5GUsGAG7MZs8ayG9oW6Skp5VybDk0+k7S4uvLhUCV1GkxYG41MPxoNQvsBrsOI3ZeCI95FpLsBlFEKWkzFfbtVeCBacxC7sxk96wi2DMJw/rWCL1Shft5FgKZBlP2EUskWLQIqEk7c15MvaCphRSMDZkkKHmsG7tHDZuvAaTafCAFvRzMBSRr1aRzGaTvFT6k8vl4Ze/2sqp0z193hVHt2IQYgTBJkSjEzMRPdeKwRALsfrIS1zrOoFhqLmpAEEW8apVSAYDwy5fxWqTSoOJXjeK1Yq+sIhkLE68rTWVV168OhSbVYQfJOn1kIz2PTiEJ0mLlaSwIRWKhkOT8Fhod6BzOqXlgtBpEPoG4r8Vu0OKOlB1KHq9BCSM4TRH+Bqssxbw6vx7OZsN0QofWhxRiutsZcU8vnTzJuwW64jTnhL9RFKK4yDnUFgzCND70cnD/HTbK3giQxiZMRaPQVG5ZfYyHlq1EatpkEUQ4qJQKJzyHKgomE3GYWvFHwry8w9eYUf9AayWZqorvGyoGC5i+P4/LhkACFrOjivx7EsDBE0n1/BMOYWV3P7F/05ucRWRcIhdm5+idu8WaXokDu5IKCX/nA6AYBxBtqa1y1oWtda6RD4t9Wl1gKS1Pq39m8jm1Fqn1nxaxmWsurQChJ0dBQSi4vU2+KpIefNLeaWTfy9eHEPXXt//j+SnYLBPqRpFnoE6+n4Uugj9aTR/B+L31G9yVgfyx2NJulqt+EPF2uIviLO8yYDTV4zNrJc6ANetnDvM1HG0cRRKaa+8uoudu+pIJFK6CykrBh9ms0PzS2y8OZcAYYgfBPG9pZ3HufP4a+RHvJMzlOp/JU7Rd8F4fZ/I737FwNaSa9lTtRJ3XjfJAu1WYML0cMP8a7nnmrXDLu2x2hcs0tnOVp587wUa3O2aLBj66xMeGx9duZGb5i1Dr8HvQigS5vW929h8cDuhpJ/szAbKi2PnOUr6m38QACEFQLXs8Ut19sn9p5FpmMgakPVeMSKGc5gYKWLYkLJimG4dhMKKOdzx+F/jzC4k4HGx+anv0dpwZGARDT1Uh07IREUMAmGnAYK2JX2hNoiW1rUcHtMJELT06bLIkwSvK0G3q5QEg2KGMfsmWITGDKyJHLKcBtaumceChVVkZ6Uu+aHnoLhPBasgLBd2f3ycPXsaiMUEYBp0lBQMeoa5RZ7quAx6UnQMWEUZYkEWNO7ghuY9ZMUCkwMJU+3YNJYP6Azsz5nJjpqbaXVEiVUEQIMPhKFdsOqM3DRrCTfNXUZRdp40x+0HkkPzCdYpEAlyuPEkbx7YMWFw0F9XptHKxoXXs7x6PnkZWQNirEHIKtwtJxB6BztPHOD92j34Y0FM+jbyirzkOePnuVpOAwQBEP5EQyyGcxffRE0YhpbXJlKZ8nK/UABBvNgEg7D+sT9DAAVhvXD64Icc3P4K8WiEaCRMd1sdCSHTOyelAcLwAZnqxTpsWV0gBK1lIU71OybKIGjp0+WSR7AInU1GgtFSbSGeheVjtx5Ley4WVbgzhuwsE06nCZvdhMVskod/LBaXugOuHh+e3ghen7AiOvdwERYHQZlfr9fm6nm8cRNBn6LREBZLyrlPKiUxR/zMO7OLlS37yI4HhzlNGq/Oy+V3wR/5dXoOZM9gT9Vq2uxGAiW94JyYGKb/e/SKjmyzk0JnVp9SqmHghS/jIyTj+AIBXH4PLd5ugrHIhJiDc8fNoNNTYM0i22qXfhFEQC2h8yKAQSQaoSfgo8PnxhXoJZqMoypecrJbsWdBpimWBggjLMTJAYTLZUUP6ce5R4MACI9NM4Mg/CgUVc5n8er75OuhZMZizDYnyUScWCRMNBLi9KEd7HjtSUIBbxogjLNOpnqxpgHCZbgRR+hSKJCguyOTcDQXTaEB46B0GjD3ZGHGMaAUJxQjU5dyn0BERnHsf62M/PIQL35xoceFzL4vUNBURk0o5olojv2BmobWZYwGKOs4xpzOWop87TiEsyqhCzKNoaan0veRyyaJKzp8qgmXOYPa7FmcKJ6PywzBPC/kaBctjNa3lBvv1PycywCJ2Rvq32A6vq+/vf4AgP1LRGrx94nAZKAmeztZ+RF06sjRHNMMAiiPToJB+BQQCEw3QBAHQn7ZLNY++IfStLGz6RTdLXUUVc/HYs0gFotQf2QXe955Gq+7I62DoGGnpwFCapCuZAZBvq+TEPIlcHU6CcdFXAYNDssEk+BW0bWZsSazMSiCORh0u6xheV2SLAIMCPfLIoBTrqcVZ6AbQzwkLQUuuyScFyk6/JYsuhxFeM0OvHoDXpOHeFEo5TnxIjG+F3NsdEqwL9RzDL0h9YGZxvOjOaYBwiQBwsWczMm2NZ0AQRHMQcU8brj7CYqq5qNTVWLRCCf3f8DHb/9KmjkGA16Cvh5ikdCoCi1pEcPw2UwDhKsDIPSDhLA/gdtlIxzJIi7dL49z4YuXSFRBcanogxbUsBldrI9B0F3mN1cSdJI9EEqe0nxkskfZhSsnn9ZJCRLiBoiYQySsYZJZcdCnvFxeOUkIUGLoFS92hxtH9iA4SAOE0WdZefTbI+ggTIUiuBArahILVQKEW6eupCheLXnFNdz8yB9RWDE35WUukaCl/ghbn/1nutsaJEWmJaUBQhogjLROrnQGYeg3x6JJAr3g81qJxLNJJoVugLCA6N/kI2x2cR4JlR4BDvpdDVxZt5eW4+OC5BmwbhHerw3JlBRmEuftBenclCpNLRRFRiRNoup8mAwuMnLjCK/MyjkAM80gjDzYIwOEsSZmusDDBV6E0wEQBDgQzMH1dz5Occ0CRCwFoXzYdOogH77yX3Q0nxywydayltMAIQ0QrnaAkGITksJpICF/klhUJZEwkIirJM5TMtSyq9J50iMwwggI1916AQziqGoUoyWJ0axIfYORUhogTBdA+JSsxukACDZHFrc88icYTVbM9gxyiippqTvM1t/8My7h6WuCdssXGyBIBD1N2v0T/VYty2S6+tZ/6Whp80Lk0To2MkjRCCmkc7Kn5DG67ZXyV6MuwR8v3sl3b/4BGeZjhOJOdrYupN8PwoX4hktZZ4rpnq6Xx6X8knTbl8sI9At15Bmj4TE6EkD4/j8t5eRpw4TPea1jMF3nn9bzR2u/huabOIMwmVYuQZnpAAgCENz1pe/hamvEZHUQj8fY8eqTdDSJoE/axApDP/1iAoSJOO2YzunR6u9b9G+0C3My/ZmMG9HJtDNSGS0btN8t7WgA4ePiR69ugCBR3nTNSLqeq34E+nyGaR2HkQDC3/3TMk7UTczVsoxaqQHsjhSITGtfR8p3IVzIi3bSAGGMWbE5srn5oW9RVL2QjqbjbHvhh/R0NmlaACNVezUABPHdwnnNeJtEXJhpgJBaJYJBuNoAQjKRJB5XSMSS0iVzLCpMFoc7QprKgZkue3WOgLibk/EEBhPoxR+jcKnNqKKF/lGaToAw3mUtHkefGoDw2EhKiqOsrekG+BqYn0mvcsEgPDpFJUUxkVZHDhk5hbi7WgjKCGITZw76PyINEAanMw0QBsfiagIIiXiScCBJwGciFLISTxhJJE2pkNBjHTBS16zvxJjug2jSp8wVUrD/INZdKZYLwl9GEh0RFCWMyRTGYg1gdYDaZ9Z47sylAcLIa1mZCED4NG2HiQEEBUVENZNBYKbx9JF+8Ae50zRASAOEq1nEEIsk6e1S8AdyiCWdwGCgpVHPFrElQzp0bj24dSgJFUUAhXPcLn+azqbLpa+S5UsKM8ckSTVBMjtG0pkA85Xm/yCBTglhNnSQlRfBZD3/aZoGCGmAQP3RnX3Ut4LFnoHJbMfn7qS4ZiF5JTPobDpB06kD0n3yaElVDWTmleL3dA+L2Ch8I+h0+gFPb7aMXMrnLMfdcZbmUwfRG03oDSY2Pv63FJRWEQqFOHLkiKTj+5VVDAYDCxYswOVy8fWvf11GO5tsLIZLpYOQFjGMvHKudh2EcDBBb7eFQCiPRNI8vi2dANYBHbouA6aAE2PSiqoY+hTOLiT3ONXrO4kaj2KJ+HD6u6TDJDURJalcho6S+mTlYaONXlsOvUYLQWOcsN1HIjcC5ml8LE11WKehvEIUo+oiI7sXW8ZwcVYaIFwNAGHIuSEZhPUj+0EQF/XKjV+gYvYytr7wb8xavIaapTfRfPIgW5/7ZyLhwCijpZBXPIP1j/4Je975NacObk+F1dXpKKyYR8Xs5RiNVvn/uaXVOHOK6Dx7iq2//RfW3P8NPK4OCmeuIK+wNA0Q0joIA2vsShcxCObA1WbGHy4iiQalL3Ev+XQYmhxYyZLAoD/e5PkbczywIHQd4ikriSlb9KR044WP/5GScIxkD3Qzu2kP5e4GCsM+LETRJaaj7Wm4Ic+tQrAH0heVSqfRQZMlm9rylbQ78ug1+YiX+klapwckjDRL01OzthUx2JYIY95NboELi32wV2mAMMqV99k/1Ras6bzJnOjsjrKPx9vek90WAiB8ZgSAILwillYv4qb7vyaVWWIxEbteIeh1S6+IPV1nz/PwJvQORKwF4Qt+8U2bmLHwRna//Us6mk4S7ou5kF1QQU5hBTpVj8WWwbJ1j9Db3crOzU/R3VrHXb//fVwdZ8kunZsGCGKE0wDhqgAIQufA3a7i8ZeQQDAH4yfFo8PYnImFTPQy9gE4nRbsNhNGk0Eybom4iLEQp6fHRyAQJRLtj9EwvH4ZhyEek5ZuArhPJaUY+ZQOktksolMOnl76eITK9sOsOLObklA35kQM3RD3T1Np92KUFcHCY4qOToONfUVLOFK8mG57jEiJFyYJEsToWPUmMs12Mu0OjKoBVYhyhR+MRJwevxd30IcvEiIuHRpNPhkUHQ6jjSybgwyLrS/yp0IkFiMSj+Ly9uKJBAjHo0KNGouhjexCv/SNIFIaIEwRIEx+6i5NydEAgiOrgLUP/AHennaO7X6b6+56nKbjn3Bszzty8y9b8yA5xdUDjw1xKPh6O/lk6/MEfD2s/8y3pbjA3+vCaDLzwUv/LsUUA0lRqVm4itX3f4MDv3uRT95/TrpivufL/xc9bWfIKpuXBghpgDBsU1zJDIK/N0F3Zz6xZOb4YgUxKlEFfaMdezQPs1FHaYmT22+/hpLiHFRVJ+MxSNUe8fpNIiM6Hjt2hq3vH6StPUgyOQgCxH4OhXyYTLaB0MxTPY1kuOegF4vFjtInNlATMapaD7C6fhvFEbcEBp/WJHreq7ews2gp+ypW0uX0kigNpVwvTyDpFZWKjHzuWHYjc0qqMeqF+FUnMZWSRMIBAdxaezp5fd92DracIpw4PwKuliZtBhOrqhayYekNOMw2uU50wjunWCcJwZIkCUUi7D55iC1HdtMR6CWZDJHpaCSzIEUspQFCGiBIHQSD0UJWQRmRYIDi6oUsXnMfW575AR1NJ2SMhfySmZhtGcOca4i8IoRzVn45qzd9TQZl6u1q4fo7v8gnW1/g8M7NiDCwqmoku7Bcel4UTML7z/2LtH4wmq3c+5X/ibujmczi2eQWlqRFDGkGYWBHXqkAQbAH3W0mvIFSbQGahG5cux57TwEWg5k1q2ezft0ybDYzujFiL8TjCTo73bzw4g6O1XYMtDV4mTun1WFYKOiR+ksioqtIOb1n2XDsVaoDHaifYnDQvyAFFOgy2thSfhOHi+fgLXJBtgixqeW6BoOisrx8NvevXE9RVp5kDUZLIuyzL+jn7QM7ef3Qh4TkC197yjbZeeS6DSyvmYfFZO4TRY1cPhqPcar1DM/tfpcTHWfQqx0UlPRgMI0czXGyfhCuKDNHrSIG7VN2eeQcjUEQLw/hMnnW0rVcs+Gz8rLfufknxKKhMTqu4MjMZ+Vtn6dq/nV4etqJhoPYnDlEgj42P/U9ggEPMxevZvGa+/G7O9n5+k9wtZ+RrITwxHjvV/8nVmcusaQeZ0bGBQcI4mOm08/ARGZVi7OQsZT2JtLWwKEmX5QTe+VMpp2Rymhpd7qUFMNxIybVQjQRlrJ5Gc44EUlR30Kzf4RTXL6hhpjn9ucZ8MMv1oqiouoMxBIRDDpRL8SS0YFyUpFWUOwjXICirEjyNynXTs2DkMq1N+cQjWdrG+qIglpvIyOZz8L5BXz2sXXY7SKoUyr1O8PqVycYqogr/q6trZsf/ehtOrpSYsMUg+DHbBavfY232zg9FX0Ih70YjSlWQh8Pc82pd7ix9RMsE3kBi7lS++CEsJ6SFlTnJBkYITWmAylFn4zeS52KoupJxiJT8k4ZVxSOOsp5a97dtGSFiFcEx42t1d+pmdklfPP2R8lzZg3rZ+pcSL3Yzz2bfKEAP3nvJT5qPEpcI8gyKioPLF/HHctvGgZCxl4nSQ41nuTJrS/gDreRk9uCPTNJpjHGurKzLMo5gqqE8HiL+FvhSbFOxArRnrScfdPtJE70bjxQov0LhudUrkaAIF708669TSojNh77WFokjJfM1gwKymej6g2Egz4C3h5plZBbVEXDsd3EomGq56+StFZb/ZFhIZ91qkECC6sjm7mr7iMnv0gTQIhGo5O2Yuj/nuk6GMcbn0/T71ou9AvxPaPNhWAQ9pZ8lm7H2K6Wd3cWU+hYxNy8a4jEQujlRR7HFeqk3nUEpymbiqy5xBLiFZa6RIyqidOuw9T1HEJBh1lvI9OcJ2FET6iTYMyLDpVS5wzybaW0eOuZmbuEeDJOU+8pzrhr5eVakTlXttXorpW/9SdVUanMnIfFaCcWjxGIemjx1sk+BL3Q2V5ELGnXNpxuFXtrATkOJ19+Yj2VlYXDLvaOThd79x0hGIrgcNpYvmQu2VkZA3ULJmHnzqM8/+LHxGJC1j06QDCZ9JjNBjye0aOv9mOKoffxuQDBEXRxx4FnmBnoHBQtCEc4ubkQixF3u8VtiKLXkwxHUvOi6NCXFGO+9U4wGIju/ZjIgb0kY30Uu9GMPicbtaiEZDBAtLmJpNcrUBz6vDxZZzIUQhHKGQKQRaMpcGgyY1ywCP38hYS3vEPC5yEZCJAUSG2EJFeIfN0rkBDhsoaDlC6DjZfm3cfp3FwCZS6wjq8nYNCpPHrtRjYuWTVs7oKhMHs/OUpLSwd5edlcf+0izGbTQK/EuJ5qO8M/v/4reiJ+Teul1J7Lt+/+AgWZOQP5xUXZ0NjC0WOnCYWjkn26Ztl8cnIyB/oTjIT56XsvsaNhPxZjPXmlcbLM5wOEv/nHJdLV8pWUJnr2XZUAQSI4VS9RV3IMk8bxF4YwlUm9VESSvhSkX/nzN5LIZzDZuOsrf09BafVFAwjjf4P2HFcK2JjoJtE+QpPLqTWa4yHXLBYW3k6Bs0Je/K5ABwbVQJv3DJ+0fkB19kJqshfKSyMSD2JQTRh1Jo537eNY10eUZ8xlWfFabEYnkXgIT8jFnpb3pKLuLTUPYTbYiMUjOExZdAfa6Qg0sbvpTfKsJVxTsh5v2M0p1wEELewJdeMJd6NXDdxUfh959lL8ETdWg4MDrds40b2fnq4kbnc5CRmxUUPqVHF0FrNgdgmPf3H9MPZAlN53oJY339nOzOpyKsqKmDunGodDKAsOpvqGNp780Ra83tioAEGs49mzi1i4oJxXX9tLOCyYksE6hDijqMhJVqZNCsz9vjDNLW4ikZQb3X4GQVUUSjtrua/2VbJig5ZP4qJ2fOOPiXd24H/6p+hLyjAuXER4z0fE29tQDAb05ZXoZ8/BMHsusdOnCL79eurSt1iwrNuIac16dPn5xFuaSbQ243/uaZKhMM4//S6BZ58mcvgApqUrUGxWwh/vhlgc802rMd9+L7rScmICcAQCBN99k2jtMdS8fMkqSPZIryfe3U2iqhq1okr2J+H1Ej98ENXtGmAegjoD71Su5qOShXgqu1Ec4wOETKOVb9/5BWoKy4bNSzgS5cyZFppbO9m1+wCb7lnHrJkVw0CELxjgn177GSe6mkdkqoZWqFN0rCiZxdduewSTYXB9JRJJWto6OH68gYYzLbR3dPP5R++mtCR/oK1EMsG+uqP853u/JZE8TkFFnGxL9DwG4W/+YQknTqcsVq7Ws0/53J+NYcUgKcWLmwaIwCkygkLE8Mi6qYd7ns6vn6ijpOlgEKaz/1frJpnOMRypLq0AYV9XBbPz17Ew/3rp3KbL30og6sOkt7C94WWKndXMyFmMeNWHYgEpihAHqQAIZzzHWVNxP82eeooc5Rzr3EN19nz5ot1x9g2WFd0s/78n0C7rc5iy2dbwMo3uY2RZC1hdfi92cxZ1rsOSHcixFLCl7jkp6rht5hckI/F+/YssKrxeMhlvn3iatpYEXn85ySEOkXSKglFvlMpjUaHpr1MQL38hllC6DDg6Cll9/Wwefng1ev1w3wH7D9byyusfUFZayLXLFjBzZjlGw/AXXntHD0/+6B3a2wIp5bRzRAyCNcjPdzJzZhGzZxayZetRuro8uFz+ARGVwaDjnruXcv11syVwOHGihV8/uxOvN3weQJhzZid3NbyPJS7YgVQSAMH5rT8j3tmO/xc/QZeZhf1LXyFaf4rgi8+DyYjpmuswVFVjWHEd4V3bCfQBAH3NDOyPf5nIvo8xXbsK/zM/w7L+dmJnGgh9sAXnt/8C/69/QfTAfvRV1Vgf/TzBzS8TPXgAtbQE+2NfJOHtJbx7p2w/3tYmL3zbo59HP3chyZ5uokcPEnjvXfSbHsL5xNfRWe1ET5+g56/+DN2pEwMAQVg1bC9YzHszVuOp6iHpSDFHQqfApDciZPrifhAXrnhsiTVQ4sjlu5uekNYEQ5MAVsdPNvD+tj34/AEee/B2ioryhl28oWiEn219iW2nDyJWhAAzelWPXtUR7WNXZFvJJEIJ8t7FN3HPtTdjOMfsVICEbpebVzZvpbysmLU3rcBgGDRNFX3ucHfzty/+J/7oMQorw2Sb0wBhpLNpbIAw3snYhx5GAhHTddGP14XRfpcAQZg5frKbYluMHEt0iKOkydY6tXJpgDC18Zuu0p9WBuHjzhKWFd/H7NzlUo7bHeygzdtIljmX7WdepdhRw/yClVj0NrwRt/x3PJngcPuHNHtOc3PVgxzt+FiCiA8aXmBJ0U0SRBxs28GqijspddTQFWwhHAsSjYelbsOBtg8xqWZWV93H6e7D7Gt9D5Peyh0zv8Cbp36JN9zD2sr7JeNwuHMny4tuxqia2d7wKh2tCTy+QYAgAGZxZh6rZiyUh3xTdzvBWISjLXXEhMOwLgPOjkJWrZzFZx5Zg8EwHCCEwxH5Itz18UGOHK3j4Qc2MH9uzbBl0dbm4r9+9A6dHcERAUJOjoMliysoK8uhqCiTw4fP0HimmyNHmiRQkRc8kJdv5957VkiN+Jde3kN7u3dAB2IogzD77G7uqnsPa2IIQDCasH/p/5C0vXjdJ9w96MsrMN2wBt+P/o14VzdqQSHWhx9FLavC/+S/Ej1+DGGCbVy6HMvGO4nWnUKXl0/wxeew3LOJRK+b4FubcXzlm0TE5d/VRay5CcutG1FzC/D++N9Rs7JxfOcvSQrRQq8HxeGQ5cP79mBacS3Ov/l74u3teP7q28Samkjm5mL98h9gWrIMz49+SPy9d1Cig98RVXRsK1zC+zU34alykXQIj4QKswsruaZ6Lt2+XoLhEKc6mjjjapdjV2LP4bubfp9s+6DoR/y9AFrt7V1s3/UJR46eZv3NK7l+5eJhugihSJin3nuBD+uPyLkTF//qWUsoyy2kobOVcDTKsZZ63EGvBAh3LVzFpuvWnwcQItEY72zZQVt7l2QqhoqhZF+ANlcnf/vSkwRjRymsiKQZhFEO16kBhOk6sS9APWmAMP2DmmYQpn9MRY1aGQQBEOblb2BR0U3yxO30N8s/4kJv8pwiz1bC3HyhnxDkrOcUOZZCLHo7p1wHaXAfZU3lJqxGB/WuY7hDHczLv5YjHbvp8jezqvwuipxVnOzahy/ikWKIRvcJuvxNlGbMZG7eClo9dTR76ihwVFKROYt3T/8Gf6RXiiSECVuWOZ+FBavlab4hAAAgAElEQVTY17KVFk8dvS5w9ZTJWAupi1ch2+7EabFjMZiwGAy09HbT3tstAUOyS8XZUcysqgKe+P0NZGQMFx9EIlECoRCnT59l85vbuPuO1SxdPHfYpJw81SxFDMFgSjHzXAYhpSCmMHduCYsXlcvLPxiMnqfkJQCYw2GWAMHtDgyIIIaJGHQ6irpPcc/Rl8iL+gbVQ1UV0/JrsG56hGQ8RvDVF4mePoX17k0EXn1BUvr2zz4u9Q90uXmEP9hCeOd2Ej4vakER9q98E8VoIPTu2+gMBgyLluB/9mnJIlhuvxvj9TeR7GjH//TPUPLyMS1bIX8XZYwLl5Do7iQZT2L/o+8Qef9dAs89g+XuTVg+/yWSwSDBnz1J6P33pMghmZ2DmptHoqEOwsN1FfyqkTeq17G/aA6eii4pYhDKhbm2TGxmC06zTQKG+q5m3AGfnAenwcIfbnyUeWXDgZtwVuX3B+nu6eWtd3dQVVnC+rUrhwUt8gR8/N8vP0WDOwU29MJnTXYBRlWP3WwlGAlxurOZSCwq212QX8Uf3fU5zMZBXQZRrqurhxde2cKcWZXccP3S8wIjxRMJth/dy892vAbJ4xRWJtIAIQ0Q0gzCVK+3NECY6giOXF4rQPiku5LSjGuYnbs0pQcQdkm6X7z223xnJLU/P/8auoNtRGNhjHoLmZZcDrfv4lDHTmx6Jya9mTxbKaXOGqm82NhbS7algJnZi8mxFnKia79UVrSanJzsPkBDz1GpZ7Ag73rpQdBmcCCszGu79tHqq5OvamH9MCdnBaWZNZJlEAqRiWScoD9JR2sR8eRwurl/FFL6O0P4R68Oa1M+mSYbX3r8FubMqRhm3lhX18SOj/bLiyY3J5MN61YN00GIRGK8u2Ufb79zVEaKHEtJMTfXSWGhk9raVmKx0V2rnztj5yopWsNeNh58hvneliH+DxQUqw3z2ltk8dAH70l9AMViloqK4jVvXHYNwddelP82zF8I0ZhkCKJHD6EWFqHY7BjmL0JfWkbovbeJHjsiY8WohcWYV99MrLFe6jRI4GU0kAwEpf6C9fZ70NfUSKuIRCBA6M3XSHR2YN70IMkeF4ozU4o8/E//nITQNxgjtRudvDD/QRqybYQqekZ0vXzuHKoobFq6lnuvvRm1zwxUNNHT4+GtLTvw+fxkZWaw5qbl5GQPKg6KS/tAw3H+673n8USD5/Wq/+wZul4KLJn84R2PUZVfMix/d7ebHbsPsGjhLMpLhyu6iozeoJ//eOtZDrTVYrM0kluUICstYhhxJSif+844nhQvmRLC1A7jmPCkKHQQ0iKGqQ3kkNJpgDBtQzmsIq0AYVdHAaG4EaveMaDElWHOJZ6I4Qq2Sd0BIVYQjIKU6aNgMtgIRLz4Ij19bSpSL0G8+MUlLi5R8f9C1GA1OHGHO2U5myFDmvH1hjrl61koMIr8wgxSJBGvpN+cUeQX1hFCbiyUI/uVdgVb3d6cRSQmtMw1KBXFFHQnzWQqRVSWOXn88Q3k5AxS1UK2LMQM4jIxm4zDdBTEb7W1jTz962309ooLf2yAIBgC6ZFRuEGeQDoXIOgSURY1fsgtjTuwJ86xFhBxhsV3x89xACScBglTRGFdoOrR2W0QT13oMm+/+YR0LqSkrBv6zSDFb6JeMSnChfTQJCwZRBlp3QDJaGTAMkJaUUiXz6J6HclYdEwzSOEHcm/OLLbO3ki7cJZUGdZs5ljqyOXrtz5MeX6xfOmLJMZNWDLEhTKl2STnbuDSFzoBPV08tfUljrQ3yHWkJan/v47E+jnX8ND1G7CaBr10iraETsRIpsVCh2HX8YP89MPXCEY7yS1oRahLjOQoKa2kCOMDBC0zde58ajgLtFQ7mTz9TfcrKR7at5tcUxAl1E398f2XzFZefIvJYuP3vvNvlFSkrRgmM7fTVebTqoOws6OAQHRq7oKnawy11CMu3552Ax5f2TBFxVHLinPEpWJrz8Oss7JkcQl33nEtubkZ5yks9tch5lJ4Uzxd18prmz/m7FnPgDfFFIPgxWx2pLz4TUOSdQa9wxwlZfg7uOXoK8z1NqOfosvgaejilKsQ6oYtRifvzriV47nFBMp6IGN8C4b+hoUXw8rMQj570x3SmkHoEoz2uBCmsW3uLt78ZDsfnj40YW+KQqSxYcF1rJm/giybc1TfLxKgRMIcajzBr3e+RUegB5Oxg/wiD3pjGiCMtmiUz4/HIIyx3LTgvEuFFfoBwsG9Ozlbu4uO5ka83pSc7FIlq93B//rhM1TPmJU2c7xUk9D3mrmEzZ/XtFYG4dMGEMSHCjFDd1sWkUSuJhZBuFjQn7VgD+RLE87CQitLllRx7YpZUhN9kGpOvUrdbj/bdxyWogKPR5g2Dp44/SIGo1F4YhRlpz7r4mUqXC1brcI7Ywp0KMkEhd2nWX3yLapD3RhGMHOeessXp4aEotCpWvmg4kaOlizAneUiURQRrhsmlASrVGjPYnHZTG6cu5wcu7PPkVeqGiEiEwqOe08fYdfpQzT1dhKZpMm5RTVQnVPMTXOWMbe0Rrp1TjkNG3Su1eRqZ9vRfRxqOU1v2C+i75CZ2URG7uiultMMAkwJIExoxVzkzP0AQbg6fvONNwgGhdnTpU1Wi5W//h/fo7KyUhNAEOGeTabhCjiX9gumr/WJvOKnU7TR72VNy5do8UQ5kfpGa/NKBgjiruztVujtFboIw5UOR50Dvw59iw1bNEc6g1LVJGaTIkUaJqMwV1OkU6Z4LCVICYWEQuLIwZqEqFE4MRMXxljumrWsB3mxSepaxWgUHh4HEYeI5JjvamDZmR1Ue1twxkJ9Ogmih5dv6u+dOBuF34Mmay77ixZzvHAOvXY/8eIAmCZ/cgpFQ7veLK0OhFhBBmtKJKWioeAkfNEgkYl4oBxlKMUYm1UjVoMJXVLof6aCeolgTQIoiiBNgVhEWvWIsM9WczM5hRH0htGDNQlPiicukKMkreffpT77lC9oYBAmvzwmtjGmcyMJgPDwutnkZtpS4V4vgyQunOrqarKzszUBBNHvKxUg9B+2403LUHe64+XV8nu/fHKsDdrvClXL5uyvb7y2x6orrDrZIzwp2sf2pPhpZBDEuIiLvKddxesvIaloi+iYDOjQt5mxBXOlwydNOgyjTELKDa12inzsuRRAY7j5ZX9+JZnEGvFQ0NNIdfN+MmIB6R9BFXoeF+sQHW8hDvldjoqiI6wa8KpGmvJm0pA7i26zBb/DTbwggmKe3o7LV/0E+jiVrCO1pRDHbGwnO9+LyTJIi0xXsCat/dXiGvlSnH2i/0Mj7Spf+G//OZJ7da3fOZCvf9Kn85IftxNjNCYBwi2zSUT8HDpyWIaHvdRQ3mg08pmHH6G4uDgNEDT6D9fyih93nQzJkAYIExmt6csbjyZwd+rxBfL7mAQNnHVYQenSYwzY0UctGBQjOmXQ4c309W56a1ISCfQipkU8ijESkCKICXP009ulUWrri5mhNxJSDYR0CcLmCBGnPxWcaYIRHC9KlyfdSBIdYczmLjKzAphtQltzsLKLDRC0MI/TDRAkWI8LxeSxIdr5AGHSg375FozHojx8yywOH9xDe9JP9cwahNbrpUwGvZ7blq+mMC8/DRDSAGFgKV7pDEL/hwoRs783iddtJRwXOglGxLE9ZhJnWUSBiA6dR0UJ6EGEmhDRHS/qa+RSnhwXqG1BIYjLwpgkaYuTcMRIGpMohpS1w5WRhBAljl7txWrpwZmdkNEbz01pgDA4IlcVQDi4/yNsNQXkz6rEG9YWBGS8jSFj5gnzIxklTzthZtDpWV+2mMLsvDRASAOEqw4giA+WUSIjSQJeCIesRMIWEkkBEnQp6nksTUIhKZSxTvqG7oq5xMY7cS7Q70PHUYzlyJKTC9T4Bao2mUSIelLLKI7eGMVk8mO1xTBadanYVCOkNEAYBSD83n/7zwlccRdoUqdY7UjnhGAQHrplFgIgOGYUYanI5VB7w5iRUrV2w2GyMCO7hA5/Ly3elJ24lmTWG/jqkjspyy1IA4Q0QLgqAcLQfZKIJ/tcBAh/BFp2UDpPegTGHwHxaBMKqYqSRKiL6FTx32OXSwOEMQDC+EN+YRVLLsRDYCSAcLCtYdwoYWONhXAoYzeaWVxUzW2zruVkVxOvH/+InpCXqAZFSLPeyNcW30lZXhogiHHWoqiT1kE4RijuZGfrQj6tSopazpd0nvQIXMoRSAOE0QDCnw/xpKjxJXzJJnICSEIChJuHMwhTAQjCtnZeXgXrZiynwJ6F1WiSoMAd9LGnuZbf1R/EFxk9trwYszRAGL5y0gAhNR6Xiw6CYMKEO1/JiE1gr12y8+BybLjvDNWpwlvl5djBdJ9GGoE0QNACELSunckCiYu4YaYTIIiLfXXlItZULyYcj+AJBajMKsQV8BCKRci2OqntOMNrtTvpDnhGNeNJA4Q0QBhpi10OAEGAgog/Ik0Shd6gFhNPrcfFVZVPgqzUAWl2GqfF98JVNX6X6GPTAGE6AcIlmkStzQrkHhMMwtqpMwjioJybV87nlt6KJ+jjucMfYNCpbJq/miMddew8c4xbZyzjmtK5bGs8xKvHdso46SOlNEBIA4TLFSDEYwnCgRhmuyF9qWk9aEbJJ8BWyCec8OgwmC9/s8wpfu4VUTwNEEYBCF/87jjBmjRM/1BC4SKSBGP2TDAID04DQLAZTBIclGXm88yB96jtPCOj2TnNFkJR4Z0rTJ4tg88v3SC9eP344820+npGtG6YKEAQnhTNZm2OZTRM02WVRYsdsOjwdNoC97epxfKkv92xXtITrW+0CbgcGIRYJEEsHMdkFx7oLqul8unrjAAIgaiU0phshk9f/6/CHo8EEIQnxZN1xgsyGlrEq9N9/ok2J3r2KdMBEC7ICE6i0qHnmmAQpgoQLHojiwqruH/hGjr9bjYf20Wdq1W668y2OvCFg4RiUYod2dwyYxmLi2rYcnIve5tP0O53n/cFkwEIwrnSuUnLJE9i+MYs0u9dUEu9Whe/lrpEnkvxvVr7Nh35LgdXy7Foglgkjsk6UYDQv+sGnwnCDFinM5BIxlAVPSKCnogEeWFVnadjJqavjkgw9b1GS5pBmL5RvXA1jRXNcSJnn9aHj9YvudRnn/L4NDAIWj/2YuabDoBQnpnPl6+9i0yLXYaYbe7t4un978pwpA8uWMPHTbUcaD3N/fNvZGnxLEwGA+FYRCosClGDCEgyNKUBwuRWwKXeJJPrtfZSWgGCCPecSDrJtuRj1JvlfSvAqgjl7A51yot4rKTXGZmXfy3tvrPEkzGyzfm4gh10B1uIRuLDAIJBNTMzZynZlryUz49kUpYRoaSPdnwkwzqL+orslWRa8mjoqSWeiOKP9mI3ZjArZzktvnpqshdIxq2u5ygt3tMSKIj4ClWZ88iyFuIJuzjjPk4g6hm161aDnYrM+Zj0Zo527CYSD2kf3L6cdmMmM3KWYDPYOdi+A2/YNeE6RAGdolLsqCbfXkarp452/1kZ+lqmIS+UNECY1PBeskJpgDDy0KcBwhhL0mGycmPFAskO9AZ9vF9/gE9aTkrrhaqsQtp8Lmm5MCe3VCowzsgtZU/TcXafOUadq+U8ZcU0QJjc/k8DhJSZ466OQmyGUmbnrWBW7hKi8TAt3kaaPac42X2AWCIy5gCb9FY2zfsqh9p20BvsZk7echrctdT1HCQSiQ0DCDZjJuuqHqQ8czYG1SgBggAH7lAXm0/+FL2iZ2HBDZQ6a8i1ltDmb+Rw605O9uynJmsxq8pvxxvpIRj1S8Bwsns/td178YV7ZWyFHGsRRfYKbAYHx7v20RUQ++V87WfhWnll6Qb5vb9reJlG9zFUnQGjzoyq0xNPRglEvRJ0mFUb0URE9tOommTMBAFiQrGABCb5tjLunfsEr9Y+JcdMJNEXi8EuA/r4I72yBxa9XX6zAEGi7GDdUcLxAFa9kxUl68izlLD37Fa8YTexZAx/3E00GZT1pgHC5Pb6pSqVBgijAYS/mKQOwkQsGS6BTDMWjfDg2tnDHCVN1MxRvJyE34PfW7ZRmjb+Yt87nHY1y6eCxSAOkJhUSMyxOqWeQqbZzo/3vE6zp+s89kAMfxogTG77pwFCCiDs7igm2zpTvmDn5l9LKOan3nWUQMzLia79qIpKtrVA+PkcGGgxdq5gu3yhC4Dw2KJv0xVo40DbdnpCHfjDbskMnCtisBmcLCq8gSJHNcWOKqmX4I94qXcfYeeZN7AZM5ifvxLxui+2VxGM+TnQuo1TPQfIsRazpvI+rEYnsXgEo94iL/GGnmN81PQWGeZcqrIWUGArQQCR7Y2v0uqtGxEgZJjz2DT3K3x45jXqeg7L1/qS4rXMz7tWUvji23adeZNlxWslk+GL9LK/9XdUZy2kyFEhL/fuYBvbGl/GpLfx6MI/ZvPxn9LkOYnDlM11pbeRYc7GanDw0rEnybEWsrRoDeFYgCbPaRp6jrK85BayLQVyDD9u3kKnvwmbIZPbq77ArMIl0oW7O9jNy0d+xFl/rfyONECY3F6/VKXSAGEUgPClUQDCRO7/CzWpU8EVIszrA2umBhBSlKKOpcUzeGjhGlo8XbxweLuMN37PnFUc6ahnT/NJyTKsrVnCnqYTvHBkmxQzjJTSAGFyKyUNEPoBQhFmQwm51mKWFq+Wl25txx5JuQs6v9BWyfyC6+Trvj/FiHO4fRdne49hVC08OP8bBKI+jKqR5t56dje/QzQePA8gGFUz15TcSlXWPPnKFuyE3eDkUMdOdpx9Q7aRZy3BbLCTZSmgOnsu751+DleogxmZC1lb84AEKkKE4Aq0ke8op7n3FL9reEl2rcwxU77CT3Qf5EjnDmIJEWBheFIUHRUZc1lddS8vHv0PKRYQf7e++hHm5l0j64olYiSSUW6suo+eQAfZ5jw+bNxMVfZ8xDc09Z6QF/wzB39AnMQAQGj11bOieD0VWXPZ17yV22Z+lueO/CsLC1ZJMPDmyV8Qivspc85i3YxH6A12kWXO5YOGlznW+ZH8/sUFa1ldcS8GvZFtda/wcdsWYsmU+CMNECa31y9VqTRAmCBAuFQTNV3tThdAEP0R1gkbZ67guvL5uAJeesN+ZuWWSsVFbzhIWUYeZ9ztEhy0eV3T5gdBWDGklRTTSopDPSkGY3r5Kr656gFJpe9tfV/K/sWLVzBbgnYfCqwF0I/LSzQuGQQpYmjfSZP7lHw5t3rrJS1/LoMgXv3idV2ZNVeWFyAk05xLbeceCRCyzHmsKr+D3pBL/tHr9DS4j9ETbKPQUS3FAqJ/ObZCSf33hruo7znKwbbtFNor5Itf/C6UGD9oeJFQPEAkFhzGIgiAkW8r5a45T/DKsSfpCjTLWA1rKjdJHYZnDv2AaDxCVdYcVldu4oz7hBRVtPoaWFZ0ixQHCMahImsOzx/+V3SqgccWfpt3Tj0jGYTrym6Tog6hk7GybAPPHPiBBFhlGTW8UvsUvohbsiM3Vz9Ik+cUHb4mzvQexxVsk+BjVdkdOAzZHO/+RIo+wgkxB/8fe+8BJddxnol+N3bunpnunpwBDGaQM0AEggDFnKlIJeqJkrjmSrYlp7Vs+enZa59d73qd11awKFNUoBJzBMEAgEQm8iBOzj0dpnP3je9U9eTYM2jEuXUOA9B1q+r+t8JX358yxQAIudrJr047BkAwAAJmq2IYLTKiUthQVo/N1cvgtjhhFkUoqopwKk6DJO26dASBZHRai3uDQZjbYjcYhLGhlgmrtTB/BZYUbaJggNzaD3fuoozCdIUwCHcsfIwe8k3Bk2OqTgYQtlQ+iCJ7OQUfBGhwYNAb68Dx3r30Br2t5mGIrAlJOUoP9jN9B9AdbYbbWob1ZbfDH++Gx16KILnZWwtxzncUffFOrC//GLoGLmJACtB6Js6CULIPH7S/OsEA0cxbcceCxyBrMvZ3vEZZhFUl26na481Lz1KAQIDPpvK7UOyooqCDqE9WFG+lNg6hZD+OdL+LltBJqvJ4uP5JRKUBHO16h67VbdUPUI8LVZPwXsvz1PZge9Uj1OCzN9aKo93vYhVpy1kDSU3jSNdu9ERbUeFahO3Vj1K5N/oPQ6deGiPFAAhzW+vX6ikDIEwBEJ74s8ltEGatYshxhrXLUS+QVyU2CETFcGJUsqbLAQikTRIgKd/qwIriWhpyuTnQTYFBXzSElCrP6I5nAIS5LX8DIEzMxUCs6QlbQFgDYmBHWITJjPxGS5zQ8w4xnxreEQO80WU8QCDtF9orYeGtlGEYKuRAJnp/onIgt2jSHilE90/aJGMg3hFOi4fm2gin/PQ3wj4QGwliD0BYAE1TaF0zZwHPmejBPn5MmT4ZFNkrsNR7C+3zQOcb1DCReEaMHhdhVQTWBA0aVW1srXoASSmKY717kVJi9MAnf0/UJaRfwooQGwbirUEKYViG1BwCK1KWhrwr6ZPImfwd8V4ifZc76rDYs4oyD+f8R6g8xxcDIMxtrV+rpwyAMEuAcK0+1GX1OwpVqLKER2/NLUAYGhuJgbCmZCE6I36c93fOCAyGnjMAwty+rgEQrnyyJgIQ1LQK0TbbOAhz+6azfYoc/jwn0MOYAKLpCjEuJsBF1VVqWJjL+UPaJmMhAIqoXTLxHSaWVEKhCaxFqxEoabbf+lrUNwDCFADhK38+Ry+GLMOeXC4TMNfJQmwQKEA4NpLueToGYcjXO5v+SF2O3IJ0fVJvhanamAtAGB9JMZebHRnnbNrLNj7/bNrMRt7Z1slmfLkOZJKLSI8p1okjpZ9FwFFNX1VkNXxz5X786Y7/A5f56mRzVGUNUlKhkRRJqlyjzF0CBL+k4hI4njUCJc1djFf1yckAwl/971W40JQBeNnsLbPdT3P5gtmMby57H3M5ACGXL5jrtrIBCGae3JZYkHgH+RY7/PEwgskoWOLTpYNSisRAkbgxkqRM/ngmmAv5mYCD2R6ExI7hv6y4/tI9z2Xi5Pp7XW572R7U5F1zGemRpKPOZnFO934EIBwufQwB+3iA8PdwmRuRUh3Y37sCB/qKkFBYOjdnrQKcIUEjiemVjEp0bpODzYi3PMcZSb6NqkGRFVhcZgNszVGMV/UxBsgTJdxe3oHl7kZwTAqRaAlGA4SrOp5Zdpbt3keaVdXJGa+pumS++uffGxfvb5aju8bVh+864y49xAbhkUkYBGLVZeJ4mHgB68rqYOZNKLTnoczpxYnui9jdfBxbqpaCZzkc776EQns+7ly0DgOpGH556j0sKChFTUEpzvvacd7fAYVcFwhYmEYO5APmmW0otuXj/toNKCnwIpVK4cyZM/SDDR0wgiBg2bJlCAaDeOqpp+hvJpPpikv4ZgAI5KDOpswmf0I27V0pgPC7Kw7gz3b8I/IspyFrJpwKLMVH/cVIKhxkjUVKYyCpLFSNmREs8KwOgdVg4XRwjEaSNU5aiGwUWSXI2Ej3nM3Hn6YOJ7DIdk5eZlfG45crAQbIN6WxubgN1c4LYBkV4Ugp/vvfrRxmEC63iyv5/GwAQrb5GIbGy3z1O7NUMczx9jLc4eDeo+ecxRzbIGEQHtlWN0HFYBYEbK5choWeEhQ7PGDBICGnqRHT86f3UtfFZUU1qC+spP9/ovsS7qu/Bcd6LuF4zyUKENaW1lGf6jcvHKbsgqKpaA72Urah2FEAnlC0DIOElEZ3JEDZhgZvBe5ZvBEOXYDD7jAAQo5XTLab8Y0AEARGx1caPsJf7PxXFDkPUWVeXPKgP+lGWuOQUgWEUla0xxzoTVgQV0i+g4kCJSvCwmsosSZRaY/BbYnBxEkZgJDz9ZfjD2o0Z0jgKkrAykkotHbBxMWh6wx6fbX4239ajOa26z+XxhUGCN+fC1t5FT/d3LqaCiAQCrXM5cEnl91GN94hVcFH3Rdo6uYypwd31a2j4ZTfbz6BcpcH22tX4/nGPegY6MdddRtQaHPRcMr+RBgPL9mKc/527Lp4FHkWG1YWL4BVNKHA6oTI8Pjl6fepKyRhJBZ7KvBgzXp4890GQJjbZ53yqZsJIPCMjnvKWvEXO57FytLXIHAk8RfxVsjc/XUwkDQr+hNeHPNX48KAE1GZpxf/0UDcLihY7IpgpacLRdYeiFyCtEL/MYohAUMCYyXAMBn6XZKtOHJsGX78cy/6+rnrXkxXFCA8+Z3vUxXD+C1jpgvGbLeYmdqb7CtM18dMhDIBCA9NwiAQA6zVJQtxd90G9EQDNNlNicONC/0dePlcJsGSx+qkhznpf33FYmp78PyZvYhJSWqvsNhTTiMs1nkraHjlX554F33xEGUTNlUuQYHFDpfFDugMnj2+C6FkjLpY2UUTvrbiHpR5igyAkONldzMBBLJWFtlieKzhCD63+ueoKjgIniVuejrAkAOeQAECbnn4k+U47q9EU8SJhMLTOUuet/IqFjrDWFvYgjxTD1iGuPWRp8jKydgxGMWQgCGBEQkQFk6SLGjrKMcbu8tx8KgZieRcTq6rK9UrChC+9hc3L4Pw8NaJKgYSx+CzK3ZiIB2nIZF5lkV32I/1FQ341an34YuHUOksxJqyOlQVFKE50IN3mj6iQZBIzPUKpxcrSmpQnV+CuJzGWxePoDOcyaRH8jZU5Hlh4U0odxVSNuIXJ9+hDEKZw0NDNq/Mr0K+K88ACDleQzcTQCCiMbMaFjtCeKz+Z9ix9BA8FpKASAbHqLALMdgEP9WVkgM/JrvhS3gRlayDLIMGh5iirIFdDFFAoelEleZBQrFB1g3XuxxPP6O5G1wCqs4iHmPRdDoPZxrtaDxvQiTKQpveo/a6eOsrDBD+fQrt5WzefTzKuhLXk9m1SeIgPLStfoINAqH/FxaQ6G5RLHSXQuQFHOg4S7MzdoR9sAlmbKxsgKbpOO9vR1OwByk5E4TGSbI7Vi+Hy2RFS6gXZ31tiKRHwsNW5xdhXXk9BR0EJBB9953Q46cAACAASURBVG8b9yIupbCmdBFq80uwyF6MAgMgzGZyZVX3ZgMI5KVtrIw7i3+FTctOwSJq4FgSrEtFqS2OFQU9KLZ1QmDjGWZAF6BhhA5lQYxfM/kNFE2AL1mNU4EydMZIxsOZ+LesRH5NKlEbEg3QVB2aqmVlS0EoUmoWxBHDQQYM+ef6vxheE/nO105VkjekV0XzW0AkyCKdJiq9G0MaVxQgPPmdyQBC9oKZzNiQuQ4Em1ExTAQIVIM7uDuYBRN4hkFMSlPylWw+xO2RY1nKCIx3ZSTPEVsC6io3+PtoSRH3SPI7jZPAcjBzAs3boGoadZ0koOFrK+9BhaFiyH6CZVnzZgQIAqNih+fXWLPkDPghWykGMHMaahwxrCvsRqWjDSY2MumBR5ahrOahK16MI74KNEcciCncDaleIIBdTilIhiW6/lSye5PbXRZYhwKEQfdkIihB4GB2iuDFy3dRzXJ6GtVuAAlEe2V0vKZCid9Y6PG6BgjX63efCiDMFI72Sr7PbAMlGW6O2X+Nmx0gcOOMqU2chgpbAg35QZTaQrAJCbCDjAGRmqqLiCtm9MTcODeQj664FUmVvWFuRUNfnoABErY4GUlDkVRi1pNJZz2HPZxcXDJ3Fx2MzsBk42FyiBDE698QLfuVYNScqwSiPTI6CUBIzGFyzbXTHDxnAIQ5CPFmAAgkm+PViIMwB/FO+0gu4ypkG4Qo23qzCW6VTd3ZLM6phJbiBiMpDgZKGqo3mkEYDxBIHRLfwMRqMPMqjXMwPosjjZeg8EipDNTc+xXnetpMaI+oEuLhFNKxjKok169AmAWOZWB3WyCaDZBwxT/odd4BAQhdr2uXBRByufcRcWW7r2VbL5s9ja61Qf0Kc7kqhuv1m98sAGGydM+5lHkuDrjx4yHMR7YTcaZ3yZYZmKmdufyezTtkuzCn6z9NAELZ54YjKWYLEObyTjfKM0T2ibCEZDQ9dVRHnYWWFiCaWSh6inp4zLoMunA5PBaYrNe/z/us3894IGsJUIDwhg71MhgEEogoV5Far8TenK0wDICQraRyWG+2KgbCIBgAIQslcw6/0eimDIBwhQQ7U7M6kIrJiA0kJwUHVMWgCyiwV8GkF9OMi8HwRWhiFNooNctM3Qz9TnAFsT1yFVsyYaaNMi8lYACEkc9uAIRrsAQMgDB7oRsMQsZIcTIVw+yleWM8QTJLDvRmvDPG2howgMrBYS6CjS9DWcVC2Gwumvcgngiiu+ciolIXJDUMDZm4D9kWos4gaganx0K9HIwy/yRgAIR5ChDsC4rBFjtxpqf5mhppEYDwjVseQaW3JKs4CAaDgGsaz95gEK7NIZEIpxGPZBJHDRcNMAsFcFlqUOypQZ67EDxPAkMRl8WMniAejSMaC6Dp0gnIfB9UJpVlztlMNV3T4Cq0GRkYr81nv+a9GgBhHgKE4x8dhI9Not3XjT6fj8YzuFbFbrHin//4v2NBVY0BELL8CAaDMB2DwMAmuuA05WMg1Y+UHJ9kdmc/31mGg8CJkNVMbpLRhVDwPCNA1RVo+khGOEL3WwQHVE2GrEkw8RaklcSE5zNkQCZHSQZ4ZdyNOYZkVM0gAVVToKgKwn1xqArh/YdGwEBP2+DgF6Nh6TLYHA7wg6oAEjc/E2GS5kyDLMvoaulCW+dZSFwLWNMsmARdh9kmwl5gznJ2GtVuJgkYAGEeAoSWi2fxo2f+E5FY5JqyB0T0DrsdP/3xM6irqzMAQpY7iwEQxgIEkbPAzFvpQcsxHJZ418NtLUHHwCVcCH4Eq2AHM5izgRyaspZGJBWkB/t0hQCAStdiLCncgLO+Qwgke5GQo1A1FSbeCq+1FHXu1eiMNKEv3kZ/I0BC5MxYUbSVnuUdkSasLNmCQx1vIZwmScoymUo5VoSua7DwdngspQikehBNhyiwWVq4CS6zBwJnQmPfAVzoP4lgd3Qsza8zUOIu5LvXoKSoGBZeQIHHCY5joGuDDAIDpJISulp70Rfqh9/fA8HZAcGU8YDIphAigrg8OryGmiEbed1sdQyAMA8BQp7dTA/jbOjiKz3hOY5DQ0MD3O7skjUZKgZDxTAUKInYIJDDtshWhTLXAnqbZ1kOC/KX08N8b+sLKHXWYl3p7WgdaKSGex5rGSyCHbsu/QxRaQBOsYACCIE3IZDopQdzX6yN3twdpgJsKr8bImdCWk2iyF6Bt5t+if54B6pcDVhduh1m3kKBSFQKoWWgEbF0CNV5S1GTvxQljioS0JkyCZ3hJpz1H0Yw2Ycy50LUuVchLScQSYfgtZWgOdSItvA5CKwJ5c6FaPCuo8ze4c5d6Aq0I9Ifz4Q+HCo6A11yw1O+HqLFAVbS4DSbYTeZYHdYKYjxdfvhj4TQ198PldUgJaMwWzrBWzIAgfAMDlM+qj11MAlmyKqMzkALlR0BL8NcBcMgv9gGljPsEK70fni9tW8AhHkIEBwWAQMDA9cFQCA60zVr1sDj8RgMQpa7g8EgTK1iIIf9xxY8ht5YOw53vY3FntVY4lmPN5qeRUKKot6zDgvcy7C39SXE5AjWlexETcESKJqCC/3HUWgvxb72V6HpMtaW3E6P0dO+D7GqZBvc1jK82/wrCgZK7NW4e9HnKZAIp4OQlCS6Yy043XcAla461OYvg8vigYk3oyvcjFg6jKbQSYBhsaXiXgykA3CKefSQPtD5JlWHZHKXOLGx/G54beXojjbhkv8k2vqaEQ5GxnovEAYhmY+iyg0wOVxUl6BKGkw6AzapI56Ooc/vg8wo0BiNBkHS0nEI1hEGgSRXW+Rdic9t+TryrAVISAm8ePgZHG7fTeUxDBA0IK/UZngzZLk+b6ZqBkCYhwDhwukTOLf7BNyugkwM9rmEYMvRKjBZTPjCf/sqyqrKDYCQpUwNgDA5QCCUfINnHaryGrC/4zX4E92o967DUu8G7G7+FVUBEJVAdUED9rS8QG/vRfZKyhpomkJv7U3B0zjnP0L19wXmYiTlGPIsHmyuvA8X/Mdwuu9D6v7X4N2IYnslZSO8tlIc7HwLTcGT1Oah1LkAK4u3wi66KMMhKWmEUj4c6nwLxfYqOE0FOOc/CjNvw/rS26mdwkc97yGpxLGx/E4KPkJJH73JVzgX4XjbARy/dICyERMZhA0w2R2Zv6YJLXVE+yII+PugsUrGDmEwFoKajMNk6YQwyCCQRwhjsWXhXdi59CGcaDuAN049h7gcGTMTGQMgZLkyb75qBkCYhwDh1JFDqB3wYol30Vja8hrMb1bg4H1kAfJKrh8VA6Vfc5y5JleBQq7E2Gbz2bNRS+VCdrMJlET6swlO1Hs2oNa9BPvbXkdn9CJlyAhA2FJ5H4KJPii6DJfJAw06Xj33H9QmIPOsC2tKd8Ii2LC39UUkBg9IjuVRbKvCLVX3oS10Fid690JSiRcAqH3A8sLNKHFUI6nE0Nh/BKFEL/3dbsrDYvdaLPSsAMfwCCV8OO8/ho7oBWiqTA96whYQYG4TndhS+SDtkzAJ+eZCrCm5DW5bEaKpAXCcgONtH+Do+Q8nAAQtlQ9vxUaYHE4aD4kkayKAIOYbgK+/J5PBWtNpMiby9+MZhKHvLjAC8iyFiKQCSGuZ9xtdSM4UV7EVHMmMZZR5JYFMqGUN6mWkeL5WkRRz/aHmTRwEAhAWxotRnvCid28rzQQ3lzJ0hlID7IwxdsY1ivyZzQRxmyn7l+AUsfZ798CzoDgrBoFYZF/pQElzkcV0z+TiwBzffjYHda7f42q2l+ZcOEoiKTqqx3Q7WahljhVQV7Ca3vRbB86iL9Y+7FVQYClGsaMS4VSAqgOsggM8K9J6kpqkBzhRB1hFB1pCjYimg8NePXYxH/WeNYhJYWpfQDwRRheiBqjNWwqRJ/p7CS3hs/DHu7GwYAW81rJBBoGlzyXlKJoHzsAX7xij2iMggTxPSlpJgWcF1OYvRbmrDjzDoTvWigt9x9Dd7hubhImqDPLhKd0As92V8W4ggIAwCP4I/L3d0Dktk2iB1NV06FIcJpLt0jzRSHFw6U74xGQN8yYOTq/VyPZ4NRfAddJXZCgXw2AIjtkO62bc+276UMsEICyKF6Ms5kHXO82Alr3b19AEYXgG9nIXWBOHeHsYJo8VZrcVclRCvCsMa7EDjMgh2hyCrkyNQAhAWP/0A/AsNADCbBafARBGB0oiXgE8Nawb7W6YnTwZEFdG8qw+msKnD7MgevpMm5OvEfI7y5DYAzpVU5D/EsBCvCnGFh2KJk/q6jh+nAQ0kDZom7oCVVER9iWhklTOo4qatMEk1MNdWQlOFDIIXdcR6R+Av7cHOj84ZuLqmJDBsRGINh8E04hL5owyIrEW7ILh5jijoG7OCgZAmPhdDYCQxVwXnCas+8s7YK9w4cT/2oPaTyxDyfZahBr7cPof9mHJU7fA5LZizxO/QTo0kbYc6sIACFkIe5IqBkCYX5EUSaAkmtZ5NMtP4x04wDGFsNjLYMv3gGFZxANR+Pq6obOEGpbAsClAHYDZkQQnyLPL+qjqcBbZjMRNc1umN/xTBkAwAMKcGASTy4wNf3sPPBvKEbsUhKXEQQGBEksj2hyEvSYf8kAKb3/m50gHk1MuFAMgzG0PMQDC/AIIqqzRYEmU7BvnbairHDjOBTXuRX5ZNeSkCh9hEJgUGDUEkz0KQVSGjRWznXHEOFG08LCTUMuGh2O2Yrup6hkAwQAIcwIIIgUId1PWgO5aZAcZ3ESIYRT5Y7x9ALsf+4UBEK7A7moAhPkFEIiGI5VQEAskx9oiDO9fJCcDD473ItojQAVxaYzBZJPAEFuEWRYyv3iOhbPQarg3zlJ2N1N1AyAYAGFOAIGzCljxrS2o+eRKcKaJeeM1SUXvnhYc+vYbkCOSwSDkeNcwAMI8Awhk/uhAbCCFZCRNVQmTeifrDFSJASMAHKMR+8TZl8GIzna3ke559sK7uZ4wAIIBEOYEEMjmZCtzYvnvb0H5PYvp5iWHk+AdZrAiB/+RLhz97i5EmkPTtm+oGOa2oRgAYR4CBBLqQNORjEhIRiVqxJhrK3HC/pGcDrZ8EwQzyQkxt/lpPHVzSMAACAZAmBtAIDbeIoe6x1dj6e9uQeSiHyf+dg/qPr8KxTsXovP18zj87begpqePd28AhLltJAZAmJ8AYWi2pBMy4qE0jX1AnRcu5yAn7shkPTMk7wIPW4HJUCvMbVnedE8ZAMEACHMGCJyZx9KnNmLRl9fBf6gTh//sTSz6wmosenwtet5rxqE/eQNybGr1AhG9ARDmtqcYAGF+AwQyawibICUVKGkNckqGIuvUXTMTHXX6QpgCmo2BZcCLHEQrR5Mykf8nf2cUQwJEAgZAMADCnAECbxOw+k+2o+rjyxBrC6H95bPwri+Hd1MVfPvbcPCPX0eaGFVNU642QMg1JZvr9rI9+HPd77XYDqd719lEUrwWY7+e+qSR6qgdIgEIg5kcZxrgEOUwGODMAAUzCWx+/p6JpKhCSUwOGnO5D90oe58RByHLtUA8GTb/4/3wbKigT+jq4O2FYxE604v933oV8bZwTgGCJEmTRlLMZqJmUyfLV6fVSHu5bjObkMxXot/ZvHeu6k4XgtUACLmSstGOIYG5S2A6gJDrnDA3yt5nAIQs55O90oXtz3yKRk0cX1K+GD74xksInug1AEKW8iTVslkkuV6YsxhezqtO9b7zESCQsOTEpkBRCNgeit1IQGjOxW40OJ8kQEPek9wfNJkoeIEBy2c3r6YCCFfikpJNzoYr0e9sp4IBELKQGEmyVLy5Aqu/ewdEh2nCE0pSxvG/2Y2ud1uhpaY2VJytisFgEAADIEyd7jmLqXvdVSEboyoBsbAOSbIgLTugqUOuw3Rbn3rMxJSApFyYfbT0604O19OAKCgjUStvCnA2khSHYXWIQgKiGIXVCYhmBsRjdqpiAISJkjEAwgwrlRVYFG6qQNGmSohO8+QZIXUdSkxC8EwvOt+8BFWaPP67ARDGCttgEDLymC8MgqYCiQgQCVmQ1tyALpJsDtOvQGJvIDFAggUrc2DTAkDyLxlUw+VjDAq0dEDUoZkUaKICWHVAGAwOcfk9XPMWGJpzRIXADsBmj8Cer0IQRgLdjR6gARAMgDBrI0Xi3lhx9yKUbq8Fw00PsQMnenHpFyehJidmkCOiNwCCARAm2zHnA0BQFR0DPh7xhAeKTtR0WVxXFYDp5yFEbRBlGzhWpMmmGGJ0mMXj1+x00jQImgRGU8FpKhhCeVyP4x1kYhSWhcroSHEMkkICSn4CeoGKCTm4rplAc9GxDgZpWEw+5LuTMFknBt8yAIIBEGYNEIjISBZHTuRnmKU6NIUkjDFUDNkuZ4NBmB8MgqYAQR+PWKwIGmOZGRyQgyvJgus1w5osgMCawRCFMo1gMHTSTpKoYYqJRzNfalrGyPZyDmqdxGFgB411JzbE6Bqs6TCKQm2o6T+HvHgAAhmxrg6OP9uVcXXqUT04GCgMi4TJhjZPHTryK+E3WxF3RqEVpQFz7vQ5oyWWu1Ynl9XoWTK6BgMFFrEPBYVxiJax39AACAZAGAMQiLsTCaNM9h4lIUNXMtOWtfBU0amlM9ZTRM3AWQToqg41JYMz8RQ00DJUDww0RYUma3QT4qw8OIGn/09CMasJBaLbjLXfvxeeBdmlezZsEAwbhB2eG9sGgbgkRgLAQLgEqm7P7uRLsOA7LbCpXnAQwLE6zGYWLKvToEbkoNc1jbo5piUNkpRxeZzs9FcUCZKUGjRaI7fGy0AIg0CD50WIonlMf4Ql8ITbsbZ1HxaF22HXJPA3hLFEBmgRIj7JCeiweHCsdA0uFtdjwBaCVpamKoi5Fg4MbIIZVn6Q/aFxJ0i6cB1JRUJMTkGhKcYvr5BoGALDwSFaIHI8WAoGGSiqCgKESD9JdTAiJ2RYxA54yxRw/Mh8MACCARCGAQLJqVC0tRplO2vBmwV0v9eEzl2XwNtE1H95LU26RNQFBAxUP9SAguXFUOIy2t88j/z6QnhWl9Lf0qEE/Me7YXbb4D/aib79nRR0LHlyA1x1HqgJGcHTveh6r4W24763Gk5vHlKpFM6cOQNVJbeLzCQVBAHLli1DMBjEU089BQMgGADhRgcIqbiO/t58yMTmgFrCTV90BeC6LHAkimDiBBQV2dDQUIpVqxYgP98BbpSVmSwr6O4O4OSpVpxp7EIkIg8ChSHsriOVitHDnGVnYgBnGtlQmxpSySgsVucwK0CYg+JgM269+CZqkgGIOTjwshtN7mupYOATHNhbvRWNxQ0IFwShlUjZfLoxgyEHdLG9AMvLFmBNbQMqPCXg2RF7E1XX0B8ZwKm2c/io9Rw6BnyQiJHKHIqZE1BfWIWVVXVYWrkALquDhMXK3N+gIy1LuNTTgY9aGnGmpwUDqRhYJoG8vG443ZnonKQYAMEACMMAwbXIjVv+4X5EmgKINgXg3VBJoyM6F3qw7q/uhJKQ8MHXX4S1xIE1f3E7ut9pgq3USet2vHURVQ8tgXtFMc7/+Cg0WUXd42vR+cYFXPzpcZjyLNj+9CeQ6o/h0s9OINkfg3dNGRZ/bQNiehJ2u90ACIab4/BqvFltEDQNCPk4RKKV0JHFAU0uqkEWtr5CWDgrViwvxf33bYDXm0e9WSaLw0Fuh4qioqmpGy++dAidXbHhmz1RLRCAYDY7chbDg/SXSkVhMtnADh54rrgPO869goZIO4QbgjWY/hQmToJdogtvL7oDF9wlSFSEAGeGGc2msGBQlVeEz2+7D4tKKsGx3JTfjqh+egf8ePnI+9jfehryLEGCXTDj9ob1uGPFLcizk+9Mep9YNF1HWkrjZNtF/OzD1+FPDsAk+uAtjUAgeiADIEz6aeetF0PRliqs+c5ONP38OFqeb4S9wolEVxRLvn4Lqh5ogBROof2VsxQMrPi9rTB7rQgc60b76+cRauyneRmKNlfh+P94D7xVxMo/3IYOAhCePQ5TvgW3/fiT4Mwcgsd70LHrIlL+BFb84TYw5SbYnI6sAIKiKDCZJrpVZrNIKXrO8WaVbaCkbOpl4wdM3iHXvsC5lkm232K670EBQunnEHBUj2lOYFSMZxAEzgy74EJKjUNgRWi6hrSagKopYEBo+EmyjWoqVHI1HyxDmyh5dqjwrEgP5bgSg5m3QNVVpJXEmPGQ54iRoKYp9GY28izVtFP/cx0aHRMpclpHX3ceJMU7s90BfYAB22xBnl6E2uoCfO6zt6GoqGC4nyEwQOhplmMg8COggxw0Zxrb8PNf7EU0SvrPjCeVisNstk96QNG8DrNkz8kY0ukoRDEDEDhNxrLWD7Gz/QM4tPSIvIaupVN1wHFgxMza1hUZkMn3GTUYEpiM5TJrePShOcOgGUEERBP0ZJwEGpnN9BxTV2YYHC1YjPcX343evAi0ynTWLEKF04uv7HgEtcUVYxgfVdUyjCkJec3zI9Ykuo6eUD9+9M4LONffDjKLsikcWOxYvAaf3nw3bGZi25IpZC4Q0EjmKM/x4LgR5oqoHD48f5yChLjig7eoB1ZHBlIQBqHjNaIOnsS+JEvVVC73PjKmXLp5z2Xvm7cAoWBFEW75X/eh7dWz6NrdhJItVfAd7sTq7+ykmRs1RUeyJ4oz//oBbJX5ZLvBgk+vgv9YF078771Y8KnlYwHCH21D55sXKWMgOE247elPIt4VxrkfHkaiNwpbuZOqKQofXYS8koKsAAJZTJcLELKdFNnWm2nhZrNAZmrjSv+eq3fN1TjTnAtHy2YGCBzDo967DsuLt0DTVKpnJZtgKOnDWd8R5FkKUe9dA5noWkmwGIaBibfgdN9BNPYfpLcrAi7c1lI6n/sT3YhJIUr9l9hrsMS7Did692KheyUGUn5cCp6ArKYpEBF5K1wmN2rzl+KC/xiiUhApNQEWHOo9a2E3uSCrMmLSAFpDjZDUNFIJwNdTBEV3ZieqCAtbtxcOwYGvPnE76usrxhzs/kAY7+05hL6+AMrKCvGxHZtgt1uH25YkBbvePopdb5+Fqk4PECwWAVarCaFQnOrDsy3jAYJZiuPu4z/Fsng32CEwwLLgi4uhyzJUvx8gOnGBh5ZKZRAJ+b26BrZPfg4wiUi//x7SH75P65PCmK3gi4vAV9VAi0chNzdDC4XAcCy40lJogQC0eAIMuTwQUCZJVN/OWq0Q12+CuG4jks//GlpkAFo0Cj01fQj4qd69V7Dj+WWfRKvbgVRlCDDPDDjI/f0Ta3biwfW3jTncyMF87MQ5HDl6BkVFbvrtnA7bmEP9eOs5fP+d3yIiZzder8WF37/3s6gpLB8DIts7erDng48QjcaxemUDNqxbCo4bAc6xVAL/8tovcKrvPBy2VhQU6zQ+wvWYiyHbeZltvdnuffMWIJDQyWv/39thr8qDHE1DjqTQ/V4zFj+xHud/dIRGTCy/YxF69rbAs6oUUiQFe2UetVU4+8MjqH10GQo3VuDk3++lDMLqP70Nyd4oAqd6Ee8Io/6rG2h2R/J82p8Ax3Oo+vhSqIU8HK7sGAQDIGQ77WdXb7aLZHatz752tgDBJrqwqfwulDkXgGcFBJM+CJyI/ng3Dne9jZq8JajzrgG5WclaGoQV4BgOjb5DOOc/jEXuNWgoXA8TZ0ZCjtHD/7TvAAUDG8rvRLlzAXoiLRRUBJN9tM4p34fIN3lRnb8EBZZClDhq0BG+gI7wJVwMHqcg5bbqj6PAWoy+aDvyrYVoCpzEqb4DCAc0BIMV0JAlC+bn4PCVYlFNEb76xJ1wuUYOECLVWCyB/sAAWlo7ceSjM3j4/h2oWzSWdbl4sRM/+I93kExmkjlNxiCwLIP6+lKsWF6JF186glRKGcO2EWDl9djgcGbARzKZhs8XhaIQw8gRBoFjWJQEL+HBxhfglWPDN2LGZIbjG9+C1u9D7NmnwVdUwbRhE9KH9kNpbQFjNkNsWAa+vgH8gjool84j8eJvoCeTYBwOWO99EMLKNWC9RVCaLoKRJcSf/yW0gTCcf/htJH75U0injsO0diM4rwepve9DT6Vg2rwFlvseAVNcAuXIQQoqUh+8D6WtFULtAujpNFUTMLwAub0VelEJ+NIygONo38qF82Dj0eEJHONMeLN2J46VLEakKgDGMTNAcAgW/O5dn8HSioVjFkKvL4Bf//Yt5OU5campDRvXr8Cdt98y5uAOx2P4ny/+CG3hvhk5BGJjsKyoCt+8/4swDzIxpEPyfUIDEUSicRw7eR5Nze34L098EnbbCJBUNQ17Go/g2Q9fAXABRVUaCPFmAISJe9e8BQhkEzB7LLCWOml8g3hvDFA0CHlmxNsGqAGipcSOdCgFwW6CKc9EPRRinWFIkTRMBRYINhHJ3hh9nrAOJGYCuSGQ30n2R9IG+TMBCklfHI4FBVj6/21DflWhwSDM/hzN2RM3KkAgN/lVJduxsngrZQ4IMIikg3CIefig7SWUOGpR415K51xSJqoCGwUQlwIn0Rm9hB3VH8d5/3HU5DfgRO8+LPaspr/va38VWyruQ57Fg3xLET1YE1IUspbC3taXkVaSWFmyDR5bMdyWMvTF2nAxcBxn+g+BZVjcs+hL0HQZ7zT/BitLtsBjKcHrF34CX5eCcLxqjP0BARQWwUz7SKsyvWUOWZoz/QLs/cXYunERPvPp2yAIE9UlyWQKr76+B/5QGJ/95D1wOsd6RvT0BvGDH+yCr5/cQom9wFgVg9UqoqysAAsXFGPhgkLs2XcefX0D8Pkiw0yCycTh0YfXYelSkneFoYaQP39uP0Kh5DiAwGBxx0Hc3/wOrNpIJlcCEJy/90dQfX2IP/tjMDYbHE9+HUpPJxLP/QzgeYgrV4OvrIJp621I73sfied/SRkEoa4eti99Fen334H5ttsR+9H3YLn3QWgBP5Jvvgbnt/4b4s89C/nEcXAlpbB/9XeQfOMVSIcPgfV6YP/ClykwSR89CDUU4qKkxAAAIABJREFUgtbfT+Vge/wrMG3aBs3Xi/T+vUi89zZMX/wKrA88CtZkguLzYeCv/hzM6ePDqgmZ4bCvaCXeXbgNAzXBYYDAcxwsvAmSKlPvB8JmkUOXlDK7G3/68BMocLjGrNdLTe344X/+FosXVuN04yUsWliFJx5/mBpmD5WUlMYPdz9PbREyDpgMRF6AwHFIK0S+DO2HqLCIx8K9y27Bo5vuGKNqGgIJPl8Az/32TSxZvAC33bqOqjRGl95gP/7qhe8jpZxFUZVkAIQpdtd5CxCG5UFdowkdOT3NSF2rZquwHCf02QZKMhiEnGGCMQ1d7nfM9aiyZRA4lsfWygcppU9UooGkD/3xLrhMBdg3CBCWFm6AWbBiIOmHVXRQRvtM3350EYBQ8wlcDJyiTMG+jpexuvhWsAyPQ11v4daqh+G2FiMuR4ZVFKouY0/rS1BUCZV5i1HqrEGFqw77219Dd7SF2ihwrIBbyu9BMOXDpeBJrC3ZQce2v/1N9HWpiCVGAAJZQ9XuEqyvXUJ1w4HIAPpjAzjZeZGCBBIUyeErxpZNdXjsM7eB58cChEQyhffeP4y+/gDuvXMbCgsLJtgW9PYG8b0fvAW/P0XX63iA4HJZUbeoGFXVXlRVunH4cDN6egbQ1Owbzg1Cxr9wYSEefmgdBUCvvX4MjWe7oaqElRhhEHiGQX3rPtzXtgcWbVRwNFGE/fNfAiOaoVw8D6W3B6zDDvMd9yH2/X+magehsgrWzz4OtrAY8R/8K6TTJ6jNAQEOlvsegtLdBYbnkXzzVVgfeBhKby9S774Fx5efhHy2EVoiDunsGVi2bgdfVYvo9/4JbIEHjt/9Q6g9ndCCQfAL65B69SWkPtwLcfVaOP/676D19SHy538ApasLWm0tnN/8Ewj1SxH/2X8i/YtnwSSIkWemkPgIH3iX4p1FOzBQkzFUJIBuaUktVlXV0UObHOqnOpvQ4u+mDEqpzY1vf/wryLeNVSsR1uB7//FrFBTkIZ2WqJrhiS8+AlEcCxD+453f4sOWMxQgEHCwo34tSgu8CEYjiKeTONJyFgPJKHiGxX3LNuPRW+6AwI09/IOhMF557X04nQ7s3L5+Aogk79Y3EMBf/ubfkFQaUVytGADBAAgedL3TPKdASbk6EAyAkCtJXl47NypAIGqFNSU7sKr0Nqp77ou1wxfrQEwKI5Dsg9dagobCDUjIEbSHL9KbvFVwojl0Gi0DZygIIKqARt9BygrUe9fiUOcu9MbbscK7GevLb0c4HURz8AxlIKrz67Gr+TnkmTxYW7YT/ng3lhVtQkyKoNG3H2d8hygTYOLN4FkzSh01WFq0CR+0vgRfvBPhAIPgQCV0XRz+YDaTGSbeRDd1qyAimIggkkpkwHc/B0d/KZbXV+D/+dLtsNlIrIGRcvzkObzx1ofYsX09Fi2spLTx6AOG1Gxt7cH3f7Ab0Rjxf59cxUAAQENDGVauqMLzLxxGOk3cI8fOKaKTzs+30NspUS8MmSmMVzFU9J/BQ+deQb4ySm/OshCXrYDt8a8BsoTEr34GqekirHfdi+SuN8DaHbA/+Q1ovj5wJSVIHz4Aaf8H0MIhMOSQ//o3qX1B6rWXwbvd4BY3IPaj70Pt7YbljntguvchaC1NiP3kabD5eRBXrEbi5edpGHihppaqGyCIcHzr20i/8xYSv/oprJ/+PMwPfYKyFOlf/wyJ116GLqWhlZaDKa8ETp0YAw6INJKsgF1V23C4fDkiVUEKEAjIs4sWCvBsJgs1QvRFgkjKGQPNApMVf3Df46gpGrELIH/f2+vH08++iIICF1RFQVVlKe6+Y8tY24BkAn/3yjO44O+gKgbCNuVZHRSk2UQLtXHpi4agkgiVDIv15Yvx5F2fgokYZg6BGkWh9gcnz1zEg/fcioJ8FwUKRK00VAgDQewd/u3tX0LTz6GoSqVGr4aKYeK+ajAIl3fWzOppAyDMSlxXrPKNChBEzoTKvHosKlhJadaEHIVZsEFSUmgbOAeX2YPF7lXwJ3vorV/gTFRlcL7/KM74D8LMWSGw5O8KUWgvR2e4Cb2xNthFJ5Z4N2AgFaAsgsPkAvFTJyqN3c3PUZZhRdFmCjaIQaQv3kHtFDrCF6FoEmURFuavgNtWgvaB8+iKNtHDORkFfH1TB0gaz8oxAxxsPUXwOJ148mt3oLKiaAxD0NzSgZOnL9JDxWwWsXxpHYqLSHyFTCGM2wcfnsHzzx+ForLTejHk5VlRUGBHW5sfxLp+sjKZI8J4I0VHMoB7j/8Ci5L9YEdpzhmzBeKadbRZ6dgR6Kk0GFGkB7TYsJTaH6T3vQdh8RII9UugKwrSe9+D0nwJbIEb5Hl+4SJw3iJIRw5AbmsFVA2s20PZALWnC/K5s7R9wjQQ+wLGbILpllvBV1ZSNYEWj0Pav48CD9P226FFwmBtdjAOJ1JvvQYtGskEjiJoSJ0Yg8DPW/HikodxyetFoiIIWCfKafw3JLEOPr/xbtyx8pYx306WZRw9dhYtrV1wOGzYtGEF3AWu4TpErpd62vH3r/8UA1J8wucYMn4evXbLbW78wYNfRFGeZ8wcOHX6IlrbuyEIPDVi3bhuOczmETsYwnr857svYl/zcZjNTfCWEWbEAAiTroEnv/Pv2ZvwXrEtO/cNkwhqD22rx6kjh7AoXoyymMEgTCflXB2ahhfD7OdytioGehiAAc+J9MZNvBLMvJWChZQcBccJ4BkB6ii6m+QvIIe4pKamHBgxZCTui4quUFDBgaPuigzDIaXEaF/kd1KP1CGH//hCDCLJOLRR7pRyCujtckPWRlwVp5WODAhNdjhRiBXLS/DYYztgt424r80kWb8/jH/655cQGiCH3cxujjO1N9nv4wECr6ax8cJb2Np7HKZR7z5t2xR5EB/LjBwJcCAUBgEJs/a7nKQjZtBiX5/k0M/2nUkshEZnOd5seBBdBRLUygRmyqs11HaduxzfuPsxuJ15Y7ojsiMgjqgpxrvvJdIpfP/NX+FI93mQmAXZFIFh8an1d+CeNVspy5BNIWM4034J/7771xiQ+uD2dMPuImvJAAgGQDBUDFOuIQMgZLO9XJk6swEIV2YEV6ZVTdUR6DUhmiB08wxZG8kQSCyePh72UBGlr7ffWo+dO1bCbrdMG+iIGK75+yN4/oUPcKaxb7ivqxUoyRPuwB3nXkFtvI9Cqxu9kDfwCzbsrroVp0sXI1oSBArUrAMliSyPDVUNeHD9Dmo/MN3hTfadWCqJN47vw5un9yNBjRGzL16LE4+u34mNi1aM8WaYrAVZVdDU24HfHtyNRl8rBM6HwtIQBFNG/WCoGCZKzVAxZD8XL7umoWK4bBHmpIFcgaGcDIame84uDkKu+rua7cTD5PAugqoTq/YsQvHJDMRWO2xKIUSeRU1N3nA0RUIZZwJnZdzZqBFiWqZRFF966QCCIcIcjNwkR2wQbDlLlpQxfIzCbCZtZkAPqytY1PkRtrXuRbEcHaNquJqyzlVfYdaEgyWrcLhmCwL2CNTKFMDPDvgQtqk2vxiPbvgYqgqLYRZMmfwIo0MgKzJ8AwG8eOgdnOpugYSpE91N9W6kRRMr4ra6Vbhz1RY4LFZqH5GZaZk4IVQdl0rhVNtFvHzsffQmBgA9jTxHO/KKRkItGwBhngKEhfEiFIXz0PVe8xCrl6u1NKt2CEDY/OOH4V1YkpWb49WKpJjtgXkjqA+y+SDZvm829YhMpgoDnM1YSJ0kSyIpPoaAfeZIitm2eb3UIyxCqI9DNF4GDWONDqccY4SFqdMFK1MAjmVooiZ3gR1OpzljlEjZeR2SrMDfH8NAOAFZnjxZkywnoZAARDR3T3Y09HSyo6odAGYLca8cATy8KqGm9yTWdB1FZaIfoq6Ay5Iqvx6+FVF2KODgEx04Wbwcp0tXwWdTIFdEAevswMHQ+5CgSSRRU4HNiUJHAURBoMaF5MBWNBWB6AB6I0EklDS1ebmcIrAc7IIFpXmeYcNGgiRVVaEGlL3hAMLJOJJqGjpUmPk+eEpiEM0j33A6gDBf976bnkE4eeQQvF1m9JzqRGtTy5gQsZczIefyrMVhxR/89ruoqKvOGiCIRD85rmRzcM1lfDM9k+tFcq3eY6b3HPo9m/ERg7nLlUuKdeLwTQoQiCyJgXuw14yEVAydJkCeoeiAHmEhdjlgZdzgGeLGRhiDkWSMQ2fvzLInmQO1jG4/y3C5Mw1vJOXz2JqsrsKR8KO+/RBqIp0oSofBq4O34lFJpmZq/6r9TmRC7EZYDkHBhnZbEc6Vr0W3swRhIQy1PAHYiNyu2oiuQkc6BDYAT5EfFhs35t2uJkDIZm+5CsKYsouh8d30AOH86RPY/bPXMdAfor7WY+KdX+UvYHfY8S+/+QEW1i00AMIVyBWR68850yLOBXtAxnyzAwTyjumEjoGAGclU4WBkxRlOHXJpjbNggyaYYg6YGCsxzxymjnP9rXPVHiG1SX4GayoMZ9wPgbo/Evri8tmLXI1xuB0KEFSonIiYJQ8hax4SrIS0Kw7NIwHmuTEHOR9njhpkoIBnA8h3D8DmIqqqsXPQAAgjgp43AMFpFREOhy87yFEu5ii5ba5evRoej8cACAZAGJ5S8wEgkJdVJB0DfgaJpBeq5iBH6YzLijDPTIIFE+CAOEddL6GR5zK2CEaZuwToIUDUNYxKPV10p0KNEXXLiF5+7q1fT09qYJGGRfQhz5uGaMkkgRtfDIAwDwFCnt2MRGJsVrprNXVpFLKlS+F2uw2AYACEeQcQyAuTxEjpOBCPiUglTFB126BtwtQ3bHqOaeQky3g6QDWQQU73MF6Hzg5qYJibQKWgE8aGgAIJHJOAIKZhtSdhsengxannjgEQ5iFAaL7QiF++8PPL1hPnYkHabDb8w9/+E2prFxgAwQAI8xIgDL00MTIkGj9inyAlARoCgBz+oyLe5WLNGW3MMwnQeBIaeBNDsl7DZGVolMRJsqAbDMI0U2PeqBhOfHQAaVcIVYvLafzua1lIgJvti+9DobvYAAgGQJjXAGH45Yka/FouSqPvm1ACZEYNOjrOgmwyGIR5yCCc+Ogg+FIJYqGC051HLtsWgQT9oL7Y1Ns5k1KW+mQT+2xehF10IKmkkJokXKhFsOFbH/sfqCiuMQCCARAMgEAkMAQQDJRwEx7U1+aVqEpq8C5I8UGWIMEACPMUIAilEjhPCkfaPpg0TGw205gFC4clD/UlK1Fb1IA8awHScgqdwVY0dh5FT6QdS0rX4IE1n8Ox1g/xxqlfT+jLKtjx7Xv+CZXFtQZAMADCvAUIZAMn8RFScZ2qF4jro6pzmUiKowIdZbMujTqGBEZLIJMmWqG5FRhGAS9qMNsY8CR8xgzqKwMgGABhTgBB4EQsKl6Gh9d+EQuKGiDymcQfBJiSgB994Q48f/gZWEUbHt/+Tew5+zqe3vN3NCDI6GIAhLGb2UxuhNd665tpfIab4+y/kCIDySiDeFhEWs2HppPgSUOqvymuehl3fTAkYaCS5XVw9kObv08QkRJDRXHw5n3Di3iIjiJUggyRCVEjRZtThWCe2vvFAAgGQJg1QOBYDisqNuHzW/4rvM4SNPnO4ljLfgRifbCabFhStgYrKjdAViX0R7pRU1iPd8+8clMChGx20JkD12TTyo0DJDKhf2feUaerMy/cHHUSC0HDQMCGlESAgQX6TGwB2edJhMQgBy4hQJRtYDUh49Fwbc2JsprEDI26SC4JIzrxrB68WpUGc1hrLANVUJDmE9DsEpCnAcLNpPMhycYk8FwYLlcYtrxMAsvx5XoMtTzTJeVKT5WbPlASsUGYq4qBWBqU59fgqTu/g7L8ahxueh+/PvQj9Me6oagk850Ilzkf2+rvxv1rHoPN5KDhXN86+VsDIORw5l7rRTLdq2QDDijbNA2QuNkBAlEppGI6Av12SGohua7OPDsIYxDmwPZZYdVc4Blz1hn7Jm/86hzSjK7BLMdgj4fgkKKwpiLgdRLq+TpENDrN2YmkaEfU7EDM5MCAKCJmTkAtTgJ2qvO5iYoOng3D5fTD4dYngAQDIEz81AZAmGb6cyyPR9d+CQ+s/RwON+/BL/b/O/yx3sH0tyxWV23BbUvug5k3o9pbB4c1j6bjNQBCbvcUAyCcAZfFmZpbqeeuNSmpo7/XhbTiHZNMacoeyLnk42EeKIBFdw4yNJkbLU34w5BUzplkTZkTbOpTjNSR5RQURZ6QYngub0himQiCedK8DiT1c6XvLOp8Z1AV6YZJVyFqCtjrOCcD4ThkloPEsOi3uHHWswgXSlciZJKR9kSgu7PP4jgtkB60LtGpgTcxN8lYpxKbgVwWOhtoHySmZSapFykj/ZBQyxG48n1w5I+Nvm0ABAMgzErFQNiB/3rnX6C2sB7/9+2/xjFq5Di4UbEcdtY/gE9segJEDZEpNM0c3jnzMp47+L2bzgYhm4Wc7Y06m7aG6hgA4cYFCKoM+HtFJFKlWedhQICHxVcAC+sAz7HwuC3wem30xmc2m+gBoKoqJEmGrADd3RFEoxI0onoYVyQpSXMxCIIIcjhdTiExhFRVhqpIMFuGgEumRbMUQ0P7QWzo/ghuJQGeqhZurEJGHGNNOJVfg8O1t6HHISBVGgacJET97IvAcMi3OlBVUAwzL8LEC2BZju7BsqJA1mR0DfjREwkircmz72B412Vg4UVU5HnhtuXRfniaI4WFrEg0xH5USqEt1INwKgFNVyBy/fAUhakB41AxAIIBEGYFEAodZfjWvX8Nk2DF37/2p2gPNg1LkEyrfKsHRa6KwTSmmZ8IfAhE++CLdk9Axze6kWI2K9gACJNLaV6qGHQgEtQRDJVD063ZTB8wKQZCqws23Q2blcPHbl+KZcuq4fXkTWrroSgqOrv6sX//ORw73jGY1XFwLeoakskILGYnmBwlSyKHWzIRpgCBHHakEOZgWcse3Np9BC4ldcOz8imGx0f5tdi3+B70WpNQahNgZmmTIILH9rpVuHXpOpQWFELgMuGxRxdixO2PhHD40mnsOn0IoXR01nwCyRhZ4nDj/tVbsaxyEZwW+yTzREdSktDq68KrH+1BY28rVEhw2DpRUCTRQEqkGADBAAizAgjFjnJ8876/obYG/+e1b6Mz1JzVJjdVJQMgzE18BoMwlkGgaYtH0da5oWkz1G/GTSxDz15uCCNV0eHvsSGRKpnZIJF0R1QLnSIcsWLYTDweeWQjNm1sAM/PnLMhGo3j9TeOYP/+ZihqRt9PDvNUKgazmdgGXR57MDRzyVxMp6IQTYTRIOPSUdZ/Hveefw3FUvg6AQeZL3k5JcqKeK98E45UrcWANwgUKVnbI5hZAXcs2YAH1++AzWyZcRhpWcKhi6fw3MFdCKaiM9YfqkDmaU1+ET6/9X4sLKmkrMF0hXy7UCyCZ/e+gsPtZ8EyQRSW9sNkMQDCVHIzbBCmmVF5Fje+cdd3UeGuxb+89Zc41X4IOuEZ51gMgDA3wRkAYQQgWAUXimzliKQDMPM2qJqCqBxCWk2CAweBM49hrsgmKqkp+s9Q4VgBxMJe0Ueym5K27IILESmIPLOH/hZLB6l3DikEJJNC/jwWkDAw8RZK52qaSulbRSMpjnVIKR19XV7IWn52Hz7NQGxxwcm6sXP7Ytxzz3qYTBPTnRPVApkT438LBCJ45ie70dJKkrMROwUCEOIwmyfeKjOmDAzNDTGbQgFCOgpRzAAEQUnh1sbnsSFwEQKVZ6YQxoK2TFJNTygMGFEA68rL6MnjcehJEhBiVF0SkI2ketc06DKh3zPjpO3SLIyTj5ux2cE6HFD9foD4lM6xkJG02Irw8tKH0ZEPyFUx0KzbWZQNlQ34ys5HYLfYhmuTMadSaUiSAo5nYbVYaKyCoZKQ0vjN/rew6+whKOPcw6fq0swJ+MLmeylLwY0yAiWiSadJXzIFlxYLsRkZ6YswCf9316/QE+1AXn4nnAWZ5FQGgzDJTH3oy78zuN5HJekYmntDYahGGwAP/f+o+UlvHUMfYNgoZHChDN5L6BcYM6dH/2Ecuh8DgMcMZlDNP7hYMkuG/jtz8xlxKCJ6pyc+/gDOnDoxZy8GgRPw6Y1P4q6Vn6CxDX518IcIJ4MTVAckumImquL0m40BELLYXSapMpNc59Zqbp7K9maaCxWDyJmxqvhW1HnXgGM4SGqapi7oj/fgVO8HKLJXo75wLRRVosCB2MaYeStO9R3Ayb59sAoOlDkWwGMl9gAa+uKd6AxfAM/wWFG8DW5rMfrjXVjoXoGEHENXpBnHe98H6Xdl0TZIahKnfQeg6gptX9NV8KyA1cXbkW8tpMAgJcdxxncA4VQQ8Qjg7y+FmqV6gbgzOnpLUFjgxO88eRdKSz0TPlI8nsBrb30AQi0/eP9tEISRU4sc9seOXcJPf/4hyJk6HUBwu+0oLHTi4sVeKMrEQ5zj2OEDjMw/VSURUzNGbyMAgUVerB/3n3oONcnAMO8Cnodp/UZ68EunToKx28G5XFD7+qDLEvWx46uqYb3vYbBuD9L79yH13tvQpcxvXGk5xGXLwVdWQ4uEIZ8/B+nMKQoOzJu3QDpzGqqvD5yXeIToGTDAMODLK2Defjv4VWuRfv1laPEYlKZLUPt6AcLCDO5PZC7qJBEGz4Mh1q/UalDPjG0UoAnxFrxY/xAueIsRrwwAtpntKkSGw5e3PYhtS9aOOZSTyTQOHD6J1rYuJBIp3LnzFixcWDlch+ycPYF+/M+Xn0Z/Mjzj4iTAt9pVhD988HHk251j6vf3B/Hm2x9SO4fqylJs2bwaoiAM15EUGT/f+yrePn8YZv4SvBU6zdVgAIRJAMKKLZVjjrXJiLhpjvKpPXwz9nq0sOS/Y1lRivDpsTp1bJRhum4cRMi0S24A495n9Dh1TcN3vvW3uHC+ac4AgUzCBd4GyiK4bG7sOfc6nj/8YwwkA3SjIP2LvBk1njqklBQ6Ak1QR90ixovbAAgzrvtJKxgAIcMg2EQXNpXfjdr8pXRjDSb7IPBmRFJB7Gl9EVWuxVhevAUW3gJFk8ExPGRNwomevbgQPIZ1pR+D114OTVMQSvrhNLkoCLgUPInt1Y+i0F6GuBSBiTdTm/PDXbtxMXCCAob1pTuRUGKUiWAYDi2B0zjTf4iCkI8t+AwcYh6Od+9BTcESxOUoPmx7DUGfhlC4MjvjRPLl+3k4fCVYu7IKX/j8TlgsmYBkQ0WWFezZdxRv7d6P/DwnvvmNz09gEdrbffjBf7yNgQHCMkxkEIjcOI7BkoYyrFxZjedfOIRkUqYAYKgIAocN62tQVemlm0zAH8W+D88jHs8wF0MAgWMYVPeexIMXXodrFEPDmM1w/t4f00M89swPIVTVwnL/g0h/sBfpjw6DtTtg2XEH+KXLwFVUQW48hfjTP6AHOusthP2zj4OxWsEWFkM68AGERYuRfOMVKK3NcP7xdxD/+TOQTx6H6ZYtEJYsQ+LF30ILBmBatx6Whz4J5Lkg73kXSmsLpHON0BMJmDdvhZZIZCz8RRGpI4fAbr8dlk1bwIoilFAAsed+CratdZjJSDM8dlfcgv2VaxGuCYBxzAwQPGYn/vjBL6HcXTTm2xFD0WQyBV9/CK++uQerltdj86aVYzxL4qkk/vmNn+FUT8uM3g0cWGytXY4v7XwEplGHvyzL2LX7AC61dOD+u7ehoCAPLudYBol8w3NdLfjHN56FrJ5FUbVqAIQptmZm5daKSa+9o0mDrLd1yhIMMhGDMdaHD/HZqsUG69NxZPnsaCBBbhN//s3LAwjkvXlOwKYFO/HpTV+D3eLCyfZDONl2EJHkAI2cuKBoCdbWbIE/1od/e/uv0RvunFL/lyuAkM33uFaHarY36mzeYajObN7lSvQ/m7FOVTcXDAK5rZNDfnnRLfTg6k/0wB/vRr7Zgw/aX0Gpo5Ye5izDISnHKHvAMjzO+z9CV/QSdtZ8Eid796PeuwYHOt/A0sKNsPA27O94A2tKb6PAI5DsAwkrTkDCBf9xnA8cBc8IuH3Bp0Hcfo92vUuZgw3ld+D1iz9BUo7i7kVfpP/d0/YSVpfcigJLEd66+FP0dmmIxqugY0Q3bBFNqMgvopblgXgYHMdhIB6Bputg/QIcvmLcunkxPvWpW+lvo8u58y144ZV3IRPqmOPwu1//HGzWsTpuny+EH/zwbfT2xukhM17F4HJZ0VBfiqrqQlSU5+Ojj1rR0RlAU5OPejvQNc8zuH3nUty+cxm9iRw52oRXXj2GRGIiQKhv348HWt6DWcuoYkhhTGY4vv5Nemgnfv0cvb3bPvEZgOMQ/8nTVGXA1y6EuGo1xA2bkXzleaT3vAtd1SAuWwHrpx5Det8emDZvQ+xH34P1gUegx2OIv/oiXL/3R0i88CvIjY1gbFbYH/8K5MbTSO56A2xePhxP/R60cBhK04UM+3DqJLTwACwf/xSsn/oCtN5uJJ57BqnDh8DdeS+cT/0+eLcHqSMHEf6b74LtIAAhs5MqDIsPCpfjnUW3IVwThD4IEPKsDpTleRFOEsCoIJFOIpZOUtuVcocH3370CbisjglLIRyO4Z33DyIWT+LB+7bD5RxbJyVLeOb9F7Hn4gnqBkmY2RKXG3k2O3yREB1WLJVASpFAPCQeXr0d96/bDmGUDzBRYzz9kxfQ3eNHUVEBCj0FuOfOrXA4RtQdZGDEOPIvf/NviMlnUVyVpgAh2iOj4zUVSnxuK/5K7T3Z7n9Xov8xAGG8JmF0BLDR9D0R32QAYszfjT7UpzrgJ/n7SYHJDABhrGFVhlkg6WT/LAcAgbwrCa28quIWfHzjl1GcV04nrqzK4FmeIvJAzIfXj/0Sey+8gYQUm3J2zRYgEFcuk2nsLSrbqUsmFdnwZppc2UYCzLbfa1XvRniPqb4FCZR0pOyzCNirx4hPYFTs8Pwaa5ZkGATCCGytehCLvWvoZhy+9lOWAAAgAElEQVRK9lNbBKI62NP6Aort1WjwroWJt6Iv1gGHqQDkpnXWf4QChB01H0dvtIMCh6M9u7G65DYoqowTffuwueI+VObV4VLwFKXv7aILLaGz6I42Y7F7NVVrHOt5D42+Q7CL+f8/e+8BLklxngu/3ZPjyXlP2JwTm9lliUsUQQghCxRspXuFbcmW5CzJ/v3f/9qy7rV85SvLliwLY0VASALBktMmlk2wmWXDyTlO7unu6V9f9fTkOdNzzpyzZ6HreXiAOdVV1dVV9b31hffDrYsfxDPnHoE/OorlVZswLoxgNNKPjQ03wCeM4XjfPgwPxDDhJ4CgmgGIw2Bl00KsmrcAFS4vu+Ef77qANy+ehEgq72FVg7Bt4yI88NFrYbUm1cK0F3Y/twf7Dh5HVIgykPCxBz6AjVetTLuF9vaO4Pv//gKGRyJs7WcCBKvVjPIyB5YsacSK5Y149vnjmJgIw+cLp+0Vt9uK63Yug81mwfMvnkQgIGSZGEiDsKj3MO5890W4Y8QDHS8WC1z33MdMBaS2F0+fgjzQB9fHPgX/d76F2NAgrGvWwfXpzwNWK4Lf/xcIB/cxEwJpBJz3fRSKIEC6eB7CkUNw3nEXxDOnEDm4H+4HPwklEADndCH87NOsvm3L1fD9498xk4Prk59G9OB+SH19cN3/IIS9ryH0m1/BsnIVvN/8v1AG+uH7qy9D6umG4nTCeu9HYN+xE/7v/BOU0yfA0XeIF5Ez4bXGDXh9wTZMtI0CnhgDZhtalmFxfQtT7YuyhFdPH8bZ/g72VP1vc9T8xT2fQk1Zut+JEBXx3PN70ds/hHvvvgk1NZVZGuBwNILvvfA43uw8y8Cd3WrD7WuuRqW7DE6LHcP+cew+vg9jIT/LzHvz8s24f/utsFKihXihfn756xfR1T2Aa6/ZyMwat+3agUULm5PmDEVB53A/vvHUfyAinUZ9q5gACN0EEEKlcWidzbOQ+DlmonBrdjTn0/In+4vPl6YcKMlAMoV+LhDAfktChkzwkFO7EG+nVBoE7V3p9lTjrsfa1i1orV4Mp9WNoODHwEQPzvQcQ/vwu5Bi5MCVv8wmQKBR0KF6OQBCoT61GSol4p2pDVKStR5vhL5HriKYynCk6UGMeCYHCFaTDesbrsea+h1MDTwY7MFQsIv5C0xERlBhr8XK+q3wC6MYCvYyZ0MyS7wzdARnR45iVe0WlNmrMR4ehsvqgdXkYEKfAC9pJqpdDTg/8jYzL9gsDmZeGAh0oNxeizX12yFIQQhSBJWOeoREPw71vMCcI8mBsdbZjNby5XBaPTjY9Rwbg3+cw8hIE6NVTshOk5mZJUw8D5vJgpAYAd0cWRk2MYDQ1lSNz332ZlRVlaVNlyBEQQLghRcP4GJ7Nz7/2fvhdifDJ+moOPtOJ/7jh68iElEzreZzUly4sA7LlzXh+ReOM8e5XIU0CbRGyUdBM5emmRh4HjXjHbjz5BNoTI1g4FQfA9fHfg+QJIQe/ymknh5Y165D9ORxWBYsguuBT0B4Yz8sy1cgFvBDOv8uxFPHEQsG4bzrXmZikPv7YJnXzH4L/fIxyOPjsG3eCsfd90E+dxbBJx4F53CwvoSjh8GZzbBv2QbO4wUhStsNNyPCtBMvw/WJz8C8ZClgtkI6cxLBHz2MWMCHmM0OxW4HH/CngQOaD5/JhqcX34qT9fMRIB8EN/EucuzGTvuNvh/92x8Jspw0VJwmGx668UO4auHKtCntHxjGj3/+DKory7FwwTzMm1eP1uaGND8FijD4u1//AD2+YfUCynGMP4GOdJvFCjkWg18IqUR14LCsuhl/fNcn4LIl1xddio6feBfPvrAXSxa3YsIXwAfvuhHlZUltBWmvnj22B7848jJ4/hzqWsjEwDENQikAgp7zr5Rn30xejnKaGBL+hBnSLp/WgFZCFubSfpjcby//+Zvj+YQJIe5/kGg600mBOQ8r+OofTd/EkDlA8tamA87CWSAqIvPcpgWhJ9TMAAjps1nKTfJ+AAjkmOi2VaCtfDnkmMz8XRZXr0UkGsBb/XuZar+1bDEGg93MDECgttrVjI6x0zg3+hY7VGn92i0uOMxu+IVxJvQpCqHW3Ypm7yKcGNwPK2/HPO8i9rFODu5nh3WzZxFb7wQIKH49SM/KYVaHzBhN3oXMtDEU7EZI9LHfhTAw0FMLSUkX9Hk3fZCHvbMS5dYKfPQj23DVVYtBzoKZhVTVEUFALd1CU7zTwxEBv/jFXhw63IlYjLz98wMEq9UE0iYEg9GCIDq1/8woBpsYwC3Hfoo1gR7mU5UoBIKqq9kvsZFhQuuqrVRRYKqqBldeAbmnC3xlFQMMZHaQzp2FPD4GjmzqJHyrKsHZHcwsEAuomknOZgNfVYNYOAhlfDypyiUEYzLD3NAEvqaa9Rfz+yD39wNiFKaGJsSECGubTCByd6fqFDlJ6bOW44lV96Kj2oFIywQ4a+HDnNbYbSu24iM7boU5RfVPEQXDw2Ns3ZKmxON2wesh3wB1AAQwXj3xJn7yxnOI6CRNKrM48Pu7PoJVrYvT3oL66uruR1QU2RqprCjLAiL/8uzPcGboPLyeDlTUxlimRwMgZC+GbICQT7Cn/p5pPqB2C6+djN7z2A1SbRkpbZJTI0chhqlIJJf3ZPy3UpoYJt1Fef5I9mI6oEVZSDAqGgDBAAi5loteDYL2LAlk2nB0myMfGRJa5IxImgAS0gQOknVNDMRS5MFkhZ7VnBqpHq1f0iSITHXOsbbVSJ3cjmrUb+bfpaiCwd4yRETyttehtpUBvt0Gb7QBNZUOfOxj12PRwkZdHAbkwHjwzbN48snDCEfUviYDCFPZ02qb6TwIPIG0nqO4+eKLqJCSoaSTt6/dcNTDiiNfC7pksJDLog/SrK4KhULqefcoZ8KB2lXYs/h6DFdMQJkX1fUJqe0Kmxsf3347NixcAUuK+j9fvwQ4L/Z34wev/gqd4wO6Z4DAyMbmZfj4tR9gZohUsMgubQoFhaSvu3BUwHPH9uLJt/ZAUoZRUz8Ih1sdmQEQ8gCEXHI2e9WxpRz/WX0iNfwh7TNozopptdX/YfUysEEOBUBa9+zvZAjJ4CCY7MiZqomBFpnD5IDFbIPZbEdYCDB16mSFDmpS/1rMasw2+SZsXng9ljasxtPHfob24XOIIQYDIKTPoqFBUOejWICg54CfC3XofBgfUDDub4OCbD6DnGMMcLB3VMFlKkdjgwsPfPQ6NDZWpoUzZj4XDEXw1rF38eunDiMcplMhCRBCoQk4nSQ8SmOjJcETDo3D7vCA51XfCofgw7Zzz2HT8BmWf+FKLzI4nHPV4aVld6DDY0V0fgBwFI5g0N6bzsMqmwv3b70FGxetZL4E+QqFHBI4eOS1J9HhG9KliU1tywQOK+ra8LFr7mCMjZmOrVpd+m7+cBDPvbUPL55+EwExDKetB9WNIZjM6noxAEL2V2I+CKk/pwv6uDRPOB/kkew5hH5WV5M4GuZ0TCxyl2XibgIIX5uCk6KFt+LGlXdjSeMqtFYtwe63H8XLZ36d8HDONSyHxYUdS27Bwvpl7NZltdixpH4lAhE/fnHwhzjSvofd4AyAYACEXOvnvQoQ6F2JLGmozw1BqtedqInvt8E1XgMrb4PTacKa1S1oqC+H3W6FxUqOwaoJUZZkTEwEcal9CBcuDkFgfoIpJxg5KQpBmM1WmJi6W4cWo8C5QyGighCEw5G8sRLvZLm/D5suvY7VYxfglMUkJ0KR59jlrE5nKDkmXnTV4UDrDlysboS/ZhxKtVh0em2aabfFjpWNC7GkoQVumxNmsxnk2EkRCvT9SGD3jg3iWOc5jIR8agKnKRQiSWr0VmFD6zJUeyoYeyNL18QRsZek5mIIh3C86xzODXYhSgm0uAlUVfXDXc4nloUBEPIAhEyrQqFtlEaMFG8zvzZBq6AzK3qqiSH+aNr44uGTaUdBDrPDVE0MNpMdd238BFqrF2Bx3Sr88tB/4sWTv4TCxWDmrMw5kUskZyKlhsLY5YhVzcrY5jisbt2Muzd8HC+e/BWee/sxCDKdXIoBEDLWn6FBUCfkvQwQ6FwI+2IYHqqDpJTrO/5JHnXa4YrUMEdKZk7hSF1MoW/qzld9fsiBULte5D61yLwSDvshSUIid4K+QeSuRfucqJtVwJFaFLjCY1h96XWsGr2EKjHAmBXT/BKm0/EMPku6AZnjEeTtOONpwNGF16HfVQ5/2SiUJiJvml7nJMDpH6bbiZuqGMHTb7lqZGWqsCB7TDRM8g8jc5i6GgiMxJiqW4oRNZiqBeERgcfdw3wPUo5yQ4OQ4zPn5kHI54eQ2sAkKCIXoeCkoEMjOsgEkCkPMdxQyBaS6rMwxTBHuuV/6rqvsCNoZfMm7H7rUYSifoSjIUyERrFz2W2wW1NiapUY3u44iL3vPIuIHIHb5sWDVz+EBfUr8H+f+3/QlZLgydAgpK9AAyC89wECvSG7LY7wmJggCmdyWCx0BaGrLMAP2mCd8MLOeRhzpK7nchxyqlf51G6nOe5Uk/hEKLBIUVT7ulHt60NtaBDeiA+mmASFmTh0vPf0ZHGRT1N0BoeQzYVBZw2GXVXoL5uHcbsCocKPGGkOdNIrF9nxZapO0Q8ROJ2DqKwVYLakfw9Dg5BjtWtESYx+M0OyTyKv496n2Qte8+ZXHW7UkhAE+YBHPEc41WWOTilpW5ljYqKhjBfIGGCqqWKqGoTmyoX48h1/j0MXXsOOJbtwfuAMWmsWMaDw6unfME6ETHumIIYhyBF4bOXYtfqD2LH0Fjz+xg/wxsWXGaOdVgyAYACEXCfje1mDoL0v7cfAuILxUQIJlIOgcAImduEL8eD6LLBHvbByLkbixM6YEvkUzIykUsApMQYMTOS1XzJwUvrRMnU/TJBMPMIIIeoIQKkXAUeGQ3jpu57lFmMwcSG4HP2oqIsl/A5SB2EAhBwAIcGDkKGmz8LbRC2c8DDMaCgTJ+QF63HnIS3xSKa8TwAU1X6UWrLBSg7PhRQAMhWAYI+bF1Y0rcMvDz2C3935RaaWPHD+FTx3/HGMBYdyLmoCQPPK5+POqx5ElacGe84+hzfOvwxBCqcdDZcDIOjZhRqAm+xGrye2NyEMCuSkyAKOegZZoM5cD3PUiKverwCB3puICiNBBUGfDZGwF5JCmjhzPIvKJB9Y5qBEOHBBnnThzFeZwtKMMr0Z0HJLMMWGWVFzLdgoXLJU2pbpjW+6T6vAjMxSIdgsfri8QTg9Sk5wQH1pAEEOp9tUijn7qB099UupPZ1RHgQGEAoK+FwLJuOhAmaJgi1ovgcpq2IyDUbW4on3r34cNUtbsU6KlA2vxtvA7FhD/n40lrcgIkYwGhpEVEphSsuxcp0WF2rL5jEzhC88wmxrmaVYgCBJ0pSZFPUuVKqnd4FpVLTT3bjFPq93w5Vy0+npsxigo4Zd5T543w8ahNRvHpMViBEFgYkYooIdMcWJmKIzyqHYxWPUf9/NAIW3mvgYeC4MkykCV5kCu4vLCwy0CSKA0LNbgcwiYdLLXD77aKSlvCClnlNZPghZsaT5LGcFQUXqgwnpnb1YWUiwpllgYi3dXBhHL5mHa877Q8qPym8PoalQLSfHosaZ6yFAYkJWlbSTosepAAQrpXydwaIXHGiAoxjBWaph69mcpQQH2rj1vGsp+n2/AYTE/Kr+Y5BlMivmzWBcqmVktPM+mQHat5SQixwQGQ8CS+1d+OUZQHhWgZyDankygF+45anX0HP2aZe8qfeS/aR29qUBhMzDTmUITC865jn5QIrwV0V/hvBPbTrTpJDjspXVt6Z1SGVWjFsemIlhBpgUp/MRDIAwtdnTs0lKIagzR2cAhKl9L+MpYwauxBkwAELyqyUAAqV7Zj9nkBCxn/J85Vy3anYTzXiCMrRl5nPOYkNUkQPzplXHEe+U7IyZY8phhkgMMWOwpMYsRTbHUi50AyBMbTYNgKAma5rpQqBaFGSV0a+om8BMj+wKa18BLHYT+Bw00VfYm7yvhmsAhHwAIQc4YLI61yFRyH+loLNjfuRRTHeFzq+pMinO5I4wAMLUZtcACDMPEBhD4ESUOf+ZLEQeU2iHTe1bvh+eikkxBrRc5TaWBMgoV8YMGAAhJ0CYp9ChkHr710wBmqYgTTMQV+enfnKGGeLAIaEJiGsDVC1AIdQQby3NHyGJRPI5xSdaVR0AkqoH8pg2NAi6dqXhg5B/mt5PJgZJjEEMibB7rEaEgK6dM/m6EQIiOBMPm3MWVD/THK/xuDoDBkDIBRBS0j0n1fxxD/y4jM7iMUhxylOBgZoYIwUnJHqii4jq7KeVPBXzrVI1ARorebF4jjCMTIDAVYVxpH2frhCUmdowxML4V7d9Gy0NCxCJRHDq1CmWklmbX4vFglWrVmF0dBQPPfQQKIrBcFKk8LjCPPCGD8L0Vi0BBDkqw+q0lER5oDn4Jvd+IdXj9MY/156OhiV2cNF8GuXKmAEDIOQACBpRUpr4zrOXmRzO75hQ9CrIe2RomRtZTGmyQ9JG5IwqYHXSkzlRFMNXv0Tpns9DrPChd+Ii3rl4SndUQtEvo+MBl92Db33hP7GgZZEBEHTMl1bFAAhJEwNLN86Z0tj81GyNhZMEsaRiZgfkmMgAO2VvpBwh9P8EEKSoDFscIFBOEYvZDjPLHBm/BMQzJFKaZy2ro4W3saRFUVnNZKgoMiifSbm9Fv7oGMps1ZBiUfiio5DkKNt/anIzO8t2SuOOygJ7Lu8dgeNg4e2MQleQQ1MC+ZRtkt6dSHgjUigt42URS5FVpbFQUiBJFiDFcmfJjIbpfRRYHYYGodj5vVz1DYCQAyDkTNaU0xkgqSUo5gOym12RoCJOZRA/l3KFM+RuMNXIQI5W5KT47rsX8cqxZ9A/3IuoMHn+82Leayp1PS4PHvmnx7Bo4RIDIBQxgQZAUAECCdZyew1ay5eh3F7FBGVYCmMo1IXOiXOQ8wgrbaptZiduXfxxnB06zIRya9kSdE68i/bxU4hGpTSA4LB4cG3bvWguW8TIwgiEUErpoDCO587/mAnZMns1llStR4OnFcf798MXGWVjqXY2YlPTLtb2ouo1cJhdODlwAKcGDzKwQOBgTd12NJctwXhkGG/37cFoZCAPHTKHencLNjTdyFKnv97+KwhSKA6QVK9lShesJufh2ZwQNyAzi8YdpwnMlDmqsblxF+vzN+d+iIFAB5sW7TmtHfYb4/JXQ5zp2dS2KZXy4oq1WF67CZ3j7+DM8JsQ4mmeqa52gTEAQhEbfI5UNQCCDg1C+rfKMgzk/JQJJr4cSGAyUj21dbpR5Cg6fHvytq1wUGIxpkFw2Nw4c/Y0KF986fjYp7airVYb7vvQfWhsbLwiAYIeQT21mZn8KT2+ADPR72y1qZcHgQSVx1qBWnczNjTdgLAYwNmhI/BFxzAU7GKCkrQCmYW0BCS8CCB8aOVDODV4CB3jZ1Bhr8VYeAATkWGIopwGEMrt1bim9W7Ue1rhsnhZk2ExyAQ5AQRSQSysXI0yWyXaylfCHx3FxdETOD18GE2ehdjZdjdLtCQTIDA7MRTsxtnhwzgzdIiBnMVV61HjbIDlt+ylR3tfYePJpR20m124edEDCIkBvNnzPPyRUdS6W1DnmgeXtYxpKc4NH0OVowHzyhZiONSPXt8F1Dib4LFXwG0tR4//IgMEBGg+vPIP8fQ7D6Pb9y5Iq9DgbkNL+VIGrt4e2MOysS6sXIMKRzX6fO3o9J1DlaMe88oWYyw8iM6JdxgImeddjB1Nd2IiOoyAOIGIGMLZwaMYF/vZexgAYbZ2T+n6mQwgvF/PPm7tNcl0z5lhilkbdgbMiIWaLIQT8gkPAg+kQWhqaGF2/rlQiO1q4cKFqKysnDMAQZsXPTb8yyGo9YxLe4fLMb5i+sz3LoLJi8NND2LE3Za2TC2cjOurH8dVK1QNAqnkF1WuRVv5csyvXImoFGbCLxj14a3e1+G0eNBWuYLlK9BKTJFxafw0hoM9sFmc+PiaP4OoRPHO0FFcHD2JoVA3AxaZJga65S+t3sCEZ7N3sSr05AhODh7A0d5XGbhYXbeN9Un/Tbfu19t/iW7/eSacr53/QaYpCEtBJnTpFtDnu4QDXbuZRqHBPR9t5UthNttxoOM3GBdGsgA8nUc1rmbcvewz+OWZf8VwqJe1dd38e7G+4VoMBrvYc/TuNy78MNNykLljf+fTWFJ1FdNsBEUfG8cvTn2H/e2jq/+YAYQe/wU0eRfiuvkfYgBpfvly/Pj4/2agZ1XNFrwzcoz1NxEZwc2LHwAxOdH8v9b+awaErLwdN7b+Dja0XA8zb8JgoBdPnf4huoNnDYAwFw7bKYxBpVqO5WRSLGafT6HrvI/oPf9manzcmh0t8cypBRzBJpHkJPjyDZAlgWIJmCZpoAAK4CcJuWJs2+SDkNE8MzF86RsI+CN4evdulhP8chenw4m/+dpX0dbWpgsgiKI4406KpZ4TvQtab796KUQvF9MZvYee28Vk0SJ6AQIJTNICOCxudrsPRMdxpPcV5kMQlvxwmL2ocNbClAoQoDCq8EB0lD1774rPo33sDCJiEG5bOQ71vISIFMgGCGY7tjTdgvkVK1hiJFGOoMxWhVODb2Bf1zOgtOjr6q6Bx14FM29Bmb0K+zp+g17/BSysXIutzbeA40yQlSiiYgQ2swO9/nYGIqj+5qZdmF+xCu3jZ7Cv80lm8sgsBDpavEtw3cL78MtT34VPGGFA5Pr5H8KiyjX41ZnvsWRojZ42bG+7C+PhQUiyiLf69zBwE5VCGAsPY2vzzfjx298E5YDTAEJ/oB07W++Bx16J43178YFln8JjJ/4Zaxp2wGMtxzPnHgb5WiyuWofrFnwIE+FhZh6h+eqcOMs0Netrr8NVDTewUMZXLjyBc+NHEVNUnwRDg6B3h8+dej4GEGRIwamNqdRnXzERZnrOoKm8FdMgZGoOWEMJoa36Hkwm4NmLTJI8hR3eefGH6lyoEi3lLnrQUbKO2ooKEMhJ8SIGrQ4sWra8pHzVU5lsq8mEW1YvR311tQEQdE6gARCSGgRtyugme3Xz7XCaPTg/dhIRKchU6KmZQ3NNLwGEu5d/Dsf79+Lc8FuwmCxMK0B7J0uDYHbg6uY70Fy2mNn+yf/AbSvDhZETONj9PKocddjRdif6fR0YDPYyB0ISuhPCCCod9djWfBvGw0NMA2EzOTAhDOPM0GF0jJ/FiprNqHXPYxoF0oScGniDqen7/e1ZzpYEPO5d/nns6XgKl8ZPMW3HNa13obV8OX5+4ltsbHXuFqZVGAh0YzjYi4FQJzY17mLvRxeHqBLFyxd+xkwdD67+ChPy50aOYXHlWiypXsfASXP5Yvz8+P9BW8VyrGu4Bvs6nsZIZAAxWcS1bR/EcKgPA8EudPnexUR4CC5bGa5vuw/j4REc790HnzQCBclLiAEQdG7wOVTNAAjZH4NLZHNMAwXpFZnwncwWkEGpnOubFzIlZN0ecjWSxneQXSEVhGgaBAIIsfomWBvn4cLwcCJk8nKsS4fFjC/s2IqW2hoDIOj8AAZAyAYIzBfBVokKRy1zoKObLtn4CwEEE2/B8upN6A90YDjUk/YFcpkYNjTeiCpnPcJSgO0bUuT5hTGcHjrEzBuN3kXMF4BU+yPhfgwGO5lJoa18BZZWX4UQ+SyE+zEQ6ERL2VIIYggXxo7D66hBQBiDGBOYvwKZHEjNT+YSMomkFgJDGxpvwqKqNTjW8wrOjR5jPgxEOtbju8AAA/kS1LqamT+EqIjMr+Lqlg/AxPHMR6Mv0I6AMA4Tb0Vr+RIWeUDmA/LLaPQsYBoS0g7QvJC2ssG9AFbeBp8wisFQFyoddSinaAxFwkCwAzzM2NR0E6qdTXi1/Rfs/TIPSAMg6Nzgc6iaARByAIR0H4QcQjd+G8/5HdP4j9JTZGpaCE2xUEgLoBtApIQ9pms60qmZkzwIF4GGeZBq6vBGe8eUQqT0rGGLyQSilpYnidl3WS34n7ftwvz6OgMg6JnUIrKUvR9MDDqnbNJqPGdmgpE8/VNLJkAgFaLFZGOagVRfJHqWgAjz7ue4uFMkFw+dVHcxhTmSvZ8KqfzJSZLMCmQe0EIdNYGqag55Jujz3UJIA9FcthTkOHl8YB+icjj3cRQ3RVJfFCURivpxbvStAtEdamr5rGRwGYnXkinReTR7lqDKVYfOsXMYjfTHx54+JMaDABhhjqVYtLPUhgEQcgCENTvmFZbNhbQHbDMV+ooFtBD0eCGPxHgXeY0R8efp70S1/Fd/9A1mYphpgOCyWnH/hnXoGh3Da+cvQJRz21MMgFBojWT/3dAgZGsQip/Fwk9IUZUe2O42p3EsFH5ydmpooYeZGoZ8vRNIIMCRj6dgOqNWxwJ2IcgJahRACImsC5vLIEqazlzP5rMGQMgJEJJRDJl/1imvmWDPryFIITrK6EAlYcxAFgzOp/fM8TnQR+pPdAvJGCxpEKYLEGxmMxrLvExVSbeokWAIExEiiVFfxMzzqPd40Fjuxed2XA2L2YT/OngYe85fhCBlE6gYAKH47W4AhNkBCJQ/IBKUYHdbSONulGnMAJ0PYb8Iq90Ei800jZaMR2dzBgyAkAsgbC+gQdCFEiavlDtnQnwwWQAhByjP8j3IQ9rEskKq7RJA+PpXVCfFqWoQFtZU4Ss33QDyHaDbwum+fjx84BBGgkFmkF0/rxEf37IJVW4XKl1OmE0mjPgD+Lc9+7HnwqUs0GQAhOK3uwEQZgcg0JcRwhKiATIfAJP4HBf/Ed9HT9DxQ9pLq9Osgi0j6dUV8/UNgJADIKzbmV+DQGbBnNTGGe2orGP5QUJa2uZMH4JJvR8zO0rpY5IEDUz9F8O0NQiLa6rxl7ftgsNigd1qYW/4zInT+OnhY5hfVYHPbN+GBTVViEgSq0PCbCIUxvf37NFUQ7EAACAASURBVMdL584bAKEER8P7HiBUPYqrVp6ZlXTPtBXVFO36zX0l+MTvySYYgawBDq6ob+vri6L7aRlSSNetOOvdSv2950aY445JAIJO4Z0/QDF7faRle8y3fNj3mdypQdt7uXwfGAEr+SD88fQ0CJqJwcLzWN3UiA9vWIezA4N46u0T+MTWTVhUW4NzA0N4+vgpfHTLBnjtdvzo4GG8cPYcQtFsWuepaBBsNtsVtclKPdj3M0AwczJ2VjyGjStPwWKd2qFV6u9htGfMwHt1Bia6BfTsjkGOzA0b25wACJM5KeZFRJmyW+/ZxUwABb0Z2fqbjFchbYHmaVMNc/zmtEwMqf04LRZsaWsBRSvcsGwxVjU24sLQEP51z370jvvwOxvXY9Dvx3NncoMDaqtYgEDZHK9EgKCXtEMP4tYLEBik1LG29NQp5gAspr1JmRQbH8SIJ51JkYeMVbFXsXXJS3BXxJJOvDEOnAkslbCefUJ7IRqSQFxhOf15inlho64xA+/BGYjJHALdEkIdHHTkPcs7A3rPA12XajWdCPPJYxlGREAc4xETsgWu3n711tNekFuTxweBqcjyGSIzWQv1yXzWZ76qeUmSiliMqW2QHZColqfjg5DaNR3uTWVefP7aHVjX3ISe8XF877X9ON7bB1lRML+yAmOhMEZDobzvWCxAIIroKxEg0LgLLUS96LgYgKBnqdC49AIYPe2Vok6+XAxmyNhsfxqbVrwJuyslL0qMQyQQZSYvV5W9YHpm/3CYHXqOMpsBEErxwYw23pszECNBPEeLAoiRGIYOSwieN01CPJh//FM5+xhAyHuTyyG1c9WdlEY513iLQAN6P5iaNDKZOTIR5nh26k6K9K5kXqB/17hd+Njmjdi+aD76fX48cfRttFRWoHN0DCd6+/CF63diIhzBw2+8id4JX04BaQCE5GIwAEJyLvICBMrFUPkYNqw6neWDQD42oXGBnAbgrLAxut/MQvsyNBEFpT7PV2eOHofGsIwZMGYgYwbIJ3DolIDhAxwUUa/aPr2RYvMScWvz+CDkFMxEypwn5DCvbwGX3VJRrzZJZU1Nk6rpYLfDODX0dH0Qat1u3L5qBewWMxbVVGN5Qz3GgiF87/V9qPK48LEtmyArMZzs6cPKpga4rTYc7erEd17Zh36/P2uBGwDBAAi5Tj292Rwzn6VIncBIhOnlzA4zeF69AWk+OJIgs5uGu8qeE0DkGkuSFl3bt4V2q1qP9qAek1GpT30CQWzLKxxiRMLI0j0XGnOpR2G0956bgZgMzsyzPcXzCgv9vRzrO3VeyYI6fDqC4X08YpcFIMT3lUpZnEOwa3wDqfuPOT1rREnpz2RuU+2vNOk5D6fJEjrlfCJXO2ovjEkxnothqmGOy+pq8Td33gbyP6AxjwZDeOTAmyyE0WOzshDHnUsWsvBGC29iqt5IVMR/7D+Ip04Qb3z6fBgAwQAIpQQIbJf+1hmXCI6I6IhtK8YjokYjmKw8i8PPt9+0sTAfhYgEAhSyqECWY4ncK1lBR1lqCjWPisnEw2Shf0zMN4L1OVNy+reZWiVJQSTIIRK2QgjboChmKDCpidsmK/kJG99zMm7WX4imfm7490371TnKq8FYPkXwJhkOZwR2hwSbkwN/magtVIAgYHgfN3sAYd3OliwkEMvDBDj5rGeujHiSpxyqCJ4H6J80dBTHJLlt1+zky9G9xliY3hiFVRLW+Oo0mRQbvV7cv3E9HFYzOzQPdXRi38V2RCWVL77G5cKdq1eitboKqxvr4bBZcaavH//00mvoHBvPGq8BEAyAUGqAMJ2TkCVpisogHwXa88QQyLbhFAS7piikNgkwuCrssLlKz8qokhApmBixQpBqEYNdn1SiG1cU4CZMUPwmcKKq9VDeIwJtOutg2s9KChQLwLlkKOUyQIFXFr3G4Wn3PgsN0BVYhon3w2EdRHktYLHN/sKZGwAhhWwo67KQ4wc6ENQbyjQXRIEm8qU4YF6eORUJFOb4TZw7e2HKREmUuMVqNqkqW8YrTzz0SRpl+p3+Xu1y4Us3XY+IKOIH+w6ifXQ0S3tAU2cABAMgzBWAQD46YV8UYX88HHcKoCDvyUybRVFgdVjgLLfBbCnNYRqTFPhGAb+/GmKsXB8wkDhgzASLzwmz4IAVdlA+ioQXeQ4T6CxInMJdkAZIFmGRo7CJIfAxGcocZK9iy+a3DuGS2Yaw2YIwL0OwiYh6Q0CFDFinKRcKz9Qs1iCgIMJhG4K3IgiHO5vBdyYHc3kAwjXZGoR8HuhJ9V16roEp2WYmc1TMYzko5BmfppEocZjjZB+eKJfbqioZSdJwMGhEMRhRDEWdE1P1QSiqk5TKtI+C4wIiBA5mUOhQP1aLCe5qB0zm6YEEamtiCBibmAcFTl2vrkQ58H1WuAJVsPKuadmQ1WRgaoKqUhRNW5OrLYscQfVENxZ2HUaV4EOZGIE5Fi1Z36UYf2obMYVD2OrAOG9FX3krLjauwZjDDb9jGLEGAbC/l0AC3UdjsJoHUVnrg8NVmvWg55tcFoCQms1R1S9Owp6YJ98S2zR5YtAn21D5lk3WmZXiG5Fp11cnlpBdus2T8SCQBmEaVMt6PppWh96zEIAxNAiGBmEuaBBCEwLon0xwoOcyXbT5gUCC3QJ3pX5HySxFpUIRGwpGR2ogKhX6tqXAwdzngCNcCSvngIkHLFY63BVYrGaWpZIySIoiheQCxGumKgezD3xKZx2NUgZJMp+Qt5q+IeSsRTHtcaBhsxHQSTbGKTGUBfqxrvMNLB67hCoxCBPVZbXmtpClE5imL8qb0eWsxlv1a3G+bilG3WFIjWHAkTuBnZ6ZNIGH02xjuW+sJjM4+phkHpNkSIqMiCRCoAyjehqbpA7TCPNmOMw2ln/HbOLB8TzrR45RXzGEJIE5pnOQ4LD1o7ouBLNtOgtC/6AvC0AgoiTt9dgET2WW8wEE1nDKBki9xbC+kp2lAQmN7lWrr4Vw6SJaittRmQZh+tkcU+cmbZ70f9dETQMgFA8Q9IZD6v0cFOVSCMjpbatU9WZTgyCJMiYGQ6DTPFXYc7ICbkKCmfiY8mkVOEB084gVaTIgc4anwg6HxzqlKYsKMQz3uBGRG3SZFcjJmjQHbl8dLLwNZR4T1q5pwY7tq2B3WEGmw4QzZ0wFCa+9/jaOvdWBYJA0Bckzi9aKIARgJgFlpsyM0xcGBBBCoXE4HGXgEx5vCip8fdhx9hmsDPTCSk5yV2ghsODjrXi5dRuON2/CuGcUsSYBMBcvXMqsTqxsnI9da65GTVkFuwhqsoK+jShLON7xLl45eRCdvmHIU2Q5MnEmNLkrccPKjVg7fzms7FurkQtaKvmRwAReOX4Qx3rexYQQBMdF4XV2oLKe9szMfywNIAztm1qY45R4EEiDkJDjGhd7rnedRDjn0xJMVR2nHuDqRqS9rKkn1RecRMtBbxK/BtGh9LVpEiXZLRYsra1hyLVvwofl9bUQZBlHu3ogyjLzPSA6ZpvZxBgWVT8FGX0+P3wRCj9LL8UChOkyKc41QZg5H3rGV8wa0lNXT5/FbvXptjlbAIGZFkYFRELkrZch6MIyYofH4RU4WCyUvTRHMXMIrXAhWmEubooo+ZOJQ3mdEzzd/ooozLQwYsL4WDMpdvU96eNh76qEk/di/vwK3H3nFrS01MJqzZ96ORoV0dk5iGd2H8H5CyNQ4t6L1H8oNAGHw5MizPUNI28tajPsg83qhCkuiOzRAK45+zQ2jpyFRQ0ju6ILrZ8Bqxsvzb8BZ+rmw984pvok6MRXVK3OWYH7t92Mta1LYLfa8ppY6MwdnBjBi8cP4rVzRxGWs2nuJ5tMh8mKqxetwS1rtqG+ooZFpeUUgYqCiBjFqc7zeOzg8+jxDcNsGkFN/QiLbpjpogGEwT1grIqpZabOPi7NxJBxKmQnasrnHJB/avINvBCWzFA+pGk24lQHKoBIUXowVRy7HSgsTGs6TIrUFqVx/uTWzfDabRgPR7C8vo6hyRfOvIPDHV24d/0a9httZ5USUwUIFOL45PHphzkSQLBadR6KOT7BdAXXVAW6nsVKbZdyfHr7nIlNPN33mC2AQJE4o90BcDlIlWIhGb49E3BHbPkFqZkD1psRq57CYRhT4K1ywOrKFtI81HTquRLDUbjyYLcHoWi9vts7aUDabSgTGlFb5cDnPncrGuqr0vCQeiNU92zmumlv78N/PPwixsboBq/eHsMRH+x2N3jity5JURAOB2C12WHiLeAUGfMHTuDWc8+jWgoW1wMLB4ubeHMBi8mS1uTriZ4hzQZNEiOXmFqROR6nPU14fvmd6HYJiC2OADqnsNzmwn+/4T6salnEkuBpRdVyx7k3MkCuLxTAf732G+xvP6kryaAqPzhsalmGT157N8rdniz8okXlpM4A/Xam+yL+5cVHMS4Mo7KyB54K8k9J1lITGOaWcuqay9hDjL8jkyZAraP9zgDCqQgG9hDtcvrzM3X+ceviTopZL6NpDFIlcJ51oqkk8wHftNfOgwwoNFFdCPEX5wDKUa9ND+sj/myahoH5HqQ2qqoISYPw9S9PnWqZRrGgugqfv3Y76r1eyPHoBaJVJmfEZ06cQiWFOa5dxRIzkbbBxKv9PnX8FB4/9va0eRAMgKD/YJqpDaJnBFcKQCB6Zv9oJKcJIRaKYWLPODyCDRaLmrk0q5BsX29BrGoKAEEhHwATvLWOhFA2MXuvG/MrV2E0NICx8AAEOQI5lrwBRgUFA91VEGNVej4FEOFg66xAGVeBe+7egGt2rIIp5Ubo9wfx1vGzGB3zoaGhButWL4PVmtSIkL35wIHT+OWvj0AUJwcIZrMJDocFgYBQJNhNBwhWKYzrjj+KjRPtMKccohwJLIsFMd8EixTgzGYosqQ5S4BzOuHYdTu4qmrIF89DOLgfSjikXpzIVu/xwNTQyNqQerqgjI2xcfLlFYAoIhYMsHhzsrMrksQEL2exgq+vh23dBkjtlyB1d0CJRKCEyQej+DJhsuPJpXfgdF0zQs0jgLuwdoQHh2sWrMEnr7+baQ4S4EBR0NHVhxMn3oXH48TGDSvhcjkTa5Xe7Wz3JXzn+Z9hNKoPaHktDvz3G+/D2ralaWCR2urpHURnVx+WLGpFdXW67wtpEn782m/w6vnDcFi7UN0kJPgRzLwFreUr2HoOij4GQki+RuUIvLZKLKm+Ci6LByZOXXfRmICx8CDODh+GFNd+OC1erKjdgl7/RfT5Lqrw+XIAhFQNwmQHHd3Ic8l29dZuSjIsZmkhJl9UWUdNiqFfBYpag6mqSdUEwdJI53EMKEUuBjIhfGzzBsyrLGMgwW62sNH4BQH/vnc/Nra04Loli1jkApkhyKlFECWmQfjNidMGQChwnkxXsKY2bwCEwoc38R1Ew1JungMyMRwYRRmZGMx5VKwWILTGA6Ey28TgtnrhdVaAtAFkBx4LDiMiqcIqfg2CicwMDe7EzX2eZyG2ttyOKkcDhoM97DZ2cmA/BoJdqsAl50RfDEOD8yDDVfgF6bTw8XB316GxuhKf+dRNaG6uTXsuEAyho6MPFy514dSZC3jg/tvR2kK+DckyOurDP/7Tk5iYUHOK5NIg0CWwsbEC27YuwTO7jyFEZpuUQn93u+1wuUg1DkhiDOMTQYiieulJ1SBU+ntw9/FH0SSMJ3mGTCY4br8b5nnNCP38v6BIMmxXbYTU1wvx3XeYMDdV1cCydBnMy5aT6hKhJ59AbGyU3f6tq9fC+Tsfh6m2DoogIDbQh9BjP4bU2QnX734O8sV3EX7xWZjqGlgb0bePQR4Zhm31OthvvxOWVesgXngXiAoQDx5A+JUXwLlc4CxmKBEBnMOJ2Pg4FI8H5upqgMBLVITc1weE/IlbfpQ34dV5W7GvbRvG6gfBVRfWSDh4M35v593Yvmx9mtAO/VaL+/PHn2Vnf//AEFatXIxbd22HxZxcj0EhjH986hGcHeoqqEUg0dHqrcVf3vtZuB3pkTETvgB+8vNnGCD50N03YdOGlWnfl9bFsYtn8C8vPwZZvoCGtjB40rABcFjcuGXRx9A5fhZl9hp4beUIiQEc6HoWXlsFrp3/QZTba+CyuJnzY1D0o2viHF6+9BgEKQKn1YtNTTeh3FaFfZ2/wXCoV91ClwUgpFAtJ5yTFEDWWA01R8I0h0KATz1ESE4zKkqebSiZiIQ0Rx8tI1ViejXWRfUHJuRTSur/qZqYFAiR8kftT4R+qZDzGcVJq0mmVCbF6VItzysvw1duuh61Xg9sFpUsSdPmfeulV+GwWPC72zaj3+djAMJhtaJ3fByPH3kL+y51ZN0qpuKDYJgYdMmFyxoCNl2gM1smBv9QGJGIlDu5UxwguAXVnyZN2JFroImHYlIQXO1EtCobIGxuvRG3rfsIrBYbAuEJPPHmD/DO0NvJXc/8EHiU1TvjvCkcOyxvWHAfXJZy9Ac64BNGIchhdpOKShF2IPpGFIyOtUFJ8T8gMGg1qaYKURbZDVhzPuV8Jri6arFi8Tx85tO3wO12pL0L7WECBnsPHAX5HRBAqK2pTKsTDEbwve8/hwsXx9jvmQCBNAc1NR40N1djw/o2vPzqKYyMBNg/2lowm3lcd+1SXL1tKdOMDg/78LNHD2B4mG626QChZfA07j3za3jlFL8lkwnOO+6GuW0Bgj/5T8SCQTjvvhd8TS1CP3kE8vgYbGvXw7J6LSwrViM2MY7A978DeWgIXHkFvP/tDyF1tsMyfwGEfXtgXrIMfG0d/P/2z3B/9BOQuzoQ2v0UOI8X7gd/F1L7RYSffRqktXB+4C6YV6xGZPdTTODLvT2IhQKw77we9utvhjzYxzQagZ//CNyO6+D95Gdh8nghjwxh9B/+B/i3j4ClDqVzGRwOVy/Fc8tvx0jDCJRqif1OjqIW9g2VOLeMktDSVtk8+PO7fw9NVXVp32VkdBzf/u5PsGbFYhw6dgqV5eX4wkMfhd2e1DJEJRGPH3geu0+9waINqJh5M7u8kflXu4lTBAtFKmyfvwq/e8M9sFuSbdAzpEm61N6NXz39Kq7dvgGbN67KOohG/RP4f5/4N4wLZ1HfEkjkS/FYK7Cz7R683b8HESmMmCIjLAYRkYOodNRjZc1m1LlbMM+7EEIsgoAwjuMDB3BiYC/sJheubr2DRboc6XkZE8Iwi7a5bABhTRwgENlRqrmKBKx2PWd2mLQLPNn4kwkryTSX8Cxl9K/JuSQAQE6G2t+1XAlaDU1JkOuQ1UaQwAWUCyIVQVBeiBQAobVB4KEUGoTFNVX4s1tugtOqej6PhkhTYGLA4EcHD2N1UwMW19ZiLBRkvzltNrzTP4CXzp7D8R41y2NqMQBC+h6brmBNE2Ilik/XB0dK+x5zBSBI+8chB93gzOmHJQm4qpo6hKMBRBcHgOpsXWKFoxb3bfw0FjasxpGLr+GZt3/K1KtaoX2bChBI67ioYjXWNGyHPzKG+RUr0R/sxH52Y+pjByRtn4khBWMT6QCh2l2OncvWs1DF8/2d7Aw41XORebQzgNBdi9VLWvDpT98CpzP9XWjNkQbhlb2HcOlSNz587y6sWrE4DWCGwxH8+w9ewDvnRnICBI/Hgc2bFjINQktzFc6e60F31yiOHG1ngoWKqmEow4c/tAUVFR48vfsIjh3thBg3m6ZqEFoHTuBDZ5+CWxaSC4vnYdt2DWybtyB66E1IfT3MtOD5/T9G8McPI/rWEfBuN+y7boN1+7WI/PpxRPbtAWQJpppaeL/05wg98xQcu26F/1+/Dfs118O8fBX8/+cf4LjpVqYNiB5/m5kQLAuXwHH3ffB9838AYhTeL/4puNo6xEaHmalC2PcaIi89D1NNDbx/+01w9Q0I/s+vQ3hjP+TKKni+8pdw7LwBgSd+juC/fhsmlodGXSMEEI5VLsLuFR/AcOMYlGrVu46+4Q0rNjJA1TM2hLGAD+cGu9iNusZRhr+451OoL69O22gDg8P41j//CA6nAzFJZnLly1/4BDMzaEWUJPz68Ct48q3XWVgiORxualuOJQ2taB/qQ0iIoH24F8OBcbZ+rl+8Hg/u/ABsFAObUfoHhvGTR3djx7b1OQHCRCiAv33suxglgNDsB+EdkooVjjpsmXcLBoPdcJhdeHtgLwLCGJuRGmcDVtftQHP5YrbGSfi7LV7s7Xqaac/KbNW4bv6HMBLuxdHeVxEWA5fXB2H1djWKYbLzVQ37Ya548SlMu+cXTDfLErnkeFJFRaptJW8hf4J8HAuTjJs5KU4zF0NzeTk+dfUW9tpWsxl9Y+PM74DQ6M+PHIMkK3DbrFg3rxE1HtWJKSwKONTehTfaO9JYF+n9DIBQWsFqAITi4AyZGCLh/BoE+cAYnGFz3MSQ1NzRDd1V3QohOoHAojDEqmwTBO1wsq82lbehffRc2sHGRqmA5Wsor3clLhs2sxNLq65Ca/kyiLKAXv8lnBs5FjdNqOdCcFzB8EgzYkpSE1Dp8qLGU8EOdbfVjj7fCDpH+tkNlJkYuurQ1lSLz356F2pr023H5NcTCkWYffnZF/dhy6Y12LZ5TRpAIPXyt7/9NAaHSIuRbWJQc09wmDevCju2L8WTTx1BMCioGsaUQpeu2ho33B47OjtHEI1qf0/XINSOt+OeE4+jTvSnBYWbG5vgfuiL7JYfffMAws88Cec99yH65hvMP8BBpoDVa1WtbUc7wrufRMzvA0kq73/7A/CVVZDOnUH0raNw3HYnokcOIfzyC7AsWw7XJz7NRhr82SOIDQ7Cses21UQR8MG2eRvzO4gNDcJxz33MUTHw8L/D3NwK10N/BL6sHNFXXkDwp4+ofgzzmmFasRrSkUPgRobSwtcljsfehqvw2sJrMdowBMRNDGV2N5oqqmG3OmC3WNE9OoCusQH2Li6zDb9/0/1ZfgHkP/Kd7/0cdrsVbidFgPB48CN3pDnVhqMRfPe5R3G055yaj4TnMb+6kWkI3DYnBFHA2f4Odk6Tr8Oy6mZ86a5Pwmkjyu5koQtme0cPHv/VC9i6mdbIWlgsSc0ZjfPdvg58a/ePEZHOob41nNAgEEC4a9lnEBL9iIghnBs+hogcwmh4AHazE+sadqLJuwDBqJ+BhAp7Dd7seR7H+/cxQVxpr8VVjTcwYHCk92WMRwYTcnLWnRTX5mBSzDx2VI1ApnNJUqWQaSbIeWzl82vKQ75UzNFH48syVZSASdHEcUx7QIUOBSlGfNxE0gGERJEdSFSHQh1ZbHW8RIlYJX6TSH0PAyAYACHXup4tDQKRIwV9Qm5zTFiGfGAU5cwHgY7ONPgFjjdBMQOB1c6cPgiF9isJe7OZQ3m96oPA9hQ41DjnYX3jdUzdLMUkDPg7cGLwAKS4o6IQVjDQUwMpD0ES7bu0C0SIh6OzGuXWcjz4wNVYv25R2vuSTfmlV95AVIiiqqoCN92wFRXl3sTwSTBcuNCLf/v+CxCEyZ0Uy8qcaGurwenTPRBFVXWur6QDBEfUj5ve/inWBHphSjXlmq2wbbsaprYFEF56DlJfH3i7jTkUmlvmw3HTLYjs38MYoAgskH9A9NBB5ltAQpwvL4d5XgusW3cgevgghNdeRiwSAe9ywX7zbcxXIfLCM4gFguBtNihRIs8ywbZjJ2xbtzNbLfUl7HkF4tvHYLvxZuYTIbdfgmXteoSeeBTiubPslZP65vQZCPBWPL34ZpxsXAZ/4yCUsmwfhEySOTpTb1uxDfdvvzUt5JBSFb+25whzMnU6HbjlxqvR1taY9n37RofwzScfxkB4PMtnLpU/QRtljd2LL3/gE2ipSfdDmfAH8Myzr6O3dwgV5WXYcfU6LFrYkoioIHPFL994CU+deA0WcyfqmiOJjKlOiwc3L3oAx/v3wm0tR62rmWnTzg4fYeaOjY03Mj8FMj1o1+7O8XdwfGAf5Hj8ottagS3NuzAeHsHx/j0QY9HL74Mw2eKOcxWyKsyhPy2kQ1MBqIlaMktOVXLKIcH8kSbRImi8Jlq7qfUTESMZDagahNljUtRzMBgAwQAIlxMgEEnSWG8wb5hjYO8EvIKFactyBqxbAXmdFXJVcVwG6qGhwFVuh8ObrsolkGAx2WE3u9htKiIFIcaSqnZy2u/v8kCQKMxRR5EBU7sTZWIdli6qwcc/fhPKy5MOjgTqg8Ewu5E5HXaQP0HqmTUy6sPD//kCOjrodjc5QNDCJAlUFFfSAYIpJmLVpT24ofsNeFLNDNSoiRzATVAkMf2QpN8tVibUGZmYx8uiHGJ+P3NKTASDmcyqAyE9T5EKDJkxchmVK0rMCKinPxM3g82mRjeIIhQxSk5pDIDQQ0ospkZURMVJwyDJvNBhr8LTK+5Ee4UV4oKg7iROzWU1+P1dH0FzTUMaWNU0QGoEiT3t20VFEU8cfBG7Tx6AqJMwiVgab165Bfdv3QVbRsQEmYvUMEf6DJQVNbnuu4b78N0XHkPneBfKy7tRVk2aOVWo0Zom7ZgoRxhIIVMGaQMIEFh4O6qc9XF/PfKJUAv53JCmQPM3oFasRM7FWZj/ggLV5DbrGoQ1ZGKYLGopTr3MFiGbIAWSkJ4zlYEHDjBb1ZsHSxebumcylA8UYsuncLOTBiAVRNCjqWxmLB83S72pItWcZokMgEA+FF/7sgEQiju4Jq+tx2egGOZDPe3pHb8RxVB4pgg0TwyEIJEdPGPPy8EYRl/zwSk6YLPmCXMkWbOeh5JuGtbRMVVRUNHggSnu6V34IbUGrZGxQQvGfc3kblb4MXJLGjbBOVQLh8mBrVvm4/bbt8Dr0ZwjczdBQj4QCOHpZ97EgQOXWOporf+ZIEoix0erJUmU5A6N4NZTT2Cpv4eSVhd+zyughs9kx+sN63CYIhhqRoF6STdREmkRVtXNxwPX3IHGylpVc5un0BqJRAUcOn8SP33jOUxEU6JndMyTx2LH/Zt2YevSIPXTigAAGEZJREFUNXDakmG4uR4lH7resSHmCHm0+xyAMdTUDcDhmULor46xpVZJAIS9QEokcBzzzUz/HKNazkIImQpGdcESEGC8BBmIOYuaNWN9k8Yhk4pSU8mrpIlxABDvVuXnKBwvq5IixaeQnkmMS2H8Hl//yvsbIKQi3iLX4pSrq+BN/WeyQt+ulOPT0+eUX6rAg4XelR6nd80HYiK8F4caP4oRd1taTxZOxvXVj+OqFacS9s3pvgOFOfqGw9kHdViGdGAMZRHkD3M0cwivdeeMYph0XDEFDq8NrvJ0h0G97xIJxjDUVw1RoWgDHQehyMHU7YA7Ugu7xYwF8yuxc+cqzG9rUB2mExS66qlGN8WLF/uxd99pXLg4DElKIeYh4RP2wWpzwhSPnNA77skEWjg0AZvdDRPd8NkRGEPz4Blce/FltERG0kwN0+3vcjwf5i04VLMCBxZch0FPBFJLsOjMjmaOx/yKBly3ciPWty2DxWyJm6eSa4CcGima4KWTB/HGxZMIiNkMtnren/wetsxfiRtXbUG1tyKNO4PJPAUQJRHHO9/FSyfexKUxckIX4LZ1orJJYj4pM100JsWhvRwUylKqiT4d5+1Ux8atvzY9myM7aFNlM9tNKc2TRoH9PSkAVOCQXif1f1UVTVKYE2DIBAAUFpR6gCZVLWpLTMvAIivihSdfnBT1ICXvYIlX4mAmhve1BqGYm/xUF0++58hWWEhoksA0AII6g7MJEGh7BEbDiITEdMBCPghvjMLil/Lf1iw8YhvKIFfrZ/ekdUB721vthKnIHA6JAzAGjA0o8AeID0FfJkcEeVh7vHDJlUzFa7MBLpcFFIFAGhL6jcLgKCR7dDSAcESGIDCFcNaylqQoJEkAz5NafgrmlYwWFUr8I4twOLxp34BMDU1D72Br5340h4bgkEXGMXmlFJawibJrm504XrUUb7dsRr/TgkjTOFBW+MKX6z1JsthMVlTaXSh3eWE1W1W/BKLdV2IYDfjgi4Tgi4ZY4qbpFDI3lFkd8NhdqPSUMalGuTJEMQoxJmMi6MdYJIiwLDCVv800jKq6Mdhd018TesatAYThfVwWkyKLDpyBwq3b2ZyMImTCP31BqqaFZM90S0/9DixCIVO9z/BCihd0eqJFtbE0Hwa6TaaDDDW0MpmYg/qlzUzhlVrh+Dj7oqZ5oLHFVNYqev5r04xiKPV8z6YPggEQSv318rdXCAzRk3NFg0BjkaUY/CNhiFE5KaAIfI9FoTBP+9y3IcZ1UmGFYtN3INKxQPcCT7UTFrtOjt080yxLCsYGrPCHmigfY+GPS6aGAA9znwtOqRImzpq0EbNY6dQbWOHmZFkEZXUsjSmLoiDoNpw9z7wioywwiAUDp9A6ch61gh8uRWR0zFwO8FJ45DNfg2aTohVGzU4M2b0423gVuipbMW4TEG3wQ/Fmm7SKHZVm3c8QHXkIuottPb2+Kr7iPaY50SdIj2GGDxXVg3CXTx4BOL2RpD99WQBCVrrnjGBGOvxSPfTJtp8GVkjjQOrilHehPCdEO6wVBjkSIEJFCxkYQk0znQE0MjeQyuaYHmJpZloEtSfVNBGPv2W5GNRsjtHqeoxyPN5qb588pLKUXzNHWxQS+a1PPICFTY2IRCI4deoU6LatvSdR3K5atQqjo6N46KGHMB2qZQMgzPDHTF3vBcwpcw0gMJAgxhAYiyAqJJ2rSjljtJcprNFdYYfVocN3QEfnYkTB2JAVIaEOMYXC0gqodekoiHDghixwBMthURwwcfGMjDOvEdbxRvmrmGQRNjGEstAw3KFRWMQIFDJHzLVxk2YXMQg2D8ZdNfDZnAiZYwg5A1Cqo4Br+uBgWhNZ8odlWEwT8HpG4K2anSyOCTlKToqnBcyqBkEjStIEbGq4IN16sm5HWf4F6elR2cswk0LGl8l4LlU7EBfvWammWfhSOh5Q7aMpm4SqqCrteH+MBVI1R3z9K/+As2cv4HB3LzoGBuH3B6aWzrpEi8zjcuJH3/j/sGTBAgMgGCaGxKqaTRND6lImM18kICHsI5Vp/FY9DQFEF3PtMmB1WuAss4IAfCmLJCrwj/EI+sohKuVxZ8ICgybNc5gHFzCDn7CAi5IfgkrxWhqNQCnfMA15Jjy/1OxSM9TPNJpl3zt+cYtZgZhXhOKRAGdMd2KmaXQ/i4/GwEOA1TyEsioBTs/saQ4uK0BYf21rXLSSY1+GcxnbQOnfgHwBUjUIaqhPogm1co4sadkqAwZJko3HoyXSekvgg6SCidLGJh6jn4kkhLQGCWpnNSyF9hNlcyRb6zPPPodQPInJLK6orK4cDif+9q+/jra2NgMgGADhsgMENgDKQCrKiPhF9m8CDSxbqpbtsMCGUTE8mfpIbc6z6CS72wKLjcLzZkai0fiioRiCPisiggeybGVmhxhFHkxmsqe/yUnV8VwUuJfzfJpy3ynHL0xzE8gU/27kUUGyhEw7Iqy2MByOAJxeBRZLLpt58T0U+8TlMTGk5GLI0haQ6SDTOzOL+ZCD1aZuzHBAJXPQPMoJpbOwJh6MhYqSWaRqYzV/B+bXEPd9yEwJpTpEageNopoy4mMi0wcjMJKSYZUEVug3AjvEpDivsZVpGOZCIY3MggULUFlZaQAEAyDMDYCQuJ7QRVBhGVSLj+tXicRor1Mo9GyxXjO/JJF8KjjIIp0DFKNfgBZ2LhwExhjm/AzEZBlmC8fok80WBSb6x5R9YZ7NF7ksAGHdTjWKQY1eyHBQTMnPoE0E80HIIA1T06STUFY9KUmcaznnLVYVGEhRcjBU29fMC0wBEM+bQH/Tbv70W2IsDKypAIFsXaxtjjzg1X9TSWVS07JO0jgp3bPVZMfpEydYMpfLXaw2Kz78O7+DxsYmAyAYAEEXQLiu+nFsKGGY4+XeAzPVvx5H0Znq22j3PTgDCT/WywsKUmeWwO/w6QiG9hOBVbp2bqbkG7d6+zwmtek2nqotYLZ9KZaeHImEdFZ2RhL4SUdBDWxQZkUNbrAbRaY/AcsQxyUJk+Kqylw+D5m5GFQHvPRFyTQTmpkhDjq+9qVv4NI7F1Fz5jiWtbUwGtHLWUw2G1of+CQqDIDAvPqNMEd1NebzQTBDxtXlT2LzyrdgsSQBrpqxtHj1PQPPV07U3OXcqkbfxgzMuRmQowoGjkYxccIEZCjFZwwgEFESu9UThWbm4cGEespBxLyQyDKTLJpKP9uel4lwsk8mOugS4Y1x0wSBhjTHIYpMyORmiOsT0v0X0+1CdBj+1R/9Ay6ceRc7wuPY4LQhNjSc7vcwy0tAcTgQ/dwX4G5qnnENAgN9k7CPzeSrGzwI2bM7lTBH2mk1/CCWlR2C1zGejHbhI6ipGERlZVgX5iXSsPExGwbHahGVdfIIzOQCmfG29aCg4gHWjA97yh2U+H0pC6IYQFm0DyYlmmNUmdFkkwxcz9CYAJryy+d8UNU6l7hRHUMkunA9pVg+DeJ8kENAqJOH5M9+rxkDCBpRkhYemPZymeNgEQIsriWj5IqLTp8omhBmo0y5+pMNMatfjpxATKrCIW4WyLnGmG0iHSLwFj6hBaF2/+IP/x7nCSBE/Fgf9CH8ygsZzxT4lOymZiIjVC7+lOyHCcgwfvLci4QrKwP3b/8F98LFswIQNOCnZ8GWqk4xqt5SepAX02+p3pXa0dvvZGGnpEE43PRAFpOidm7ykGFGNH7eKbBDRpPlErbOfwZ1jSFmbstXaB8N9dux/8It6I4uRoTRFc/+wVnKOTfamsEZYD6GCuzRAJb2P4v6yGn2/5lFl9wvVl1VQueVUq9wPWcVM9Pr/DRa6gCd1Vk1RhaYB3/oPYeK6Y+dP+uuaWafkTkmpWgLVDVmLhbFXIslU99PB2fmm3CMUS11DbDog7hPgmoiUF2nLfGcDtrLqKGM8fY0J0gtf0P8cCQAomok1GOVAMJffvHvceHs+ThAmGCpTvMJ75wTx/Msd7rlqk26Al4VWUT0lRchHDucTIyS2rC3DPz3f6wbIIiiCGs8m2SxH3Ym6uvZJDPRb6nbnKnNNNVx5svmOFl7ZkhYZD+Jq9teRE2dHyxfScoDqh8P4BtRcKx9Ow4HboSoh2Boqi9hPPeemgGzLGBp99OYH3iTTtNpvZue/TbXz5a5Pj69H0jPt0htiwEEzcafDCaMV8mhQWC3+rSLO69SqKbUpYNJEjM1CHGVtxYSqTkzxm2pNHAWbEAEK3FNQ6qGQeNQZ/VYshkOZtIYMNOIAlGkSIYYTLwJZhvPAEK6BmEKAMFshvcv/ga2u+7Td+mKigj/+3cQ/PHDUIQcnOAGQNC7jme0XrGbZEYHA2AqAIHGRCBhgeVdrK5+EXZbCCbKGkfAnpnlZIiiFYGQFV2hDTgubJvp1zDafw/NgCUWxfLup9DiP2QAhLgJ/r3weYs9+xhAUBPnxPOqx4U/CyHKcIQgfwMS1GlFC5hOvb0kKJvT/RdYRq4M0JGOzNTOGTCI55TWtFRaalVWIfEjOVKq7qapL07AgcpffvEbqg8CMzFMASBwPKzrroJl6XJdrBiKLEM8ehjixfO506AaAGFO7LFiN8lMD3qqAIHGxSMGBx+BFVImpxgkmCArJmagEJTSsBnO9FwY7c+NGTAAQvp3eN9qENZsT2ZzTDs4f0tVTBf1NHUDx8FmJ/+AdDMDEaRkhhVI0RhIYKYWhcVIpz+rMppl5YNipC2ZhXJyZ2bNklmOhvT002RuYGGOX/mH6ZkYCDiVV4D3eCnMo/DOJWAzNoJYgBgbc1ijDIBQeA5nocZ7CSDMwnQZXbwPZ8AACAZAoBngWC6GRMxnclJI6Gf5jDAnxQzBR3b/rAxnKrthJq+C2nq6oGVaCQYw0j9IpolCezQrqRPTNuTwi/gtcPjal785PYBgNsPzR38G2z336XPsikaZiSH0i59CEXJ4/xoAYU4ctQZAmBOfwRjEHJ4BAyAYAIFJa+JByEqSRGSFzJSQHaqY6XvIMrzl8j7N49GZM4NZDkImVSuQXVKhgMrYSM6PZCJJN32QUyNzUjwzDSdFkwnuzz4E+x33QNGjQYiKCP3we4jsfhKKKGYP3gAIc+JINADCnPgMxiDm8AwYAMEACAwgrCcmxRyqglxhj+pNPcNEwEiLiIAoW7OQaDaeG0ElaklGS7C/Z9JaU3vx1lKHpfI0ELVqjjFo9K5xPENdEKsjpXueVhQD2XjLysG53bp8EFjSkolxxEJBw8Qwhw8/AyDM4Y9jDG1OzIABEAyAoGoQrm7OTTPAVAWZf8q2w2u0x5lEAarVQXV0JE5rMSKxnAla6mhKEW21xk0LLHRRbVslSlLjy0VBjls/OJitBBxUkJCkGVABB43BYlVZEgkcSILEoij++s/+Fy6+Mw0NAm+C64Mfhu26m/T5IIgiQk88CmH/61CkDD5qGpyhQZgTh58BEObEZzAGMYdnwAAIBkBgAGHVtqYsgEA0rlkRB3FGw6w1nSawk39lNMpxtTyp+1WeA/UinoAZ7D8S+oL4w/FKWhhkXI2QeqjzlDUuQ+VPfRC9s9YJ4Zuvfukb09MgUJjjV/4K1jvv1adBiEYR+Y/vIvizH0GJCtM2MUiS9J7lQShGSJfKg1jrU2/fevrV29ZksmA6UQxzWMYYQ7uCZ4ABhK6n0BKYfpijnmnQs9f0tDNTdUo5vmLPjFL1rZrk9VE5aX0mAILG707imtnzczjtq+YBVa+Q6oDIhLWacAFE60rP0m+5+OJZdEJcW5Aa0ZBvEvS8kPasEideIt0HZaX76z/5X7gwHQ0CkTa1LYCppVUXURK9vHjuLOTBgdyETEVqEIiy2GazzdSav6zt6l2skzEQTuUFKHy2UN9an3qoqlWNVmEimck2ecRUhjcbHsC4t20qr2Q8Y8xAyWeAjwlY1rUbC4MHp8WDUOr9W/IXvUwN6jkzmEa9hHT52llVSKam5snhVm2lXAxqDm8WTaAxFcZv8KkkSJoATh04vWgiiIC0DPH/SdUgqLp/9UuwnPMsJStgtZsT+gMxKjEaZAIVDreNsThSf0JESrHnx9UPigKz2cTaIKAiMc0BGAMj9UsOjrIYw1e/9M0UquWp8CBwsCxZBvP8RRpF4+TLSZYgnjoOqae7JD4I72WAQBOpZ5OUcoOwZRgX6JNtEpUXhKJ4Coe2lgIgSJwN5ytuQGfVJsi8RR8p12U62Ixu3/szwCkKyoJ9WDL0LKqE9mnlrzEAQu71UuiSQk/NxNwVmyeH23zTfHZWRiJi3J4f9yiMv5fGYEhCXRP+JMRdbgurEQlJEMKqvZ2EutmiCm6L2QQyBVAh9X9UYDSJTLBrUZGaM6HaVfwwZv9Khkiy/PIpY6HxECgIB6MqruE5WG3UJ59ol34ndsg//4O/w/nT0yBKIhPDn3yVmRj0CAtQmOMP/xXBn/5XSZgUDYBQWgQ9VwECjUsweTBoWwrB5GDkR6UqcebxUjX3nmknR3LZnO9W0vlj55K+/B10rukJnGLvoUdrXBjrxt+fCPOA6mgnvGIPeCWbj6aYRTATQq6Y/udq3SsGIGy8sY2FOZJDINMeMAbFZI4ET4WNCceoICEaSS6WhA8AxyEmyczJkC5cmsaBOSPGFyVFRNCNngqfkrCJWTLitzQCE2JUBRG0JjUwoqqE1aZ4swlxJQeIiCkG4p/nGDVzMlV1nBWSsjl+8RvT0yDwJjjuvhe2q3fq0yCIIiLP/ArC/r0lcVI0AML7ByCosNikUiWX8FRjrr06NCEl7PKKaEqlly8sWVmOlxK9EfWmnmeFACCdZ9SvGtE1WWGZbgu2p17A9C4DRoujxHImaSp2KgyAkHvGrhiAsHpbM8vywvHqZtGSJqnpKJWE4CUWQ0q2pN3CRJFAgfpA0sSg8hKodZI5GzQBz/7A1LepWzO5BTSfBPJj0DI50gIz2XiYTWqUghAWVc2BiYPNkZKZLg6jCdwQ0CCA8ddfmSZREg3XagdsVl2HLFPFhMNQpBwcCDR4wwchbbcYJoZij9vi6xsH9NQPaHahKaENmNpjJtkCPiuzbeIqflXpf8JYf1NffzMxd0WbGNbubGEcQNotg/gDEhwIHPEJqMCBNAaqyYBAgPbSHBPkaj4EVd1vptBFgAlpTWtA9MhWmzlxNTJrIYkJs4X6vNYXQ9pxrYTm8MhAB6sTi9tmVL/IJCBRmEqO/T+zMyv4+p9MHyDo3wo6ahoAwQAIOpZJKavMxCFTyvFdrrb03OAMgDD9r2OsvyscIKy/tkVJUBWzjIokaNVbPWVI1FRxDocFDreFgQMyNWi5Eghhk5Ngwukrjo5JmGuJnSh5Et32mUCPKcxvQdPu8ZQCOsXYpgp90hQkeQQSqaAZCqF2VYYlilRIaAlZ1ATAEegg/gXiQfjT/z09HgQajJnGzcNUV8/MDHJ/r6rdiCkwVVSAK6tQQZMksSx67O+5Qhxp7AZAMADC9M/colowDuipH9AGQChqqeWsbKy/qa+/mZi7ojUI63Y2J2S7puxn9q8UX0UCCWTzj1sdmFBmNn/SMJCsjCdlYuaAuGMiu/HHVQ0EIix2k0p0RAAhqDpEUiGfBTIXsPqUVyGusaABUFQCPUNOjmpuhvgz8dwNGoOCBhJYmzGOxDUDN3/zp9MjSjLV1MFx30fAV9fCvHAxeWBCOncWyvAgIi8+B/tNt8By9U41EmN8jCVqCv30EUhdHYgFiE0xw9ZoAAQDIEz/zC2qhZk4ZIoawBytbGgQZufDGOvvCgcIq6+ep9BtW8varAlrFoZoo9uzKrxJtc+cF7VUznGSI/IbSFIqJ8mR2J/jORbIBKFqHFSRzrI8xFMnkOOh9jyLv4yDBQYe6G/Ut6IwjQJtauasmGBbBCJhEcyNKD5ezauH+mS5GM5OnUmRMjl6HvoirNffDDidqmklHIK0/3UEf/YI3J/9A5iv20XxoQBpDcIhxAb6EfnVYwg99jMo0Uj66jAAggEQZudcTvRiHNBTP6ANDcL0F6ux/qa+/mZi7orWIKzZ0axozofJV2F+rGkXYBZ2w6tUxxo3gcVmZrb+VFZDJrzjzo7MoZCpBrToBRUVMFARNyuwS7+mHOCSpgqaHBvxJMRzMKgAIT5Cev7/H2w8ASwGlWAEXdwEaXCA3FmZS9kuBmZ5BQb+mmYGZk1d0CELoLkV8AgCqCHwffUyBq7YZAZmI1OG/8wsDKC9wwyfPzH8e/GM4XN7A8Ov82dHRxAIlC+EFmtB0gp1V+ETew4CbKEYoSKSGucgELKDEnlqhx8lbhlMeokdQaB2+I0uUhxMqWDg3DJYyz5Yoxi2OBcAl8BXRwGMn4wAAAAASUVORK5CYII=;" vertex="1" parent="1">
                    <mxGeometry x="10" y="10" width="520" height="290" as="geometry"/>
                </mxCell>
                <mxCell id="5" style="edgeStyle=none;html=1;exitX=0;exitY=0.5;exitDx=0;exitDy=0;strokeColor=#FF0000;strokeWidth=4;" edge="1" parent="1" source="3" target="4">
                    <mxGeometry relative="1" as="geometry"/>
                </mxCell>
                <mxCell id="3" value="" style="whiteSpace=wrap;html=1;fillColor=none;strokeColor=#FF0000;strokeWidth=4;" vertex="1" parent="1">
                    <mxGeometry x="230" y="50" width="280" height="230" as="geometry"/>
                </mxCell>
                <mxCell id="4" value="" style="whiteSpace=wrap;html=1;fillColor=none;strokeColor=#FF0000;strokeWidth=4;" vertex="1" parent="1">
                    <mxGeometry x="140" y="30" width="60" height="20" as="geometry"/>
                </mxCell>
            </root>
        </mxGraphModel>
    </diagram>
</mxfile>